<?xml version="1.0" encoding="UTF-8" standalone="no"?>
<!-- Created with Inkscape (http://www.inkscape.org/) -->

<svg
   xmlns:dc="http://purl.org/dc/elements/1.1/"
   xmlns:cc="http://creativecommons.org/ns#"
   xmlns:rdf="http://www.w3.org/1999/02/22-rdf-syntax-ns#"
   xmlns:svg="http://www.w3.org/2000/svg"
   xmlns="http://www.w3.org/2000/svg"
   xmlns:sodipodi="http://sodipodi.sourceforge.net/DTD/sodipodi-0.dtd"
   xmlns:inkscape="http://www.inkscape.org/namespaces/inkscape"
   width="319.99988"
   height="160"
   id="svg2"
   version="1.1"
   inkscape:version="0.47 r22583"
   sodipodi:docname="dotbox-logo.svg">
  <defs
     id="defs4">
    <inkscape:perspective
       sodipodi:type="inkscape:persp3d"
       inkscape:vp_x="0 : 526.18109 : 1"
       inkscape:vp_y="0 : 1000 : 0"
       inkscape:vp_z="744.09448 : 526.18109 : 1"
       inkscape:persp3d-origin="372.04724 : 350.78739 : 1"
       id="perspective10" />
  </defs>
  <sodipodi:namedview
     id="base"
     pagecolor="#ffffff"
     bordercolor="#666666"
     borderopacity="1.0"
     inkscape:pageopacity="0.0"
     inkscape:pageshadow="2"
     inkscape:zoom="2.6631462"
     inkscape:cx="163.65091"
     inkscape:cy="81.058066"
     inkscape:document-units="px"
     inkscape:current-layer="layer1"
     showgrid="false"
     inkscape:window-width="1278"
     inkscape:window-height="1022"
     inkscape:window-x="1"
     inkscape:window-y="1"
     inkscape:window-maximized="0" />
  <metadata
     id="metadata7">
    <rdf:RDF>
      <cc:Work
         rdf:about="">
        <dc:format>image/svg+xml</dc:format>
        <dc:type
           rdf:resource="http://purl.org/dc/dcmitype/StillImage" />
        <dc:title />
      </cc:Work>
    </rdf:RDF>
  </metadata>
  <g
     inkscape:label="Layer 1"
     inkscape:groupmode="layer"
     id="layer1"
     transform="translate(-63.265443,-500.01631)">
    <rect
       style="fill:#000000;fill-opacity:1;stroke:#a6a6a6;stroke-width:0.97788709;stroke-opacity:1"
       id="rect2816"
       width="319.022"
       height="159.02211"
       x="63.754387"
       y="500.50525"
       ry="0" />
    <rect
       style="fill:#ffffff;fill-opacity:1;stroke:none"
       id="rect2818"
       width="32.442982"
       height="32.442982"
       x="134.11797"
       y="490.42953"
       transform="matrix(0.99229952,0.1238615,-0.1238615,0.99229952,0,0)" />
    <rect
       y="508.61087"
       x="93.958008"
       height="32.442982"
       width="32.442982"
       id="rect2820"
       style="fill:#ffffff;fill-opacity:1;stroke:none"
       transform="matrix(0.99956881,-0.0293631,0.0293631,0.99956881,0,0)" />
    <rect
       style="fill:#ffffff;fill-opacity:1;stroke:none"
       id="rect2822"
       width="32.442982"
       height="32.442982"
       x="180.93031"
       y="493.75012"
       transform="matrix(0.99801669,0.0629498,-0.0629498,0.99801669,0,0)" />
    <rect
       y="480.98785"
       x="240.94411"
       height="32.442982"
       width="32.442982"
       id="rect2824"
       style="fill:#ffffff;fill-opacity:1;stroke:none"
       transform="matrix(0.99451977,0.10454873,-0.10454873,0.99451977,0,0)" />
    <rect
       style="fill:#ffffff;fill-opacity:1;stroke:none"
       id="rect2826"
       width="32.442982"
       height="32.442982"
       x="319.7655"
       y="450.61407"
       transform="matrix(0.98240552,0.18676026,-0.18676026,0.98240552,0,0)" />
    <rect
       y="538.82928"
       x="191.79974"
       height="32.442982"
       width="32.442982"
       id="rect2828"
       style="fill:#ffffff;fill-opacity:1;stroke:none"
       transform="matrix(0.99059655,-0.13681546,0.13681546,0.99059655,0,0)" />
    <rect
       style="fill:#ffffff;fill-opacity:1;stroke:none"
       id="rect2830"
       width="32.442982"
       height="32.442982"
       x="276.78986"
       y="521.44946"
       transform="matrix(0.99859207,-0.05304606,0.05304606,0.99859207,0,0)" />
    <rect
       y="450.82294"
       x="412.10873"
       height="32.442982"
       width="32.442982"
       id="rect2832"
       style="fill:#ffffff;fill-opacity:1;stroke:none"
       transform="matrix(0.99055243,0.13713458,-0.13713458,0.99055243,0,0)" />
    <rect
       y="549.81952"
       x="18.594233"
       height="32.442982"
       width="32.442982"
       id="rect2834"
       style="fill:#ffffff;fill-opacity:1;stroke:none"
       transform="matrix(0.99581082,-0.09143744,0.09143744,0.99581082,0,0)" />
    <rect
       style="fill:#ffffff;fill-opacity:1;stroke:none"
       id="rect2836"
       width="32.442982"
       height="32.442982"
       x="44.944584"
       y="554.88672"
       transform="matrix(0.9935479,-0.11341331,0.11341331,0.9935479,0,0)" />
    <rect
       y="565.98767"
       x="31.629816"
       height="32.442982"
       width="32.442982"
       id="rect2838"
       style="fill:#ffffff;fill-opacity:1;stroke:none"
       transform="matrix(0.97931806,-0.20232683,0.20232683,0.97931806,0,0)" />
    <rect
       style="fill:#ffffff;fill-opacity:1;stroke:none"
       id="rect2840"
       width="32.442982"
       height="32.442982"
       x="228.55911"
       y="527.60852"
       transform="matrix(0.99724603,0.07416438,-0.07416438,0.99724603,0,0)" />
    <rect
       y="513.01599"
       x="288.81573"
       height="32.442982"
       width="32.442982"
       id="rect2842"
       style="fill:#ffffff;fill-opacity:1;stroke:none"
       transform="matrix(0.993516,0.11369234,-0.11369234,0.993516,0,0)" />
    <rect
       style="fill:#ffffff;fill-opacity:1;stroke:none"
       id="rect2844"
       width="32.442982"
       height="32.442982"
       x="144.99507"
       y="590.14539"
       transform="matrix(0.97879605,-0.20483722,0.20483722,0.97879605,0,0)" />
    <rect
       y="570.76294"
       x="253.43066"
       height="32.442982"
       width="32.442982"
       id="rect2846"
       style="fill:#ffffff;fill-opacity:1;stroke:none"
       transform="matrix(0.99598442,-0.08952669,0.08952669,0.99598442,0,0)" />
    <rect
       style="fill:#ffffff;fill-opacity:1;stroke:none"
       id="rect2848"
       width="32.442982"
       height="32.442982"
       x="284.71552"
       y="578.21228"
       transform="matrix(0.99474138,-0.10241867,0.10241867,0.99474138,0,0)" />
    <rect
       style="fill:#ffffff;fill-opacity:1;stroke:none"
       id="rect2850"
       width="32.442982"
       height="32.442982"
       x="164.64784"
       y="561.94653"
       transform="matrix(0.98722217,0.15934986,-0.15934986,0.98722217,0,0)" />
    <rect
       y="552.63495"
       x="211.12325"
       height="32.442982"
       width="32.442982"
       id="rect2852"
       style="fill:#ffffff;fill-opacity:1;stroke:none"
       transform="matrix(0.98493281,0.17293745,-0.17293745,0.98493281,0,0)" />
    <rect
       style="fill:#ffffff;fill-opacity:1;stroke:none"
       id="rect2854"
       width="32.442982"
       height="32.442982"
       x="199.15285"
       y="567.08679"
       transform="matrix(0.99633037,0.0855908,-0.0855908,0.99633037,0,0)" />
    <rect
       y="593.34546"
       x="155.45876"
       height="32.442982"
       width="32.442982"
       id="rect2856"
       style="fill:#ffffff;fill-opacity:1;stroke:none"
       transform="matrix(0.99859207,-0.05304606,0.05304606,0.99859207,0,0)" />
    <rect
       style="fill:#ffffff;fill-opacity:1;stroke:none"
       id="rect2858"
       width="32.442982"
       height="32.442982"
       x="159.73511"
       y="606.31909"
       transform="matrix(0.99401918,-0.1092056,0.1092056,0.99401918,0,0)" />
    <rect
       y="583.38031"
       x="265.78314"
       height="32.442982"
       width="32.442982"
       id="rect2860"
       style="fill:#ffffff;fill-opacity:1;stroke:none" />
    <rect
       style="fill:#ffffff;fill-opacity:1;stroke:none"
       id="rect2862"
       width="32.442982"
       height="32.442982"
       x="341.25818"
       y="562.4397"
       transform="matrix(0.9980973,0.06165852,-0.06165852,0.9980973,0,0)" />
    <rect
       y="537.51257"
       x="411.17834"
       height="32.442982"
       width="32.442982"
       id="rect2864"
       style="fill:#ffffff;fill-opacity:1;stroke:none"
       transform="matrix(0.99324035,0.1160759,-0.1160759,0.99324035,0,0)" />
    <rect
       y="623.32709"
       x="63.822533"
       height="32.442982"
       width="32.442982"
       id="rect2866"
       style="fill:#ffffff;fill-opacity:1;stroke:none"
       transform="matrix(0.99995013,-0.00998702,0.00998702,0.99995013,0,0)" />
    <rect
       style="fill:#ffffff;fill-opacity:1;stroke:none"
       id="rect2868"
       width="32.442982"
       height="32.442982"
       x="169.54649"
       y="607.64624"
       transform="matrix(0.99545975,0.0951834,-0.0951834,0.99545975,0,0)" />
    <rect
       y="584.771"
       x="255.58751"
       height="32.442982"
       width="32.442982"
       id="rect2870"
       style="fill:#ffffff;fill-opacity:1;stroke:none"
       transform="matrix(0.98516975,0.17158254,-0.17158254,0.98516975,0,0)" />
    <rect
       style="fill:#ffffff;fill-opacity:1;stroke:none"
       id="rect2872"
       width="32.442982"
       height="32.442982"
       x="646.83026"
       y="-115.44754"
       transform="matrix(0.15959453,0.98718265,-0.98718265,0.15959453,0,0)" />
    <rect
       y="640.27887"
       x="173.41554"
       height="32.442982"
       width="32.442982"
       id="rect2874"
       style="fill:#ffffff;fill-opacity:1;stroke:none"
       transform="matrix(0.99662491,-0.08209008,0.08209008,0.99662491,0,0)" />
    <rect
       style="fill:#ffffff;fill-opacity:1;stroke:none"
       id="rect2876"
       width="32.442982"
       height="32.442982"
       x="220.55081"
       y="640.60822"
       transform="matrix(0.99756504,-0.06974237,0.06974237,0.99756504,0,0)" />
    <rect
       y="593.97931"
       x="356.24719"
       height="32.442982"
       width="32.442982"
       id="rect2878"
       style="fill:#ffffff;fill-opacity:1;stroke:none"
       transform="matrix(0.99662491,0.08209008,-0.08209008,0.99662491,0,0)" />
    <rect
       style="fill:#ffffff;fill-opacity:1;stroke:none"
       id="rect2880"
       width="32.442982"
       height="32.442982"
       x="286.55222"
       y="651.65387"
       transform="matrix(0.99613926,-0.08778706,0.08778706,0.99613926,0,0)" />
    <text
       xml:space="preserve"
       style="font-size:101.38115692px;font-style:normal;font-variant:normal;font-weight:bold;font-stretch:normal;fill:#000000;fill-opacity:1;stroke:#ffffff;stroke-width:2.93366146;stroke-miterlimit:4;stroke-dasharray:none;font-family:Inconsolata;-inkscape-font-specification:'10.15 Saturday Night BRK'"
       x="71.720901"
       y="610.9389"
       id="text2903"><tspan
         sodipodi:role="line"
         id="tspan2905"
         x="71.720901"
         y="610.9389"
         style="stroke-width:2.93366146">DotBox</tspan></text>
  </g>
</svg>
