<?xml version="1.0" encoding="UTF-8" standalone="no"?>
<svg
   xmlns:dc="http://purl.org/dc/elements/1.1/"
   xmlns:cc="http://creativecommons.org/ns#"
   xmlns:rdf="http://www.w3.org/1999/02/22-rdf-syntax-ns#"
   xmlns:svg="http://www.w3.org/2000/svg"
   xmlns="http://www.w3.org/2000/svg"
   xmlns:sodipodi="http://sodipodi.sourceforge.net/DTD/sodipodi-0.dtd"
   xmlns:inkscape="http://www.inkscape.org/namespaces/inkscape"
   width="1056"
   height="1484"
   id="svg2"
   version="1.1"
   inkscape:version="0.47pre4 r22446"
   sodipodi:docname="smartcreature-vector.svg">
  <metadata
     id="metadata50">
    <rdf:RDF>
      <cc:Work
         rdf:about="">
        <dc:format>image/svg+xml</dc:format>
        <dc:type
           rdf:resource="http://purl.org/dc/dcmitype/StillImage" />
      </cc:Work>
    </rdf:RDF>
  </metadata>
  <defs
     id="defs48">
    <inkscape:perspective
       sodipodi:type="inkscape:persp3d"
       inkscape:vp_x="0 : 742 : 1"
       inkscape:vp_y="0 : 1000 : 0"
       inkscape:vp_z="1056 : 742 : 1"
       inkscape:persp3d-origin="528 : 494.66667 : 1"
       id="perspective52" />
  </defs>
  <sodipodi:namedview
     pagecolor="#ffffff"
     bordercolor="#666666"
     borderopacity="1"
     objecttolerance="10"
     gridtolerance="10"
     guidetolerance="10"
     inkscape:pageopacity="0"
     inkscape:pageshadow="2"
     inkscape:window-width="1278"
     inkscape:window-height="1022"
     id="namedview46"
     showgrid="false"
     inkscape:zoom="0.52628032"
     inkscape:cx="528"
     inkscape:cy="742"
     inkscape:window-x="1"
     inkscape:window-y="1"
     inkscape:window-maximized="0"
     inkscape:current-layer="svg2" />
  <path
     style="fill:#000000; stroke:none;"
     d="M298 350C302.698 365.183 302.438 384.174 302.161 400.015C302.026 407.738 300.347 415.608 303 423L301 423C302.533 438.164 300.837 454.709 299.94 470C299.751 473.217 297.329 484.407 301 485L301 488L299 487L298 496L293 496L293 491L276 490.051L233 487L234 489L233 489C222.917 486.02 211.279 488.451 201 488.741C182.692 489.258 162.877 489.709 145 485.089C140.821 484.009 119.483 480.462 117.039 483.604C114.795 486.487 116.446 492.627 116.433 496C116.39 507.063 117.175 517.908 117.481 528.961C118.216 555.564 118.637 582.474 121.17 609C122.894 627.063 125.95 645.876 126 664C115.999 663.571 105.893 661.107 96 659.576C92.5594 659.043 86.4949 656.918 83.358 659.23C78.0351 663.153 79.7062 684.554 80.1551 690.83C82.3021 720.85 79.6408 751.065 82 781C73.8964 781.234 59.8296 782.614 53 777L52 777L41 775L43 778C37.4615 778.295 31.2728 773.006 26.9738 778.688C21.872 785.431 25.6159 804.596 25.3812 813.015C24.7961 833.999 25.9905 854.982 26 876C26.0056 888.523 24.449 903.987 28 916L25 917L25.9961 961L24 977L24 1016L22 1015C25.259 1045.22 20.002 1077.55 20 1108C19.9964 1164.48 22.9618 1220.62 21.4792 1277C20.7831 1303.47 20 1329.56 20 1356C20 1367.19 17.6164 1381.52 22 1392L102.015 1390.42L135 1387.9L172.015 1392.81L204.285 1391.89L242 1395L282.91 1393.43L320 1399.77L357 1395.96L369 1393L368 1396L376 1399C379.196 1387.34 367.334 1382.7 360.093 1376.48C354.876 1372 349.637 1362.91 349 1356C342.806 1349.21 339.863 1338.53 336.95 1329.93C336.074 1327.34 334.537 1322.05 337.35 1320.03C339.645 1318.39 346.432 1322.22 349.004 1322.79C360.762 1325.39 373.051 1328.11 384.985 1329.68C398.147 1331.4 410.911 1336.29 424 1337.66C442.059 1339.56 459.291 1336.21 477 1335.21C490.721 1334.44 503.492 1337.1 517 1332C512.567 1347.1 502.038 1360.31 496.559 1375C491.805 1387.75 492.708 1403.59 491.922 1417C491.22 1428.97 494.366 1436.85 498.394 1447.91C499.66 1451.39 499.189 1454.87 502.229 1457.57C509.226 1463.77 519.489 1457.53 527.116 1456.82C562.1 1453.57 587.266 1406.09 582 1373C585.456 1372.31 586 1359.41 586 1355C586 1342.08 583.054 1326.22 580 1314C579.018 1310.07 575.504 1302.13 579 1303L568 1278C583.18 1288.39 598.877 1299.01 618 1297.17C628.06 1296.2 633.118 1297.31 638 1287L642 1288C652.202 1271.8 649.743 1252.26 643.704 1235.09C636.014 1213.22 622.142 1204.65 603 1193.16C581.003 1179.96 564.28 1171.1 538 1176C554.772 1156.83 551.793 1126.47 544 1104L542 1105C541.405 1096.95 538.566 1088.04 531 1084C529.708 1073.2 517.67 1068.12 509 1064.1C486.676 1053.74 453.48 1050.6 435.56 1072.44C427.672 1082.05 427.566 1092.74 427.821 1104C428.343 1127.06 434.376 1144.18 450.76 1161.18C453.993 1164.53 458.48 1166.19 461.698 1169.59C464.74 1172.81 465.739 1176.92 470.015 1179.02C472.495 1180.23 480.004 1180.9 479.218 1185.24C478.618 1188.55 471.514 1191.13 469.09 1193.03C459.622 1200.45 452.232 1209.25 442.495 1216.27C436.411 1220.66 429.135 1235.7 421.575 1236.52C409.717 1237.8 397.471 1220.41 388.83 1214.31C350.993 1187.59 320.007 1151.02 297.004 1111.04C289.491 1097.98 283.171 1084.41 276.309 1071C273.774 1066.04 272.698 1057.95 267 1056L253 1023C241.472 1012.43 234.863 986.857 230.715 972C219.372 931.372 214.761 891.459 217.641 849.325C218.355 838.888 216.425 822.354 220 813L221 809L220 788L223 787C218.899 777.506 223.868 759.31 227 750L225 750L238.97 709.545L247 700L255 691C257.179 680.938 269.336 670.941 277 664.808C280.722 661.829 287.792 660.08 288 655L298 654C303.635 680.234 286.606 714.192 306.329 737.292C320.093 753.413 347.529 740.19 365 740.004C417.553 739.443 469.457 750 522 750L522 751C514.43 752.025 510.373 756.163 504 759.79C497.307 763.599 489.585 765.621 483 769.61C478.643 772.248 475.402 776.393 471 778.911C449.027 791.481 420.749 796.684 396 799.714C384.38 801.136 372.905 800.58 361.285 800.178C357.62 800.052 351.464 798.816 349.013 802.318C346.309 806.181 347.279 812.561 346.37 817C344.295 827.131 341.127 836.615 339.711 847C335.06 881.123 328.861 913.387 330.91 948C331.409 956.418 331.48 965.578 330.844 974C330.535 978.094 329.061 983.896 330.746 987.791C333.047 993.111 341.43 996.622 345.711 1000.29C358.982 1011.64 369.723 1026.3 386 1033.83C392.861 1037 402.454 1036.02 410 1037.21C423.526 1039.33 437.009 1045.05 451 1042.23C459.887 1040.43 468.164 1032.91 477 1032C476.216 1028.08 479.638 1030.96 483 1029C490.395 1024.69 497.374 1017.34 504 1019C498.88 998.431 481.352 982.204 476.613 961C474.741 952.627 475.625 942.662 475.209 934.089C473.692 902.83 477.114 873.96 481 843L482 843C485.752 851.047 493.398 857.751 498.585 865C506.483 876.038 513.137 887.607 522.789 897.505C539.598 914.743 562.211 923.795 582 936.749C590.142 942.08 597.814 948.611 606.174 953.532C614.1 958.198 623.263 960.845 630.961 965.998C640.485 972.374 647.592 982.583 657.129 988.587C665.942 994.136 676.314 997.078 684.999 1002.89C693.796 1008.78 700.133 1019.49 709.104 1024.69C718.297 1030.01 730.629 1030.45 740.089 1035.37C747.312 1039.12 755.287 1047.68 764 1046L766 1050C777.42 1050.67 786.789 1066.64 795.174 1073.33C799.679 1076.93 803.876 1079.23 805.891 1085C810.672 1098.68 810.019 1115.69 812.616 1130C818.935 1164.82 826.799 1198.39 828.164 1233.99C828.638 1246.33 837.522 1265.25 834.084 1276.91C832.741 1281.47 827.161 1284.78 824.806 1289C814.137 1308.13 801.453 1326.34 788.511 1344C786.245 1347.09 773.974 1363.05 779.333 1365.78C783.069 1367.69 789.029 1362.37 792 1360.6C802.663 1354.25 814.284 1343.74 826 1340C824.821 1354.94 823.803 1370.3 820.754 1385C819.698 1390.09 814.358 1399.53 816.873 1404.46C820.358 1411.3 830.446 1401.01 833.999 1398.69C845.708 1391.04 864.445 1372.82 868 1359L879.228 1374L897.907 1406.13L907 1417C910.6 1406.45 911.932 1395.02 913.285 1384C913.613 1381.33 913.091 1373.85 916.032 1372.57C920.503 1370.62 926.606 1379.37 929.17 1381.81C936.867 1389.15 950.638 1394.09 960 1399.2C962.728 1400.68 967.052 1401.8 969.848 1399.74C974.145 1396.57 965.098 1376.63 963.258 1372C962.251 1369.47 959.614 1364.23 962.444 1362.03C964.762 1360.23 969.221 1361.02 971.961 1360.95C979.965 1360.74 988.021 1360.37 996 1359.62C1001.03 1359.14 1007.09 1357.87 1008.17 1352C1009.4 1345.28 1001.61 1340.38 996 1339.19C983.265 1336.48 957.766 1337.92 948.803 1326.78C941.361 1317.52 940.883 1303.18 938.916 1292C935.208 1270.92 932.17 1250.07 929.209 1229C927.957 1220.09 928.664 1211.52 925 1203L928 1204C919.887 1184.89 916.629 1161.96 913.899 1141.42C913.009 1134.73 912.055 1116.3 907 1112L907 1111L918 1109L919 1109C926.937 1116.17 942.996 1124.63 954 1124L964 1131C971 1131.48 977.361 1137.69 983 1141.43C992.88 1147.99 1004.03 1152.45 1014 1158.68C1018.68 1161.61 1027.14 1168.21 1032.85 1168.25C1037.73 1168.29 1036.52 1157.13 1036.75 1154C1037.66 1141.75 1034.72 1128.95 1033.81 1116.71C1033.51 1112.73 1035 1105.66 1032 1103C1035.68 1090.18 1029.07 1072.91 1027.21 1060C1023.11 1031.66 1017.58 1001.78 1017 973L1018 973L1018 975L1019 975C1018.61 971.801 1018.52 967.484 1015 967L1014 954C1012.5 952.188 1012.84 951.978 1015 951L1008.23 922.001L1002 907L1002 906C1005.75 902.131 999.08 877.296 995 874L995 867L989.711 851.996L981.333 820L967.283 782.001L944.463 725L930 698C929.276 679.883 910.82 665.561 900.224 652.911C884.998 634.734 872.837 614.261 855.536 597.514C848.588 590.788 839.572 587.281 832 581.583C826.957 577.788 820.777 574.361 816.144 570.177C812.904 567.252 812.381 563.382 808 562L808 568C791.407 568.135 770.958 580.233 757 589.474C748.159 595.327 737.367 606.091 726 606C723.334 610.904 713.768 619.663 707.514 616.628C697.656 611.845 687.277 596.25 679.615 588.3C667.161 575.379 649.186 562.218 634 552.83C626.153 547.979 618.619 540.113 609 540L609.946 514.911L614 455C608.944 448.326 613.391 436.773 613.29 429C612.984 405.333 614.665 381.861 613.745 358C612.494 325.596 608.799 293.425 608.015 261C607.11 223.585 609.957 186.299 608.83 149C608.255 129.951 606.615 109.025 603.782 90.3002C602.205 79.8827 598.041 67.4563 599 57L595 48L592 50L594 47L594 46L591 39L585 35C574.691 33.4614 564.854 23.8922 554 21.3364C540.24 18.0964 527.323 19.5975 513.576 19.1243C502.035 18.7269 490.596 17.0007 479 17C461.64 16.9989 444.271 13.3118 427 14.0393C411.523 14.6913 396.2 19.1085 380.715 19.3704C369.423 19.5613 358.438 20.6545 347.17 21.7454C342.125 22.2338 336.681 21.2576 331.91 23.4677C311.79 32.7891 300.093 64.5476 298.582 85.0895C295.55 126.284 297.37 168.677 297.664 209.999C297.834 233.976 294.43 258.092 295.086 282.003C295.547 298.79 297.606 315.579 298.229 332.325C298.429 337.69 300.939 345.213 298 350z"
     id="path6" />
  <path
     style="fill:#ffffff; stroke:none;"
     d="M380 25L379 25C366.356 31.5472 348.38 25.3147 335.054 31.2277C328.181 34.2773 321.828 42.7892 318.019 49C315.571 52.9923 308.439 61.6362 311 66L308 66L307 70L310 71L305 94L307 97L304.141 112.015L305 158L303 158L304.309 203.83L303 221L303 222L303 231L305 231L305 237L303.315 247.588L302.255 281.866L304 295C301.513 305.447 304.51 315.558 304.523 326C304.529 330.588 302.878 336.936 307 340L307 348L304 349C314.17 379.817 309.434 419.344 307 451L309 451L305.87 482.575L303.556 500.695L314 512L306 511L305 511C300.755 519.043 303.048 532.042 302.995 541C302.891 558.91 303.478 576.312 303.799 594C303.917 600.521 302.67 606.421 304 613L302 613L305 648C300.785 651.939 303.177 664.461 303.127 669.996C302.967 687.445 296.067 729.631 318 737.015C327.045 740.061 339.982 734.891 349 733.321C361.288 731.182 374.56 731.495 387 732.039C433.741 734.086 480.053 746.688 527 740.503C542.652 738.441 562.784 736.554 576.656 727.865C584.062 723.225 584.927 702.963 587.015 695C594.483 666.512 596.056 638.484 596.451 609C596.58 599.355 593.626 589.602 594.934 580C599.719 544.849 604.173 509.392 606.251 474C607.536 452.114 605.554 430.24 605.853 408.424C606.04 394.725 608.291 380.865 607.89 367.089C606.769 328.497 601.067 290.131 601.615 251.325C602.043 221.019 601.771 190.976 601.768 160.714C601.768 151.266 603.429 141.369 602.706 132C602.138 124.644 599.216 117.381 598.29 110C596.754 97.7522 599.712 84.7859 595 73L595 62C590.123 58.8861 589.327 51.09 586.585 46.1705C583.901 41.355 576.698 36.9653 572 34.2631C549.05 21.063 522.94 24.8318 498 24.922C483.259 24.9753 468.643 23.1327 453.961 22.48C436.786 21.7164 419.921 20.8411 402.91 23.8542C396.524 24.9855 385.66 28.9877 380 25z"
     id="path8" />
  <path
     style="fill:#000000; stroke:none;"
     d="M319 48L320 49L319 48M454 87L457 89C455.087 94.1211 449.127 103.189 455 107C450.808 117.922 452.117 129.261 451.996 141C451.876 152.726 449.865 164.264 450.004 176C450.084 182.737 452.187 189.28 452.076 196C451.57 226.869 446.599 257.391 444.117 287.999C441.955 314.667 444.01 341.346 444 368C443.992 387.583 451.884 408.57 455.69 428C456.84 433.875 456.38 446.025 461 450C457.081 468.023 469.427 490.266 471.84 508C472.934 516.035 469.036 525.722 472 533L471.765 544.015L476 571L450 572L450 577C444.861 576.794 439.36 575.288 436 580C439.611 581.068 444.309 582.08 447 579C454.901 580.252 463.069 577.457 471 577.664C474.004 577.742 478.8 579.029 481.397 576.972C485.97 573.35 481.109 557.565 478 554L478 553L477.015 527L478.389 501L473 454C468.55 445.497 469.532 433.122 466.311 423.729C464.74 419.148 460.444 416.459 458.995 411.961C451.307 388.104 452.814 359.52 454.14 334.961C454.903 320.841 453.442 303.293 459 290C452.016 275.965 461.624 254.95 462 240L461 240L455 251C458.697 230.108 459.549 207.295 458.985 186C458.776 178.104 453.88 166.712 460 160L461 118L464 115L461 114L463 102L472 116L473 116L469 96C465.077 94.1539 463.275 91.9242 459 94C459.351 89.7004 458.122 88.1542 454 87M342 115C357.352 112.755 385.814 92.918 399.556 110.34C405.322 117.65 402.447 132.361 409 138C408.472 151.986 431.419 151.481 435 140C429.945 140 419.447 142.979 415.995 138.707C408.423 129.336 412.401 113.332 403.695 104.109C392.996 92.7737 366.234 96.6387 354 103.3C348.503 106.293 343.33 108.43 342 115M676 279C681.126 285.758 681.13 299.657 683.166 308C688.902 331.501 696.355 355.251 700.718 378.985C702.259 387.366 704.672 395.521 706.08 404C706.58 407.009 706.576 411.555 710.143 412.547C716.181 414.227 720.186 402.932 722.999 399C732.422 385.833 734.821 366.772 745.329 355.094C749.716 350.22 760.727 346.059 766.985 349.782C780.042 357.551 780.424 384.313 786.039 397C788.113 401.686 790.954 409.198 796 411C797.963 423.825 819.594 427.646 828.83 420.486C839.152 412.484 844.57 398.704 851.456 388C865.753 365.775 883.135 340.422 901.41 321.286C908.643 313.711 915.964 302.605 926.995 301.265C929.31 300.984 933.099 300.159 932.248 296.95C930.546 290.524 919.672 292.978 915 291.49C902.925 287.644 888.907 282.597 878.015 276.215C872.806 273.164 868.882 266.131 863 265L846.778 228L842 212L837.015 182L838.174 140L841 113C834.007 113.532 831.453 119.576 827.948 124.999C821.221 135.408 814.744 148.48 806.525 157.625C781.478 185.498 752.47 205.094 714.015 206.569C701.606 207.045 686.782 206.651 674.576 203.889C671.593 203.214 663.526 198.596 661.407 202.515C659.905 205.294 665.627 208.672 665.593 211.915C665.448 225.468 666.157 239.307 669.594 253C671.761 261.631 676.992 269.895 676 279M474 140C478.852 141.839 491.488 141.019 495 137L515 138C519.445 133.535 526.112 137.207 529 142L530 142L537 139L537 138L517 129C505.912 130.208 479.073 126.389 474 140M425 277L430 276L431 264L438 249L435 242C431.632 245.204 431.738 248.723 433 253L418 276L414 272C406.274 279.024 396.552 271.141 398 262C392.95 255.818 396.161 246.897 389.247 240.483C383.95 235.569 378.294 242.061 373.394 239.137C363.989 233.524 363.575 209.256 365 200C370.723 200.911 386.591 202.045 388 195C394.741 192.727 399.263 187.868 401 181L424 185C426.675 193.025 430.518 189.129 434 190L441 183C437.703 181.795 433.882 180.882 433 185L429 184L430 181L422 175L428 170L427 164L423 164C421.18 167.039 421.808 171.664 420.022 174.106C417.143 178.046 410.592 174.343 407 174L403 171L399 141C389.846 139.103 368.066 143.264 362.674 151.286C357.65 158.763 358.492 168.429 357.925 177C356.492 198.657 354.736 226.03 366.818 245.441C371.014 252.183 380.2 243.838 385.486 248.603C391.079 253.645 389.995 268.369 393.251 275.384C396.629 282.664 423.246 287.333 425 277z"
     id="path10" />
  <path
     style="fill:#ffffff; stroke:none;"
     d="M828 140L825 146L823 144L822 144L815.553 153.259L791.675 182.56L777 197C766.273 196.491 755.275 206.845 745 209.794C724.468 215.686 693.498 217.396 673 211L675 214C668.133 232.045 676.258 251.942 681.561 270C690.14 299.212 691.651 331.652 703 360C706.736 369.331 705.915 392.994 715 398C723.482 386.158 727.786 375.249 733.207 362.004C738.735 348.497 761.783 330.763 774.366 347.044C786.245 362.415 787.356 384.204 795.28 401.536C798.935 409.531 807.707 417.708 817 416.695C828.111 415.484 832.783 404.158 838.59 396C847.583 383.368 856.779 370.711 865.675 358C870.657 350.881 874.908 342.235 882 337C884.998 323.749 902.371 307.885 913 300L913 299C904.818 298.263 897.318 292.852 890 289.363C882.475 285.775 873.544 283.167 867.17 277.61C832.882 247.723 827.685 186.003 831 144L827 145L828 140M363 172L363 173L363 174C364.662 176.413 364.444 177.392 362 179L364 195C372.715 194.748 387.666 192.821 392.606 184.675C400.844 171.09 392.233 137.996 372.231 153.129C367.12 156.996 367.253 166.883 363 172z"
     id="path12" />
  <path
     style="fill:#000000; stroke:none;"
     d="M371 154L372 155L371 154M497 161L496 164L489 167C492.813 166.995 497.095 165.319 497 161M490 169L491 170L490 169M482 179L482 180L476 183L476 182L478 181C468.149 179.648 472.073 190.304 476 186L483 184L492 182C514.141 189.781 516 225.656 516 245C508.923 245.895 497.829 245.435 492.21 250.353C485.051 256.62 480.503 269.965 469 270C467.757 277.393 475.512 276.586 481 276C481.744 290.888 495.183 313.093 512 305L517 294L516 294L516 296L515 296C521.981 278.148 523.783 255.206 524.145 236C524.288 228.435 520.394 219.152 523 212L523 211C514.384 200.66 517.53 175 499 175C496.376 175 487.483 172.07 488 170C483.234 170.987 473.636 174.612 482 179M462.667 205.333L463.333 205.667L462.667 205.333M678 216L679 217L678 216M675 217L675 220L676 220L675 217M436.667 241.333L437.333 241.667L436.667 241.333M734 255L728 256L727 251L730 252C726.364 248.757 721.613 250.6 723.272 256.001C725.827 264.316 732.969 274.979 738.104 281.995C739.598 284.035 746.46 290.666 747.914 284.735C748.638 281.781 745.12 279.057 743.616 276.961C739.377 271.052 732.062 262.494 734 255M731.333 252.667L731.667 253.333L731.333 252.667z"
     id="path14" />
  <path
     style="fill:#ffffff; stroke:none;"
     d="M490 272L494 290C499.825 295.259 502.319 301.648 511 298L515 253C501.893 255.461 491.276 255.348 490 272z"
     id="path16" />
  <path
     style="fill:#000000; stroke:none;"
     d="M787 262L788 264L783 265L779 268L780 273L788 273L788 272L786 270C789.932 269.575 799.148 263.587 800.914 259.914C804.206 253.068 794.29 256.786 792.025 258.368L787 262M458 271L459 272L458 271M816 300C815.42 303.701 814.942 306.812 819 308L819 304L822 305L823 304L816 300M826 345C833.413 341.994 832.231 333.129 826 329L823 309C809.853 311.08 822.673 337.525 826 345z"
     id="path18" />
  <path
     style="fill:#ffffff; stroke:none;"
     d="M132 676C122.615 671.258 112.348 668.73 102.039 666.858C98.3365 666.185 92.7585 664.884 89.6134 667.603C81.5771 674.551 86.2039 692.023 86.4954 701C87.1328 720.631 86.7953 740.368 87.2801 760C87.5571 771.22 88.8623 783.886 87 795C69.9797 790.294 49.1181 781.709 31 785C33.1235 871.995 31.1517 958.083 26 1045L27 1059L25 1058L27.76 1200L26.4645 1240L26 1253L27 1386L29 1384L30 1384C32.6521 1387.03 36.8047 1386.11 39 1383L40 1383L63 1383.44L99 1384.49L130.424 1380.88L166 1385.96L279 1386.56L321 1392.79L360 1387L360 1386C351.342 1382.36 346.765 1368.37 343.134 1360C341.546 1356.34 341.331 1349.51 337 1349C334.415 1340.79 333.712 1322.59 328.372 1316.38C321.705 1308.62 304.779 1305.14 296 1299.17C273.552 1283.89 251.325 1267 232.325 1247.54C216.068 1230.89 203.82 1211.85 189.91 1193.27C134.332 1119.02 93.9698 1023.95 94 930C94.0077 906.005 95.2857 883.721 98.5849 860C99.7637 851.524 100.751 835.669 106 829C103.893 815.531 112.721 801.205 116.866 789C118.897 783.018 118.931 776.862 121.694 771C125.977 761.911 132.715 751.409 132 741C138.681 739.576 138.879 726.352 141.028 721C143.233 715.505 147.611 711.477 150.083 706C155.598 693.782 160.105 675.568 171 667L176 656L179 657C179.247 652.895 181.224 651.317 185 650L184 647C190.054 643.907 192.309 636.864 197.09 632.245C211.971 617.868 229.697 600.214 248 590.464C257.717 585.288 268.587 580.135 279 576.609C283.829 574.974 289.192 575.807 292 571L297 572C297.585 555.115 294.369 534.218 299 518L297 518C304.13 501.733 281.531 496.692 270 495.468C266.577 495.105 263.414 496.787 260 496.737C246.959 496.544 234.13 494.709 221 495.015C203.375 495.426 184.612 497.727 167 495.874C157.028 494.825 147.048 493.047 137 492.113C133.497 491.788 128.294 490.738 125.318 493.072C121.723 495.891 123.312 501.396 123.37 505.286C123.535 516.202 124.77 527.079 124.985 538C125.489 563.712 125.093 590.311 127.88 616C129.894 634.572 136.392 657.552 132 676M608 540L609 541L608 540M605 546C604.987 566.169 602.484 585.794 602.985 606C603.103 610.738 600.325 622.741 603.029 626.436C606.793 631.581 618.621 633.006 623.819 638.143C628.499 642.767 632.174 651.024 638.286 653.944C643.487 656.428 647.327 649.3 651.883 650.573C657.112 652.033 648.417 658.858 647 660C649.734 666.458 655.157 669.947 659.714 675.015C668.133 684.378 676.613 693.51 685.164 702.63C690.404 708.217 693.22 715.773 697.619 721.999C710.372 740.049 725.339 761.289 731 783L741.056 801L762.639 865.222L782.583 923L791.389 977L798.083 995.778L814.778 1098L829.972 1182L832.389 1204L834 1212C831.01 1223.1 833.537 1245 839 1255C836.746 1257.63 838.854 1262.71 839.421 1266C841.113 1275.81 844.221 1281.34 841 1291L835 1289L805.541 1333.33L796 1349L837 1323L829.614 1363L829.528 1378.01L826 1395C839.911 1388.07 853.636 1372.58 860.927 1359C862.672 1355.75 866.285 1342.27 870.907 1343.06C874.631 1343.69 878.275 1356.65 879.579 1360C883.871 1371.02 890.425 1380.96 896.319 1391.17C898.706 1395.31 899.615 1399.65 904 1402C904.213 1392.01 907.439 1382 908.281 1372C908.529 1369.06 906.41 1364.22 910.164 1362.84C914.745 1361.15 921.398 1365.89 925 1368.24C937.379 1376.32 946.396 1385.2 961 1390C960.008 1382.63 957.841 1373.56 954.235 1367.01C952.692 1364.21 946.794 1360.32 947.117 1356.98C947.498 1353.03 957.306 1354.25 960 1354.27C972.127 1354.37 987.448 1353.91 999 1350C991.681 1339.8 975.879 1348.73 967 1341C962.273 1341.87 959.411 1340.75 958 1336C953.321 1336.83 949.61 1337.1 948 1332C942.538 1332 934.43 1328.85 940 1323L927.167 1263L923.672 1233L922 1219C924.901 1215.68 922.052 1208.81 920.836 1205C917.64 1194.99 916.042 1184.24 913.598 1174C912.513 1169.45 913.384 1165.61 910 1162L910 1161C912.731 1156.76 910.074 1152.12 908 1148C912.95 1143.5 904.509 1122.14 902.849 1116C894.432 1084.89 888.951 1053.07 880.17 1022C876.251 1008.14 875.221 993.434 871.322 979.715C854.078 919.032 829.897 860.261 805.951 802C793.033 770.568 781.739 737.7 762.886 709C747.237 685.177 741.516 657.047 719.001 638.385C714.947 635.025 711.273 628.973 706.011 627.532C701.493 626.296 695.749 629.792 691 630L691 626C697.481 627.44 700.38 621.572 696.346 616.424C682.226 598.407 663.166 587.364 646.715 572.485C635.354 562.21 620.858 547.17 605 546M716 623C720.567 634.864 734.4 638.947 740.482 650C769.318 702.396 796.407 756.161 817.748 812C824.833 830.535 832.405 848.953 838.239 867.961C839.367 871.634 842.275 874.257 843 878L854 905L888.17 911.752L902 915C904.677 908.606 901.949 897.926 901.514 891C900.59 876.302 900.67 861.78 899.169 847C896.252 818.273 887.489 791.988 881.518 764C877.951 747.284 876.141 730.435 871.124 714.015C868.288 704.732 862.667 696.423 859.718 687C855.78 674.421 853.837 661.065 848.565 649C844.56 639.836 842.745 630.149 838.771 621C835.573 613.639 830.494 607.24 827.208 600C823.226 591.224 823.141 581.789 812.999 577.9C800.211 572.996 792.021 580.126 781 585.601C758.629 596.715 738.435 612.298 716 623M277 582L276 586L273 585C263.918 594.108 247.447 597.757 236.804 605.504C228.911 611.249 222.1 619.489 214.91 626.1C196.906 642.654 177.708 660.152 167.287 682.714C163.181 691.604 148.879 710.713 153 720C145.304 722.76 142.628 733.932 139.989 741C134.483 755.749 128.295 770.089 123.24 785C120.81 792.167 117.234 799.294 119 807C111.105 812.546 111.349 828.316 109.32 837C108.176 841.899 106.158 845.023 108 850L107 858C103.739 860.625 100.599 872.589 103 876C98.9098 881.919 98.9597 900.089 101 907L98 907L98 908C103.837 924.444 99.6928 945.702 101.336 963C104.161 992.746 112.411 1025.38 121.215 1053.91C129.602 1081.09 143.738 1107.48 156.5 1133C161.028 1142.06 171.572 1153.25 173 1163L177 1168L180 1173C185.17 1174.49 186.18 1179.63 188.905 1183.71C193.455 1190.53 199.084 1197.07 203.861 1203.83C221.601 1228.95 241.738 1249.66 264.594 1270.25C302.05 1303.99 346.275 1314.72 394 1323.46C404.795 1325.44 415.159 1329.31 426.09 1330.78C442.943 1333.04 458.489 1328.89 475.015 1327.53C486.845 1326.56 498.102 1329.09 510 1325.73C515.255 1324.24 519.89 1320.13 525 1318C528.184 1330.06 522.32 1337.5 517.492 1348C508.046 1368.55 501.171 1384.45 500.05 1406.83C499.704 1413.73 496.907 1416.8 500 1424C493.692 1430.47 505.268 1445.01 508 1451C515.309 1452.11 519.989 1452.25 526 1447L527 1447C533.34 1451.42 550.477 1441.99 552 1435C556.641 1433.47 558.23 1428.96 560.684 1425C567.317 1414.29 570.61 1405.12 572.947 1393C578.587 1363.74 579.83 1336.13 571.402 1307C568.199 1295.93 564.128 1283.58 559.486 1273C556.838 1266.97 552.371 1262.85 552 1256L563 1259L562 1262C576.516 1272.4 583.922 1284.12 602 1289C603.582 1286.65 604.475 1286.78 607 1288L616 1288C618.38 1285.62 624.355 1284.6 625 1289C632.821 1288.47 635.356 1283.43 638.604 1277.01C645.172 1264.05 642.954 1248.7 636.77 1235C627.753 1215.02 613.644 1209.02 595.999 1198.05C579.861 1188 564.885 1178.57 544.999 1183.51C531.175 1186.95 520.558 1199.6 511 1209.55C509.119 1211.51 502.542 1218.37 499.812 1214.5C497.332 1210.98 501.849 1207.2 504.271 1205.24C512.798 1198.36 521.582 1189 527.648 1179.83C545.643 1152.62 546.902 1127.42 533.041 1098C529.971 1091.48 526.378 1083.27 520.714 1078.64C497.027 1059.25 444.071 1055.2 434.496 1092C429.252 1112.16 438.815 1136.61 451.424 1151.58C457.072 1158.28 466.724 1161.72 470 1170C475.774 1171.31 492.324 1177.78 489.237 1185.96C486.68 1192.73 476.353 1197.09 471 1201.38C465.113 1206.1 461.227 1212.5 455.791 1217.52C448.685 1224.09 433.228 1230.85 430.329 1241C429.479 1243.98 431.96 1247.82 432 1251C417.232 1248.87 402.786 1234.5 391.579 1225.34C370.333 1207.99 350.08 1191.26 331.597 1170.75C321.958 1160.06 313.482 1143.33 302 1135L302 1130L293 1120L294 1118C279.203 1106.3 273.971 1078.2 264.829 1062.02C240.365 1018.73 218.292 971.368 212.19 921.134C207.561 883.028 210.929 842.235 213.796 804C215.804 777.227 215.542 747.987 226.319 723C228.546 717.838 229.97 703.538 236 702C238.496 694.96 244.926 691.38 249.351 685.816C257.584 675.462 266.48 656.93 281 654L297.357 644.682L297.17 630L297 579L277 582M831 591L847.164 624L868.516 692L878.445 717L889.92 768L904.198 826L911 915L918 914C910.474 924.369 899.552 916.706 889 919L877 915.661L855 910L876.062 974L877.867 990.17L887 1028C890.929 1032.43 896.421 1051.56 894 1057C902.54 1069.93 902.043 1091.08 906 1106C920.576 1102.67 927.864 1107.8 941 1113.04C952.297 1117.54 964.559 1120.58 975 1126.98C991.962 1137.37 1010.24 1154.68 1030 1159C1030.11 1117.84 1023.05 1078.72 1018.13 1038C1017.32 1031.36 1018.52 1024.64 1017.71 1018C1016.42 1007.33 1012.76 996.7 1012.09 986C1011.09 969.686 1008.84 953.189 1005.55 937C1004.57 932.16 1003.96 923.042 1000 920C1000.21 902.226 990.535 880.981 985.693 864C982.621 853.227 981.858 841.535 978.528 831C969.889 803.676 958.456 777.19 949.16 750C945.163 738.308 933.046 726.02 932 714C924.774 707.4 924.26 695.197 919.001 687C903.146 662.291 881.951 641.078 864.001 618.076C856.22 608.107 844.427 592.952 831 591z"
     id="path20" />
  <path
     style="fill:#000000; stroke:none;"
     d="M437 601L435 606C444.692 609.571 466.538 606.701 477 604.667C480.432 603.999 490.36 599.723 483 595.5C480.058 593.812 476.017 596.707 473 597C463.596 597.914 454.331 597.574 445 599C441.588 599.521 440.048 603.286 437 601z"
     id="path22" />
  <path
     style="fill:#ffffff; stroke:none;"
     d="M601 634L599 682C608.039 679.034 615.133 673.307 623 668.14C625.59 666.438 630.702 664.016 631.658 660.816C632.671 657.425 628.146 653.178 626.305 650.714C619.065 641.027 612.936 636.225 601 634M595 701L594 708L592 714C583.302 717.691 589.716 729.357 579.996 734.906C566.945 742.356 550.471 741.623 537.209 747.879C532.604 750.051 529.716 755.187 525 757.672C487.572 777.392 452.322 797.791 410 805.424C393.11 808.471 375.636 805.479 359.109 808.152C354.63 808.876 354.012 814.386 357 817L356 820C365.208 830.233 362.295 850.346 375 858L392 892C398.091 895.612 401.505 904.396 406.371 909.714C417.501 921.878 428.607 933.69 438.189 947.155C449.148 962.555 459.218 981.555 477 990L481 998L483 998L484 997C481.409 985.839 473.326 976.607 470.467 965.001C467.756 953.995 468.892 941.209 468.403 930C467.339 905.638 467.413 881.058 472.336 857C473.84 849.645 475.479 841.493 475.867 834C476.222 827.149 472.765 824.142 479 819L483 811L484 819L490.167 825.833L501 833.5L548 855.667L580 867L607 868L641 875.5L674 876.5L685 881.5L709 880.167L746.667 886.667L764 890C759.052 872.474 752.598 856.068 746.394 839C742.284 827.691 740.808 816.059 735.651 805C730.776 794.545 724.283 784.884 719.129 774.576C708.136 752.59 698.158 731.159 683.352 711.039C671.179 694.498 653.475 681.452 641 665L614 682.539L599.525 691.326L595 701z"
     id="path24" />
  <path
     style="fill:#000000; stroke:none;"
     d="M326 735L327 736L326 735M143 741L144 742L143 741M39.6667 785.333L40.3333 785.667L39.6667 785.333z"
     id="path26" />
  <path
     style="fill:#ffffff; stroke:none;"
     d="M218 821L219 822L218 821M352 829L349 836C352.286 840.777 344.906 857.663 344.156 864C341.065 890.126 338.646 916.698 338.445 943C338.388 950.457 333.774 968.315 341 973L339 975C346.018 992.248 366.095 1012.54 384 1020.59C393.514 1024.86 403.127 1025.86 413 1028.59C424.027 1031.65 435.189 1036.62 447 1034.79C460.959 1032.61 474.121 1022.27 487 1017L454.599 980.699L420.402 932.17L393.171 903.755L362 851L352 829M487 833C487.408 838.62 491.448 847.018 497 849C497.998 855.47 506.251 868.491 512 872C512.288 879.474 521.237 887.755 528 890C529.011 899.816 548.06 904.378 554 912L557 911C559.659 916.434 564.811 920.484 571 920C573.134 924.07 576.313 924.347 579.961 926.711C588.897 932.504 597.73 937.749 607 943.142C636.829 960.496 664.261 987.013 697 999L709 1016L712 1015C715.754 1022.66 724.892 1022.22 732 1025.09C745.921 1030.72 760.273 1037.88 773 1045.83C776.518 1048.03 786.717 1058.34 790 1056L791 1056L791 1060L797 1068L803 1070L797.095 1039L785.501 980.001L778.504 936L768.843 907L764.298 897.028L744 893.701L690 886C683.609 889.38 671.062 883.366 664 882.424C657.085 881.502 650.716 883.165 644 882.675C629.819 881.64 612.265 877.785 599 873C593.251 876.318 577.705 872.188 571 871.08C549.767 867.571 527.329 858.2 509.039 846.926C501.422 842.231 495.738 836.18 487 833z"
     id="path28" />
  <path
     style="fill:#000000; stroke:none;"
     d="M711 889L712 890L711 889M851 1094L853 1094L857 1126L863 1126L860 1113C861.303 1098.56 854.523 1084.01 852.322 1070C848.227 1043.92 844.159 1017.07 841.12 991C840.033 981.676 827.674 961.181 835 954C830.912 939.07 824.604 957.295 826.415 965C834.521 999.48 841.564 1033.54 845.169 1069C846.023 1077.4 851.958 1085.71 851 1094M24 972L24 975L25 975L24 972z"
     id="path30" />
  <path
     style="fill:#ffffff; stroke:none;"
     d="M655 975L656 976L655 975z"
     id="path32" />
  <path
     style="fill:#000000; stroke:none;"
     d="M23 990L24 991L23 990M478.333 990.667L478.667 991.333L478.333 990.667M23 993L24 994L23 993M338 1145C345.269 1138.62 344.481 1128.52 347.453 1120C354.906 1098.63 356.819 1076.91 371.035 1058C373.36 1054.91 388.907 1038.93 383.562 1036.47C377.127 1033.5 365.37 1053.49 362.546 1058C352.319 1074.35 350.215 1091.28 345.007 1109.09C341.439 1121.29 335.658 1131.79 338 1145z"
     id="path34" />
  <path
     style="fill:#ffffff; stroke:none;"
     d="M749 1035L750 1036L749 1035z"
     id="path36" />
  <path
     style="fill:#000000; stroke:none;"
     d="M798.667 1063.33L799.333 1063.67L798.667 1063.33z"
     id="path38" />
  <path
     style="fill:#ffffff; stroke:none;"
     d="M545 1110L546 1111L545 1110z"
     id="path40" />
  <path
     style="fill:#000000; stroke:none;"
     d="M329 1204C321.223 1223.18 326.279 1246.2 328 1266L332 1265C328.589 1251.81 330.106 1238.4 331.089 1225C331.592 1218.13 333.902 1209.68 329 1204M927 1205L928 1206L927 1205M927 1274L928 1275L927 1274M638 1289L639 1290L638 1289z"
     id="path42" />
  <path
     style="fill:#ffffff; stroke:none;"
     d="M571 1290L572 1291L571 1290z"
     id="path44" />
</svg>
