/* XPM */
static char * start_color_xpm[] = {
"22 22 7 1",
" 	c None",
".	c #000000",
"+	c #ECEA28",
"@	c #E6E434",
"#	c #E7E630",
"$	c #E8E630",
"%	c #E9E82C",
"                      ",
"                      ",
"          .           ",
"          .           ",
"         .+.          ",
"         .@.          ",
"        .+#..         ",
"        .#+$.         ",
"  .......+++.......   ",
"   .+@%++++++++@+.    ",
"    .+%+++++++++.     ",
"     .+%+++++++.      ",
"      .+++++++.       ",
"      .++++++%.       ",
"      .@++@++%.       ",
"      .@#+.+%#.       ",
"      .+.. ...+.      ",
"     .+.     .+.      ",
"     ..       ..      ",
"                      ",
"                      ",
"                      "};
