/* XPM */
static char * bullet_xpm[] = {
"22 22 77 1",
"   c None",
".  c #626260",
"+  c #5E5F5C",
"@  c #636461",
"#  c #949492",
"$  c #62625F",
"%  c #6E6E6B",
"&  c #AEAEAC",
"*  c #757673",
"=  c #61625F",
"-  c #9C9C9B",
";  c #ACACAB",
">  c #9F9F9E",
",  c #61635F",
"'  c #656663",
")  c #A5A5A4",
"!  c #ADADAB",
"~  c #646562",
"{  c #61615F",
"]  c #6C6D6A",
"^  c #797977",
"/  c #868684",
"(  c #A0A19E",
"_  c #AAAAA8",
":  c #A3A3A2",
"<  c #AAAAA7",
"[  c #9F9F9F",
"}  c #888887",
"|  c #7E7E7C",
"1  c #6C6C69",
"2  c #626360",
"3  c #A5A5A3",
"4  c #ABABAA",
"5  c #A9A9A7",
"6  c #A2A2A1",
"7  c #A3A3A1",
"8  c #A7A7A6",
"9  c #A8A8A6",
"0  c #686866",
"a  c #A4A4A2",
"b  c #A4A4A3",
"c  c #A1A19F",
"d  c #9D9D9C",
"e  c #9D9D9B",
"f  c #A7A7A5",
"g  c #666664",
"h  c #A1A1A0",
"i  c #9E9E9D",
"j  c #646461",
"k  c #A6A6A4",
"l  c #A0A09F",
"m  c #9F9F9D",
"n  c #A9A9A8",
"o  c #A0A09E",
"p  c #9B9B9A",
"q  c #ACACAA",
"r  c #60615E",
"s  c #ADADAC",
"t  c #A2A2A0",
"u  c #A8A8A7",
"v  c #6E6F6C",
"w  c #787976",
"x  c #969695",
"y  c #8B8B8A",
"z  c #91918F",
"A  c #71716E",
"B  c #636360",
"C  c #686966",
"D  c #999997",
"E  c #71716F",
"F  c #61615E",
"G  c #6C6C6A",
"H  c #616260",
"I  c #5F605E",
"J  c #5D5E5B",
"K  c #565654",
"L  c #5F5F5D",
"                      ",
"                      ",
"          .           ",
"          +           ",
"         @#$          ",
"         %&*          ",
"        =-;>,         ",
"        ';)!'         ",
"  ~{{]^/(_:<[}|*1@,   ",
"   23&4_5367895&80    ",
"    2a4b:7c>def)g     ",
"     2c4:h>id56j      ",
"      {k8lmeln2       ",
"      j8bmoppqr       ",
"      {stusnd4v       ",
"      ws;x@yq;/       ",
"      zfAB {CmD{      ",
"     rE{     FGH      ",
"     IJ       KL      ",
"                      ",
"                      ",
"                      "};
