/* XPM */
static char * star_grey_xpm[] = {
"15 15 53 1",
" 	c None",
".	c #757575",
"+	c #747474",
"@	c #D9D9D9",
"#	c #5A5A5A",
"$	c #B4B4B4",
"%	c #D6D6D6",
"&	c #9B9B9B",
"*	c #555555",
"=	c #DDDDDD",
"-	c #D4D4D4",
";	c #CFCFCF",
">	c #4B4B4B",
",	c #767676",
"'	c #828282",
")	c #878787",
"!	c #8D8D8D",
"~	c #A9A9A9",
"{	c #CBCBCB",
"]	c #ABABAB",
"^	c #797979",
"/	c #707070",
"(	c #6B6B6B",
"_	c #595959",
":	c #898989",
"<	c #D1D1D1",
"[	c #CCCCCC",
"}	c #C6C6C6",
"|	c #C0C0C0",
"1	c #C2C2C2",
"2	c #BEBEBE",
"3	c #C7C7C7",
"4	c #7F7F7F",
"5	c #CACACA",
"6	c #C1C1C1",
"7	c #B8B8B8",
"8	c #BDBDBD",
"9	c #636363",
"0	c #C8C8C8",
"a	c #CECECE",
"b	c #C3C3C3",
"c	c #696969",
"d	c #565656",
"e	c #DADADA",
"f	c #424242",
"g	c #BBBBBB",
"h	c #717171",
"i	c #5B5B5B",
"j	c #9D9D9D",
"k	c #848484",
"l	c #343434",
"m	c #464646",
"n	c #3F3F3F",
"               ",
"       .       ",
"      +@#      ",
"      $%&      ",
"     *=-;>     ",
" ,')!~--{]^/(_ ",
" :@<[}|;1$23[4 ",
"  ^;5}667$8}(  ",
"   962|0a3bc   ",
"    };0}=%b    ",
"   de-50=@%f   ",
"   )=-gh;e%i   ",
"   jah   k{/   ",
"   _l     mn   ",
"               "};
