#define arrow210_width 33
#define arrow210_height 54
static unsigned char arrow210_bits[] = {
   0x00, 0x00, 0x00, 0x00, 0x00, 0x00, 0x00, 0x00, 0x00, 0x00, 0x00, 0x00,
   0x00, 0xf0, 0x00, 0x00, 0x00, 0x00, 0xf0, 0x00, 0x00, 0x00, 0x00, 0x78,
   0x00, 0x00, 0x00, 0x00, 0x78, 0x00, 0x00, 0x00, 0x00, 0x3c, 0x00, 0x00,
   0x00, 0x00, 0x3e, 0x00, 0x00, 0x00, 0x00, 0x1e, 0x00, 0x00, 0x00, 0x00,
   0x1f, 0x00, 0x00, 0x00, 0x00, 0x0f, 0x00, 0x00, 0x00, 0x80, 0x07, 0x00,
   0x00, 0x00, 0x80, 0x07, 0x00, 0x00, 0x00, 0xc0, 0x03, 0x00, 0x00, 0x00,
   0xe0, 0x03, 0x00, 0x00, 0x00, 0xe0, 0x01, 0x00, 0x00, 0x00, 0xf0, 0x00,
   0x00, 0x00, 0x00, 0xf0, 0x00, 0x00, 0x00, 0x00, 0x78, 0x00, 0x00, 0x00,
   0x00, 0x78, 0x00, 0x00, 0x00, 0x00, 0x3c, 0x00, 0x00, 0x00, 0x00, 0x3e,
   0x00, 0x00, 0x00, 0x00, 0x1e, 0x00, 0x00, 0x00, 0x00, 0x0f, 0x00, 0x00,
   0x10, 0x00, 0x0f, 0x00, 0x00, 0x38, 0x80, 0x07, 0x00, 0x00, 0x38, 0x80,
   0x07, 0x00, 0x00, 0x78, 0xc0, 0x03, 0x00, 0x00, 0x78, 0xe0, 0x03, 0x00,
   0x00, 0x78, 0xe0, 0x01, 0x00, 0x00, 0x70, 0xf0, 0x00, 0x00, 0x00, 0x70,
   0xf0, 0x00, 0x00, 0x00, 0x70, 0x78, 0x00, 0x00, 0x00, 0xf0, 0x7c, 0x00,
   0x00, 0x00, 0xf0, 0x3c, 0x00, 0x00, 0x00, 0xf0, 0x1e, 0xe0, 0x00, 0x00,
   0xf0, 0x1e, 0xf8, 0x01, 0x00, 0xf0, 0x0f, 0xff, 0x01, 0x00, 0xf0, 0xcf,
   0x7f, 0x00, 0x00, 0xf0, 0xff, 0x0f, 0x00, 0x00, 0xf0, 0xff, 0x03, 0x00,
   0x00, 0xf0, 0xff, 0x00, 0x00, 0x00, 0xf0, 0x3f, 0x00, 0x00, 0x00, 0xf0,
   0x0f, 0x00, 0x00, 0x00, 0xf8, 0x07, 0x00, 0x00, 0x00, 0xf8, 0x01, 0x00,
   0x00, 0x00, 0xf8, 0x00, 0x00, 0x00, 0x00, 0x7c, 0x00, 0x00, 0x00, 0x00,
   0x3c, 0x00, 0x00, 0x00, 0x00, 0x3e, 0x00, 0x00, 0x00, 0x00, 0x1e, 0x00,
   0x00, 0x00, 0x00, 0x0c, 0x00, 0x00, 0x00, 0x00, 0x00, 0x00, 0x00, 0x00,
   0x00, 0x00, 0x00, 0x00, 0x00, 0x00 };
