<?xml version="1.0" encoding="UTF-8" standalone="no"?>
<!-- Created with Inkscape (http://www.inkscape.org/) -->

<svg
   xmlns:dc="http://purl.org/dc/elements/1.1/"
   xmlns:cc="http://creativecommons.org/ns#"
   xmlns:rdf="http://www.w3.org/1999/02/22-rdf-syntax-ns#"
   xmlns:svg="http://www.w3.org/2000/svg"
   xmlns="http://www.w3.org/2000/svg"
   xmlns:xlink="http://www.w3.org/1999/xlink"
   xmlns:sodipodi="http://sodipodi.sourceforge.net/DTD/sodipodi-0.dtd"
   xmlns:inkscape="http://www.inkscape.org/namespaces/inkscape"
   width="744.09448819"
   height="1052.3622047"
   id="svg2"
   version="1.1"
   inkscape:version="0.47pre4 r22446"
   sodipodi:docname="right-hand.svg">
  <defs
     id="defs4">
    <inkscape:perspective
       sodipodi:type="inkscape:persp3d"
       inkscape:vp_x="0 : 526.18109 : 1"
       inkscape:vp_y="0 : 1000 : 0"
       inkscape:vp_z="744.09448 : 526.18109 : 1"
       inkscape:persp3d-origin="372.04724 : 350.78739 : 1"
       id="perspective10" />
    <inkscape:perspective
       id="perspective2905"
       inkscape:persp3d-origin="0.5 : 0.33333333 : 1"
       inkscape:vp_z="1 : 0.5 : 1"
       inkscape:vp_y="0 : 1000 : 0"
       inkscape:vp_x="0 : 0.5 : 1"
       sodipodi:type="inkscape:persp3d" />
  </defs>
  <sodipodi:namedview
     id="base"
     pagecolor="#ffffff"
     bordercolor="#666666"
     borderopacity="1.0"
     inkscape:pageopacity="0.0"
     inkscape:pageshadow="2"
     inkscape:zoom="0.7"
     inkscape:cx="270.19452"
     inkscape:cy="576.88966"
     inkscape:document-units="px"
     inkscape:current-layer="layer5"
     showgrid="false"
     inkscape:window-width="1680"
     inkscape:window-height="975"
     inkscape:window-x="0"
     inkscape:window-y="25"
     inkscape:window-maximized="1" />
  <metadata
     id="metadata7">
    <rdf:RDF>
      <cc:Work
         rdf:about="">
        <dc:format>image/svg+xml</dc:format>
        <dc:type
           rdf:resource="http://purl.org/dc/dcmitype/StillImage" />
        <dc:title></dc:title>
      </cc:Work>
    </rdf:RDF>
  </metadata>
  <g
     inkscape:groupmode="layer"
     id="layer2"
     inkscape:label="image"
     style="display:none">
    <image
       y="183.48717"
       x="125"
       id="image2907"
       height="712"
       width="500"
       xlink:href="file:///home/scott/scott/key-train/right-hand.jpg" />
  </g>
  <g
     inkscape:groupmode="layer"
     id="layer3"
     inkscape:label="Knuckles"
     style="display:inline">
    <path
       style="fill:none;stroke:#000000;stroke-width:1;stroke-linecap:butt;stroke-linejoin:miter;stroke-miterlimit:4;stroke-opacity:1;stroke-dasharray:none"
       d="m 211.6929,358.64225 c 13.86238,-6.48056 18.54636,-11.01441 37.77303,-9.44852"
       id="path3728"
       sodipodi:nodetypes="cc" />
    <path
       style="fill:none;stroke:#000000;stroke-width:1;stroke-linecap:butt;stroke-linejoin:miter;stroke-miterlimit:4;stroke-opacity:1;stroke-dasharray:none"
       d="m 216.79442,370.34566 c 8.30036,-6.35681 22.19079,-8.53663 31.54933,-9.86694"
       id="path3730"
       sodipodi:nodetypes="cc" />
    <path
       style="fill:none;stroke:#000000;stroke-width:1;stroke-linecap:butt;stroke-linejoin:miter;stroke-miterlimit:4;stroke-opacity:1;stroke-dasharray:none"
       d="m 218.81473,380.44719 29.71285,-8.56092"
       id="path3732"
       sodipodi:nodetypes="cc" />
    <path
       style="fill:none;stroke:#000000;stroke-width:1;stroke-linecap:butt;stroke-linejoin:miter;stroke-miterlimit:4;stroke-opacity:1;stroke-dasharray:none"
       d="m 307.8307,317.879 c 13.08344,-1.61808 29.65871,-0.89148 39.21212,-6.06091"
       id="path3734"
       sodipodi:nodetypes="cc" />
    <path
       style="fill:none;stroke:#000000;stroke-width:1;stroke-linecap:butt;stroke-linejoin:miter;stroke-miterlimit:4;stroke-opacity:1;stroke-dasharray:none"
       d="m 306.10626,294.58422 c 12.57768,-2.71949 20.4244,-5.08027 35.69146,-4.21393"
       id="path3736"
       sodipodi:nodetypes="cc" />
    <path
       style="fill:none;stroke:#000000;stroke-width:1;stroke-linecap:butt;stroke-linejoin:miter;stroke-miterlimit:4;stroke-opacity:1;stroke-dasharray:none"
       d="m 403.01963,333.85762 c 13.7956,-1.55855 31.13479,-0.48665 38.02866,-2.90791"
       id="path3738"
       sodipodi:nodetypes="cc" />
    <path
       style="fill:none;stroke:#000000;stroke-width:1;stroke-linecap:butt;stroke-linejoin:miter;stroke-miterlimit:4;stroke-opacity:1;stroke-dasharray:none"
       d="m 400.6527,318.95043 c 16.4779,-5.39282 23.95726,-3.50286 37.71176,-3.44888"
       id="path3740"
       sodipodi:nodetypes="cc" />
    <path
       style="fill:none;stroke:#000000;stroke-width:1;stroke-linecap:butt;stroke-linejoin:miter;stroke-miterlimit:4;stroke-opacity:1;stroke-dasharray:none"
       d="m 398.62188,304.68574 c 13.34794,-2.46251 22.68248,-5.29419 30.30458,-4.04061"
       id="path3742"
       sodipodi:nodetypes="cc" />
    <path
       style="fill:none;stroke:#000000;stroke-width:1;stroke-linecap:butt;stroke-linejoin:miter;stroke-miterlimit:4;stroke-opacity:1;stroke-dasharray:none"
       d="m 473.13858,292.67595 c 7.65184,-2.37139 14.56802,-2.53583 21.27448,-2.07107"
       id="path3744"
       sodipodi:nodetypes="cc" />
    <path
       style="fill:none;stroke:#000000;stroke-width:1;stroke-linecap:butt;stroke-linejoin:miter;stroke-miterlimit:4;stroke-opacity:1;stroke-dasharray:none"
       d="m 471.36338,284.2481 c 8.90711,-2.85714 20.09154,-1.42857 19.07034,-1.42857"
       id="path3746"
       sodipodi:nodetypes="cc" />
    <path
       style="fill:none;stroke:#000000;stroke-width:1;stroke-linecap:butt;stroke-linejoin:miter;stroke-miterlimit:4;stroke-opacity:1;stroke-dasharray:none"
       d="m 490.0153,365.46821 25.43764,-0.11204"
       id="path3748"
       sodipodi:nodetypes="cc" />
    <path
       style="fill:none;stroke:#000000;stroke-width:1;stroke-linecap:butt;stroke-linejoin:miter;stroke-miterlimit:4;stroke-opacity:1;stroke-dasharray:none"
       d="m 487.5153,354.18322 c 8.41794,-1.45547 16.83588,-2.31179 25.25382,0"
       id="path3750"
       sodipodi:nodetypes="cc" />
    <path
       style="fill:none;stroke:#000000;stroke-width:1;stroke-linecap:butt;stroke-linejoin:miter;stroke-miterlimit:4;stroke-opacity:1;stroke-dasharray:none"
       d="m 168.17404,517.8892 c -11.48548,4.62102 -11.21793,10.08611 -18.47862,16.39704"
       id="path3752"
       sodipodi:nodetypes="cc" />
    <path
       style="fill:none;stroke:#000000;stroke-width:1;stroke-linecap:butt;stroke-linejoin:miter;stroke-miterlimit:4;stroke-opacity:1;stroke-dasharray:none"
       d="m 167.75562,507.19595 c -8.61236,1.0819 -4.49524,4.79795 -20.66172,8.61168"
       id="path3754"
       sodipodi:nodetypes="cc" />
    <path
       style="fill:none;stroke:#000000;stroke-width:1;stroke-linecap:butt;stroke-linejoin:miter;stroke-miterlimit:4;stroke-opacity:1;stroke-dasharray:none"
       d="m 160.57251,490.84968 c -4.35825,3.57303 -5.48198,0.0842 -10.75453,0"
       id="path3756"
       sodipodi:nodetypes="cc" />
    <path
       style="fill:none;stroke:#000000;stroke-width:1;stroke-linecap:butt;stroke-linejoin:miter;stroke-miterlimit:4;stroke-opacity:1;stroke-dasharray:none"
       d="m 305.62657,306.47146 c 12.58809,-2.28525 24.66905,-5.07764 39.98769,-4.63235"
       id="path3760"
       sodipodi:nodetypes="cc" />
    <path
       sodipodi:nodetypes="cc"
       id="path3762"
       d="m 491.08673,374.8975 c 8.41794,1.45507 16.83588,2.31211 25.25382,0"
       style="fill:none;stroke:#000000;stroke-width:1;stroke-linecap:butt;stroke-linejoin:miter;stroke-miterlimit:4;stroke-opacity:1;stroke-dasharray:none" />
    <path
       sodipodi:nodetypes="cc"
       id="path3764"
       d="m 216.33575,280.07082 c 13.86238,-6.48056 11.40351,-3.15727 30.63018,-1.59138"
       style="fill:none;stroke:#000000;stroke-width:1;stroke-linecap:butt;stroke-linejoin:miter;stroke-miterlimit:4;stroke-opacity:1;stroke-dasharray:none" />
    <path
       sodipodi:nodetypes="cc"
       id="path3766"
       d="m 217.02902,285.09004 c 12.75063,-3.91428 20.49638,-2.82367 28.64141,-2.13234"
       style="fill:none;stroke:#000000;stroke-width:1;stroke-linecap:butt;stroke-linejoin:miter;stroke-miterlimit:4;stroke-opacity:1;stroke-dasharray:none" />
    <path
       sodipodi:nodetypes="cc"
       id="path3768"
       d="m 376.47902,235.75717 c 13.34794,-2.46251 22.68249,-5.29419 30.30459,-4.04061"
       style="fill:none;stroke:#000000;stroke-width:1;stroke-linecap:butt;stroke-linejoin:miter;stroke-miterlimit:4;stroke-opacity:1;stroke-dasharray:none" />
  </g>
  <g
     inkscape:groupmode="layer"
     id="layer4"
     inkscape:label="Fingernails"
     style="display:inline">
    <path
       style="fill:none;stroke:#000000;stroke-width:1;stroke-linecap:butt;stroke-linejoin:miter;stroke-miterlimit:4;stroke-opacity:1;stroke-dasharray:none"
       d="m 210.17857,261.27289 c 10.34924,-5.82544 17.43444,-16.16163 45.53572,-3.92857"
       id="path3721"
       sodipodi:nodetypes="cc" />
    <g
       id="g3778"
       transform="matrix(0.5,0,0,0.5,187.5,270.44894)"
       style="stroke-width:2;stroke-miterlimit:4;stroke-dasharray:none">
      <path
         sodipodi:nodetypes="ccc"
         id="path3717"
         d="m -53.285547,348.79093 c 22.237697,-34.09947 13.825923,-72.88031 4.798225,-110.6117 l -29.294424,-9.09137"
         style="fill:none;stroke:#000000;stroke-width:2;stroke-linecap:butt;stroke-linejoin:miter;stroke-miterlimit:4;stroke-opacity:1;stroke-dasharray:none" />
      <path
         sodipodi:nodetypes="cc"
         id="path3774"
         d="m -47.5,245.21932 c -12.89372,-6.0287 -20.555633,-6.80023 -28.928572,-9.28571"
         style="fill:none;stroke:#000000;stroke-width:2;stroke-linecap:butt;stroke-linejoin:miter;stroke-miterlimit:4;stroke-opacity:1;stroke-dasharray:none" />
      <path
         sodipodi:nodetypes="cc"
         id="path3776"
         d="m -42.719645,324.77397 c -6.4428,-2.91264 -9.72434,-2.81563 -14.101436,-2.49954"
         style="fill:none;stroke:#000000;stroke-width:2;stroke-linecap:butt;stroke-linejoin:miter;stroke-miterlimit:4;stroke-opacity:1;stroke-dasharray:none" />
    </g>
    <path
       style="fill:none;stroke:#000000;stroke-width:1;stroke-linecap:butt;stroke-linejoin:miter;stroke-miterlimit:4;stroke-opacity:1;stroke-dasharray:none"
       d="m 450.46091,256.52493 c 9.50346,-2.80435 22.45924,-6.68033 34.55966,-1.69381"
       id="path3719"
       sodipodi:nodetypes="cc" />
    <path
       style="fill:none;stroke:#000000;stroke-width:1;stroke-linecap:butt;stroke-linejoin:miter;stroke-miterlimit:4;stroke-opacity:1;stroke-dasharray:none"
       d="m 441.55336,234.98522 7.57615,21.2132 c 21.48938,5.1828 27.83879,2.59481 36.36549,0 l -6.56599,-23.73859 c -11.11428,-14.48557 -27.84252,-10.89997 -37.37564,2.52539 z"
       id="path3713"
       sodipodi:nodetypes="ccccc" />
    <path
       style="fill:none;stroke:#000000;stroke-width:1;stroke-linecap:butt;stroke-linejoin:miter;stroke-miterlimit:4;stroke-opacity:1;stroke-dasharray:none"
       d="m 279.64285,245.20146 c 21.26772,-27.72248 43.91492,-23.18477 65,-13.57143"
       id="path3772"
       sodipodi:nodetypes="cc" />
    <path
       style="fill:none;stroke:#000000;stroke-width:1;stroke-linecap:butt;stroke-linejoin:miter;stroke-miterlimit:4;stroke-opacity:1;stroke-dasharray:none"
       d="m 208.53463,248.23449 1.6938,15.54007 c 15.10848,-6.62171 36.34584,-8.77968 46.31909,-3.26504 l -2.37745,-15.8412 c -16.88643,-11.49957 -30.97925,-13.10506 -45.63544,3.56617 z"
       id="path3711"
       sodipodi:nodetypes="ccccc" />
    <path
       style="fill:none;stroke:#000000;stroke-width:1;stroke-linecap:butt;stroke-linejoin:miter;stroke-miterlimit:4;stroke-opacity:1;stroke-dasharray:none;display:inline"
       d="m 354.17517,227.40907 c 0.97592,2.66233 1.63184,6.60463 3.03046,7.57615 9.2481,-10.64026 23.7385,-12.837 40.4061,-12.62691 l -5.05077,-4.54568 c -11.85086,-3.37896 -22.15781,-9.97977 -38.38579,9.59644 z"
       id="path3715"
       sodipodi:nodetypes="ccccc" />
  </g>
  <g
     inkscape:groupmode="layer"
     id="layer5"
     inkscape:label="Details"
     style="display:inline">
    <path
       style="fill:none;stroke:#000000;stroke-width:1;stroke-linecap:butt;stroke-linejoin:miter;stroke-miterlimit:4;stroke-opacity:1;stroke-dasharray:none"
       d="m 290.65811,481.39065 4.92821,-13.53989 6.06092,9.57107"
       id="path3723"
       sodipodi:nodetypes="ccc" />
    <path
       style="fill:none;stroke:#000000;stroke-width:1;stroke-linecap:butt;stroke-linejoin:miter;stroke-miterlimit:4;stroke-opacity:1;stroke-dasharray:none"
       d="m 390.54066,439.03603 11.11168,9.09138"
       id="path3725" />
    <path
       id="path3770"
       d="m 475.18351,456.53603 7.54026,17.30566"
       style="fill:none;stroke:#000000;stroke-width:1;stroke-linecap:butt;stroke-linejoin:miter;stroke-miterlimit:4;stroke-opacity:1;stroke-dasharray:none"
       sodipodi:nodetypes="cc" />
    <path
       style="fill:none;stroke:#000000;stroke-width:1;stroke-linecap:butt;stroke-linejoin:miter;stroke-miterlimit:4;stroke-opacity:1;stroke-dasharray:none"
       d="m 169.64286,667.34432 c 14.04762,17.63267 28.09524,38.80355 42.14285,62.14286 26.7342,26.29235 47.34906,50.54491 68.57143,75.00001"
       id="path3797"
       sodipodi:nodetypes="ccc" />
  </g>
  <g
     inkscape:label="HandOutline"
     inkscape:groupmode="layer"
     id="layer1"
     style="display:inline">
    <path
       style="fill:none;stroke:#000000;stroke-width:3;stroke-linecap:butt;stroke-linejoin:miter;stroke-miterlimit:4;stroke-opacity:1;stroke-dasharray:none"
       d="m 333.21429,890.91574 c -24.40038,-32.28355 -50.11906,-63.3651 -78.98729,-91.9642 -18.26955,-20.91915 -38.63918,-41.06385 -52.0968,-65.17923 -14.48836,-25.96242 -34.11,-52.30474 -46.05877,-80.22701 -4.1326,-9.65718 -0.868,-21.25635 -0.39654,-34.07271 0.6573,-17.86827 -1.81547,-39.19396 -5.31948,-55.07728 -1.94926,-8.83574 -1.64496,-18.15931 -2.23439,-27.53594 -0.0487,-0.77474 0.80033,-1.7284 0.76141,-2.50362 -0.0394,-0.78541 -1.32383,-1.57094 -1.35315,-2.35633 -0.17898,-4.79459 -1.41875,-9.40558 -1.21035,-14.13209 0.0396,-0.89761 0.80059,-1.97151 0.85452,-2.86417 0.0315,-0.52173 -0.64878,-1.75683 -0.61232,-2.27666 0.52764,-7.52324 1.65513,-13.44281 3.05024,-19.67494 0.20064,-0.8963 1.29968,-1.7806 1.5104,-2.65328 0.22347,-0.92545 -0.51169,-1.85921 -0.20828,-2.73763 5.33041,-15.43271 8.88597,-30.74924 9.13743,-43.26908 0.002,-0.11091 0.39096,-2.46335 0.10227,-4.00679 -2.13349,-11.40679 -11.9389,-55.18332 -11.9389,-55.18332 0,0 5.12693,-14.61608 21.8941,-14.41185 13.19102,0.16067 18.60594,5.85129 17.13977,24.06585 1.9617,39.59549 8.43357,75.00692 12.41836,112.25302 1.55964,14.578 -0.47601,29.25848 -0.0979,44.75946 -0.89357,36.00326 -2.99824,84.5024 -2.60432,98.86923 2.08333,14.58334 1.04429,17.76874 4.37762,28.24493 -2.26755,-10.7228 -2.55714,-16.71939 -3.11979,-26.76466 -1.96328,-35.05163 2.04791,-66.86548 2.27004,-100.02271 0.0983,-14.66817 1.31848,-29.40615 0.47414,-44.70436 -4.4153,-30.53875 -10.20465,-72.0663 -12.66913,-112.96217 -1.35994,-22.56697 -1.44574,-45.02248 1.72821,-65.60557 3.12478,-20.26425 1.75118,-34.28375 13.18891,-75.32306 14.94491,-28.32884 42.55531,-21.9183 55.02636,-8.34537 5.47863,13.20569 9.53988,30.70692 8.66825,42.86064 0.0245,21.16495 4.35938,39.0509 8.50602,60.5919 4.46839,23.21243 9.84683,40.64589 11.50894,62.87407 1.56655,17.57844 8.79397,55.94042 8.79397,55.94042 2.07226,5.94199 -12.51632,-85.08512 -10.47556,-105.56754 0.92513,-9.28526 -15.42811,-49.29631 -6.3137,-80.56696 -8.49102,-38.10276 -1.50316,-56.13268 28.4532,-62.7507 19.58284,-4.32628 45.70199,9.40512 46.40662,28.1189 7.65148,22.55709 13.79734,44.07224 19.88088,66.9614 3.17766,12.31338 16.70893,125.18292 16.70893,125.18292 -3.11118,-56.2724 -14.28555,-109.49914 -27.91534,-164.18653 -4.90202,-20.674 -22.91263,-43.43951 -3.54551,-52.90452 8.0015,-8.32658 22.69075,-8.61355 32.61169,-4.65426 8.35519,3.33442 27.85335,13.20372 33.29588,22.86593 11.60226,15.34778 21.39194,38.62332 23.62391,46.76945 4.76346,17.3855 17.21031,69.94162 21.07272,105.87769 2.29963,21.39585 -0.13887,41.74551 5.93276,63.73895 0,0 -5.897,-43.8046 -6.42066,-63.84213 -3.21418,-41.09016 -10.88922,-66.60493 -21.37521,-106.10711 -3.70322,-13.95057 -10.94811,-26.5055 -15.45125,-39.75464 4.44896,-8.08282 3.67844,-19.86622 13.96955,-23.21467 8.01537,-3.20984 18.37955,-3.79226 26.56208,-1.21725 11.20578,17.87142 10.9907,12.62838 19.35897,31.08927 12.16822,31.06368 30.11063,72.62282 35.78769,105.03357 8.17769,39.44753 12.56752,89.03154 25.55918,131.42169 7.88296,27.27015 -1.33895,52.61621 0.37524,80.3182 4.78056,39.40628 14.38535,84.41567 9.30772,114.27457 -1.68436,38.09744 0.92201,76.01195 11.60189,112.04928 9.80492,33.0849 22.68383,65.77205 38.57143,97.14285"
       id="path2913"
       sodipodi:nodetypes="ccssssssssssssssccscscccsscsscccsccscscccccscssccsccccccccss" />
  </g>
</svg>
