<?xml version="1.0" encoding="UTF-8" standalone="no"?>
<!-- Created with Inkscape (http://www.inkscape.org/) -->

<svg
   xmlns:dc="http://purl.org/dc/elements/1.1/"
   xmlns:cc="http://creativecommons.org/ns#"
   xmlns:rdf="http://www.w3.org/1999/02/22-rdf-syntax-ns#"
   xmlns:svg="http://www.w3.org/2000/svg"
   xmlns="http://www.w3.org/2000/svg"
   xmlns:sodipodi="http://sodipodi.sourceforge.net/DTD/sodipodi-0.dtd"
   xmlns:inkscape="http://www.inkscape.org/namespaces/inkscape"
   width="744.09448"
   height="340"
   id="svg2"
   version="1.1"
   inkscape:version="0.47 r22583"
   sodipodi:docname="logo.svg">
  <defs
     id="defs4">
    <inkscape:perspective
       sodipodi:type="inkscape:persp3d"
       inkscape:vp_x="0 : 526.18109 : 1"
       inkscape:vp_y="0 : 1000 : 0"
       inkscape:vp_z="744.09448 : 526.18109 : 1"
       inkscape:persp3d-origin="372.04724 : 350.78739 : 1"
       id="perspective10" />
    <pattern
       id="pattern2953"
       height="355"
       width="645"
       y="0"
       x="0"
       patternUnits="userSpaceOnUse">
      <g
         id="g2955" />
      <g
         id="g2957">
        <g
           id="g2959"
           clip-path="url(#clipPath2949)">
          <g
             id="g2961">
            <path
               id="path2963"
               style="fill:#aeb7bb;fill-opacity:1;fill-rule:nonzero;stroke:none"
               d="M 53.555,323.48 599.91,298.633 c 14.77,-0.672 26.117,-13.102 25.445,-27.867 L 615.699,58.398 C 615.027,43.629 602.598,32.281 587.828,32.953 L 41.477,57.797 C 26.707,58.469 15.359,70.898 16.031,85.668 l 9.657,212.367 c 0.671,14.766 13.101,26.117 27.867,25.445 z" />
          </g>
        </g>
      </g>
    </pattern>
    <clipPath
       id="clipPath2949"
       clipPathUnits="userSpaceOnUse">
      <path
         id="path2951"
         d="M 0,0 645,0 645,355 0,355 0,0 z" />
    </clipPath>
    <clipPath
       id="clipPath2945"
       clipPathUnits="userSpaceOnUse">
      <path
         id="path2947"
         d="m 0,0 644.79999,0 0,354.39999 L 0,354.39999 0,0 z" />
    </clipPath>
    <mask
       id="mask2933"
       height="1"
       width="1"
       y="0"
       x="0"
       maskUnits="userSpaceOnUse">
      <g
         id="g2935">
        <g
           id="g2937"
           clip-path="url(#clipPath2929)">
          <path
             id="path2939"
             style="fill:#ffffff;fill-opacity:0.45794402;fill-rule:nonzero;stroke:none"
             d="m 0,0 644.79999,0 0,354.39999 L 0,354.39999 0,0 z" />
        </g>
      </g>
    </mask>
    <clipPath
       id="clipPath2929"
       clipPathUnits="userSpaceOnUse">
      <path
         id="path2931"
         d="m 0,0 644.79999,0 0,354.39999 L 0,354.39999 0,0 z" />
    </clipPath>
    <pattern
       id="pattern2903"
       height="355"
       width="645"
       y="0"
       x="0"
       patternUnits="userSpaceOnUse">
      <g
         id="g2905" />
      <g
         id="g2907">
        <g
           id="g2909"
           clip-path="url(#clipPath2899)">
          <g
             id="g2911">
            <g
               id="g2913"
               transform="matrix(1,0.031696,0.031696,-1,0,355)">
              <path
                 id="path2915"
                 style="fill:#88a189;fill-opacity:1;fill-rule:nonzero;stroke:#838383;stroke-opacity:1;stroke-width:1.015043;stroke-linecap:round;stroke-linejoin:round;stroke-miterlimit:4;stroke-dasharray:none"
                 d="M 31.942,23.04 600.91,23.039 c 14.778,-0.001 26.674,11.896 26.675,26.669 l -0.001,274.36 c 0,14.777 -11.896,26.673 -26.674,26.67 l -568.968,10e-4 c -14.778,0 -26.67,-11.896 -26.671,-26.67 L 5.272,49.71 c 0,-14.777 11.892,-26.674 26.67,-26.67 z" />
            </g>
          </g>
        </g>
      </g>
    </pattern>
    <clipPath
       id="clipPath2899"
       clipPathUnits="userSpaceOnUse">
      <path
         id="path2901"
         d="M 0,0 645,0 645,355 0,355 0,0 z" />
    </clipPath>
    <clipPath
       id="clipPath2895"
       clipPathUnits="userSpaceOnUse">
      <path
         id="path2897"
         d="m 0,0 644.79999,0 0,354.39999 L 0,354.39999 0,0 z" />
    </clipPath>
    <mask
       id="mask2883"
       height="1"
       width="1"
       y="0"
       x="0"
       maskUnits="userSpaceOnUse">
      <g
         id="g2885">
        <g
           id="g2887"
           clip-path="url(#clipPath2879)">
          <path
             id="path2889"
             style="fill:#ffffff;fill-opacity:0.45794402;fill-rule:nonzero;stroke:none"
             d="m 0,0 644.79999,0 0,354.39999 L 0,354.39999 0,0 z" />
        </g>
      </g>
    </mask>
    <clipPath
       id="clipPath2879"
       clipPathUnits="userSpaceOnUse">
      <path
         id="path2881"
         d="m 0,0 644.79999,0 0,354.39999 L 0,354.39999 0,0 z" />
    </clipPath>
    <inkscape:perspective
       id="perspective2861"
       inkscape:persp3d-origin="0.5 : 0.33333333 : 1"
       inkscape:vp_z="1 : 0.5 : 1"
       inkscape:vp_y="0 : 1000 : 0"
       inkscape:vp_x="0 : 0.5 : 1"
       sodipodi:type="inkscape:persp3d" />
  </defs>
  <sodipodi:namedview
     id="base"
     pagecolor="#ffffff"
     bordercolor="#666666"
     borderopacity="1.0"
     inkscape:pageopacity="0.0"
     inkscape:pageshadow="2"
     inkscape:zoom="1.6046349"
     inkscape:cx="372.04724"
     inkscape:cy="170"
     inkscape:document-units="px"
     inkscape:current-layer="g2865"
     showgrid="false"
     inkscape:window-width="1278"
     inkscape:window-height="1022"
     inkscape:window-x="1"
     inkscape:window-y="1"
     inkscape:window-maximized="0" />
  <metadata
     id="metadata7">
    <rdf:RDF>
      <cc:Work
         rdf:about="">
        <dc:format>image/svg+xml</dc:format>
        <dc:type
           rdf:resource="http://purl.org/dc/dcmitype/StillImage" />
        <dc:title />
      </cc:Work>
    </rdf:RDF>
  </metadata>
  <g
     inkscape:label="Layer 1"
     inkscape:groupmode="layer"
     id="layer1">
    <g
       transform="matrix(1.25,0,0,-1.25,31.285725,916.71936)"
       inkscape:label="forside"
       id="g2863">
      <g
         id="g2865">
        <rect
           style="fill:#ff3400;fill-opacity:1;stroke:none"
           id="rect4456"
           width="587.29871"
           height="266.72736"
           x="-20.935801"
           y="-731.09418"
           transform="scale(1,-1)"
           ry="10.469671" />
        <g
           transform="matrix(1,-0.117595,-0.117595,-1,-43.606102,773.12083)"
           id="g2867">
          <path
             id="path2869"
             style="fill:#9e2b2b;fill-opacity:1;fill-rule:nonzero;stroke:#e08787;stroke-width:7.12143993;stroke-linecap:butt;stroke-linejoin:miter;stroke-miterlimit:4;stroke-opacity:1;stroke-dasharray:none"
             d="m 56.632,85.93 c 344.025,-79.58 555.708,87.14 555.708,87.14 0,0 -161.967,54.422 -308.935,26.126 C 165.182,172.587 56.87,88.285 56.632,85.93 z" />
        </g>
        <path
           id="path2871"
           style="fill:#ff3e1d;fill-opacity:1;fill-rule:nonzero;stroke:none"
           d="m 328.1599,582.62084 c -9.157,-33.953 -44.106,-54.059 -78.063,-44.902 -33.953,9.16 -54.058,44.109 -44.902,78.062 9.16,33.957 44.109,54.059 78.062,44.902 33.957,-9.156 54.059,-44.105 44.903,-78.062 z" />
        <path
           id="path2873"
           style="fill:#ffe51d;fill-opacity:1;fill-rule:nonzero;stroke:none"
           d="m 299.6169,590.31984 c -4.907,-18.191 -23.629,-28.961 -41.821,-24.054 -18.191,4.906 -28.961,23.628 -24.054,41.82 4.906,18.187 23.629,28.957 41.82,24.055 18.187,-4.907 28.957,-23.629 24.055,-41.821 z" />
        <text
           id="text2973"
           transform="matrix(-0.99896762,0.04542796,-0.04542796,-0.99896762,0,0)"
           x="-529.19556"
           y="-716.52588"
           style="font-size:12px">
          <tspan
             id="tspan2975"
             sodipodi:role="line"
             y="-716.52588"
             x="-529.19556 -523.91516 -518.63477 -513.35431 -508.0737 -502.79327 -497.51297 -492.23264 -486.95224 -481.67184 -476.39145 -471.11105 -465.83066 -460.55029 -455.2699 -449.9895 -444.70911 -439.42871 -434.14832 -428.86792 -423.58752 -418.30713 -413.02673 -407.74634 -402.46594 -397.18555 -391.90518 -386.62479 -381.34439 -376.064 -370.7836 -365.5032 -360.22281 -354.94241 -349.66202 -344.38162 -339.10123 -333.82083 -328.54044 -323.26004 -317.97968 -312.69928 -307.41888 -302.13849 -296.85809 -291.5777 -286.2973 -281.01691 -275.73651 -270.45612 -265.17572 -259.89536 -254.61507 -249.3347 -244.05432 -238.77385 -233.49345 -228.21306 -222.93266 -217.65227 -212.37187 -207.09148 -201.81108 -196.53069 -191.25029 -185.96985 -180.68941 -175.40901 -170.12862 -164.84822 -159.56783 -154.28743 -149.00703 -143.72664 -138.44624 -133.16585 -127.88542 -122.60506 -117.32465 -112.04427 -106.76392 -101.48353 -96.203125 -90.922691 -85.642296 -80.361908 -75.081512 -69.801117 -64.520737 -59.24036 -53.959999 -48.679596 -43.399193 -38.118797 -32.838394 -27.557989 -22.277592 -16.997204 -11.716817 -6.4364123 -1.1560197 4.1243796 9.4047718 14.685173 19.965506 25.245901 30.526295"
             style="font-size:10.5607872px;font-variant:normal;font-weight:normal;writing-mode:lr-tb;fill:#ffffff;fill-opacity:1;fill-rule:nonzero;stroke:none;font-family:Inconsolata;-inkscape-font-specification:Inconsolata">e/WJ9WfNWYK8Fm/hjtBuwDnEMmsXqMi4SBFdsYAnxYuuTVrBNC7ETPDerdCuqygSOF4QhtNPxHfIP0oToci3zYIpdMI6zh/KUQgmmZGkKEf</tspan>
          <tspan
             id="tspan2977"
             sodipodi:role="line"
             y="-703.32489"
             x="-529.19556 -523.91516 -518.63477 -513.35431 -508.0737 -502.79327 -497.51291 -492.23264 -486.95224 -481.67184 -476.39145 -471.11105 -465.83066 -460.55026 -455.26987 -449.98947 -444.70908 -439.42868 -434.14832 -428.86792 -423.58752 -418.3071 -413.02673 -407.74634 -402.46594 -397.18555 -391.90515 -386.62476 -381.34436 -376.06396 -370.78357 -365.5032 -360.22281 -354.94241 -349.66202 -344.38162 -339.10123 -333.82083 -328.54044 -323.26004 -317.97964 -312.69925 -307.41885 -302.13846 -296.85806 -291.5777 -286.2973 -281.01691 -275.73651 -270.45612 -265.17572 -259.89532 -254.61504 -249.33467 -244.05429 -238.77382 -233.49345 -228.21306 -222.93266 -217.65227 -212.37187 -207.09148 -201.81108 -196.53069 -191.25029 -185.96982 -180.68938 -175.40898 -170.12859 -164.84819 -159.56783 -154.28743 -149.00703 -143.72664 -138.44624 -133.16585 -127.88542 -122.60506 -117.32465 -112.04427 -106.76389 -101.4835 -96.203102 -90.922691 -85.642296 -80.361908 -75.081512 -69.801117 -64.520737 -59.24036 -53.959969 -48.679565 -43.399162 -38.118767 -32.838364 -27.557989 -22.277592 -16.997204 -11.716817 -6.4364123 -1.1560197 4.1243796 9.4047718 14.685173 19.965567 25.245962 30.526295"
             style="font-size:10.5607872px;font-variant:normal;font-weight:normal;writing-mode:lr-tb;fill:#ffffff;fill-opacity:1;fill-rule:nonzero;stroke:none;font-family:Inconsolata;-inkscape-font-specification:Inconsolata">LxoFwDHoFH7+MLrc1ihMBJquoVQEkSoLTtAdCytwyQQuhWU7zCwcpzsdhlSZOb4wS4Of6PIjuQ8YZrj2wh0mDEGw1xQ0Y0CqKyZSOrp9Y50</tspan>
          <tspan
             id="tspan2979"
             sodipodi:role="line"
             y="-690.12396"
             x="-529.19556 -523.91516 -518.63477 -513.35431 -508.0737 -502.79327 -497.51291 -492.2326 -486.95221 -481.67181 -476.39145 -471.11105 -465.83066 -460.55026 -455.26987 -449.98947 -444.70908 -439.42868 -434.14828 -428.86789 -423.58749 -418.3071 -413.0267 -407.74631 -402.46594 -397.18555 -391.90515 -386.62476 -381.34436 -376.06396 -370.78357 -365.50317 -360.22278 -354.94238 -349.66199 -344.38159 -339.10123 -333.82083 -328.54044 -323.26004 -317.97964 -312.69925 -307.41885 -302.13846 -296.85806 -291.57767 -286.29727 -281.01688 -275.73648 -270.45612 -265.17572 -259.89532 -254.61504 -249.33467 -244.05429 -238.77382 -233.49342 -228.21303 -222.93263 -217.65224 -212.37184 -207.09148 -201.81108 -196.53069 -191.25029 -185.96982 -180.68938 -175.40898 -170.12859 -164.84819 -159.56779 -154.2874 -149.007 -143.72661 -138.44621 -133.16585 -127.88542 -122.60506 -117.32465 -112.04427 -106.76389 -101.4835 -96.203102 -90.922661 -85.642265 -80.361908 -75.081512 -69.801117 -64.520737 -59.24036 -53.959969 -48.679565 -43.399162 -38.118767 -32.838364 -27.557959 -22.277561 -16.997204 -11.716817 -6.4364123 -1.1560197 4.1243796 9.4047718 14.685173 19.965567 25.245962 30.526356"
             style="font-size:10.5607872px;font-variant:normal;font-weight:normal;writing-mode:lr-tb;fill:#ffffff;fill-opacity:1;fill-rule:nonzero;stroke:none;font-family:Inconsolata;-inkscape-font-specification:Inconsolata">rMjo5LYpS8sWK5DRyGWIm4eBmvb83M9dXk/WKeQQdxtxTkqCqF74mYLcl9e/T5b+lckvHqZrX6snNzy+H7qFl/zYBqeAfrmW/0Iu9y5u21i</tspan>
          <tspan
             id="tspan2981"
             sodipodi:role="line"
             y="-676.92291"
             x="-529.19556 -523.91516 -518.63477 -513.35431 -508.0737 -502.79327 -497.51291 -492.2326 -486.95221 -481.67181 -476.39142 -471.11102 -465.83063 -460.55023 -455.26987 -449.98947 -444.70908 -439.42868 -434.14828 -428.86789 -423.58749 -418.3071 -413.0267 -407.74631 -402.46591 -397.18552 -391.90515 -386.62476 -381.34436 -376.06396 -370.78357 -365.50317 -360.22278 -354.94238 -349.66199 -344.38159 -339.1012 -333.8208 -328.54041 -323.26001 -317.97961 -312.69925 -307.41885 -302.13846 -296.85806 -291.57767 -286.29727 -281.01688 -275.73648 -270.45609 -265.17569 -259.89532 -254.61504 -249.33467 -244.05429 -238.77382 -233.49342 -228.21303 -222.93263 -217.65224 -212.37184 -207.09145 -201.81105 -196.53065 -191.25026 -185.96979 -180.68938 -175.40898 -170.12859 -164.84819 -159.56779 -154.2874 -149.007 -143.72661 -138.44621 -133.16582 -127.8854 -122.60503 -117.32462 -112.04424 -106.76389 -101.4835 -96.203102 -90.922661 -85.642265 -80.361877 -75.081482 -69.801086 -64.520706 -59.24033 -53.959969 -48.679565 -43.399162 -38.118767 -32.838364 -27.557959 -22.277561 -16.997204 -11.716817 -6.4364123 -1.1560197 4.1243796 9.4047718 14.685173 19.965567 25.245962 30.526356"
             style="font-size:10.5607872px;font-variant:normal;font-weight:normal;writing-mode:lr-tb;fill:#ffffff;fill-opacity:1;fill-rule:nonzero;stroke:none;font-family:Inconsolata;-inkscape-font-specification:Inconsolata">+WQfQlC3ieuTuv0+7IMxnD8ySeq/9sEemk5A871sKR69c/ErXR6+oFwaAxkpjREQI422EKM94p3rOWx0akxcTNSgTqSPa8XrTqFZNHfUZL7</tspan>
          <tspan
             id="tspan2983"
             sodipodi:role="line"
             y="-663.72192"
             x="-529.19556 -523.91516 -518.63477 -513.35431 -508.0737 -502.79327 -497.51291 -492.2326 -486.95221 -481.67181 -476.39142 -471.11102 -465.83063 -460.55023 -455.26984 -449.98944 -444.70905 -439.42865 -434.14825 -428.86789 -423.58749 -418.30707 -413.0267 -407.74631 -402.46591 -397.18552 -391.90512 -386.62473 -381.34433 -376.06393 -370.78354 -365.50317 -360.22278 -354.94238 -349.66199 -344.38159 -339.1012 -333.8208 -328.54041 -323.26001 -317.97961 -312.69922 -307.41882 -302.13843 -296.85803 -291.57764 -286.29727 -281.01688 -275.73648 -270.45609 -265.17569 -259.89529 -254.61501 -249.33464 -244.05426 -238.77379 -233.49342 -228.21303 -222.93263 -217.65224 -212.37184 -207.09145 -201.81105 -196.53065 -191.25026 -185.96979 -180.68935 -175.40895 -170.12856 -164.84816 -159.56776 -154.2874 -149.007 -143.72661 -138.44621 -133.16582 -127.8854 -122.60503 -117.32462 -112.04424 -106.76386 -101.48345 -96.203072 -90.922661 -85.642265 -80.361877 -75.081482 -69.801086 -64.520706 -59.24033 -53.959938 -48.679535 -43.399132 -38.118736 -32.838333 -27.557959 -22.277561 -16.997143 -11.716757 -6.4363513 -1.1559587 4.1244407 9.4047718 14.685173 19.965567 25.245962 30.526356"
             style="font-size:10.5607872px;font-variant:normal;font-weight:normal;writing-mode:lr-tb;fill:#ffffff;fill-opacity:1;fill-rule:nonzero;stroke:none;font-family:Inconsolata;-inkscape-font-specification:Inconsolata">mqO+kQ84cBNcZ5UkwLKYftQGhnmabKlbn/Seu5lNUPrGhFqudI3h77jYIoxpKQQCKJJgRwasJKfY+vTTGaBhMyqKsXCTCvEpYoS0YGCHbn4</tspan>
          <tspan
             id="tspan2985"
             sodipodi:role="line"
             y="-650.521"
             x="-529.1955 -523.9151 -518.6347 -513.35431 -508.0737 -502.79327 -497.51291 -492.23257 -486.95218 -481.67178 -476.39142 -471.11102 -465.83063 -460.55023 -455.26984 -449.98944 -444.70905 -439.42865 -434.14825 -428.86786 -423.58746 -418.30707 -413.02667 -407.74631 -402.46591 -397.18552 -391.90512 -386.62473 -381.34433 -376.06393 -370.78354 -365.50314 -360.22275 -354.94235 -349.66196 -344.38156 -339.1012 -333.8208 -328.54041 -323.26001 -317.97961 -312.69922 -307.41882 -302.13843 -296.85803 -291.57764 -286.29724 -281.01685 -275.73645 -270.45609 -265.17569 -259.89529 -254.61501 -249.33464 -244.05426 -238.77379 -233.49339 -228.213 -222.9326 -217.65221 -212.37181 -207.09145 -201.81105 -196.53065 -191.25026 -185.96979 -180.68935 -175.40895 -170.12856 -164.84816 -159.56776 -154.28737 -149.00697 -143.72658 -138.44618 -133.16579 -127.8854 -122.60503 -117.32462 -112.04424 -106.76386 -101.48345 -96.203072 -90.92263 -85.642235 -80.361847 -75.081482 -69.801086 -64.520706 -59.24033 -53.959938 -48.679535 -43.399132 -38.118736 -32.838333 -27.557928 -22.277531 -16.997143 -11.716757 -6.4363513 -1.1559587 4.1244407 9.4048328 14.685234 19.965567 25.245962 30.526356"
             style="font-size:10.5607872px;font-variant:normal;font-weight:normal;writing-mode:lr-tb;fill:#ffffff;fill-opacity:1;fill-rule:nonzero;stroke:none;font-family:Inconsolata;-inkscape-font-specification:Inconsolata">YHlz3ac7ROsYqsbLkHfIYdyY9LPhIm7hWqyAhyOjuH98yUbFNq0pb6oLbDAP8ZSaimniVG6kx4Fxv1LxQoKaWl18evBBB5WjQIgXIyPEMoC</tspan>
          <tspan
             id="tspan2987"
             sodipodi:role="line"
             y="-637.31995"
             x="-529.1955 -523.9151 -518.6347 -513.35425 -508.07364 -502.79321 -497.51285 -492.23257 -486.95218 -481.67178 -476.39139 -471.11099 -465.8306 -460.5502 -455.26984 -449.98944 -444.70905 -439.42865 -434.14825 -428.86786 -423.58746 -418.30707 -413.02667 -407.74628 -402.46588 -397.18549 -391.90509 -386.62473 -381.34433 -376.06393 -370.78354 -365.50314 -360.22275 -354.94235 -349.66196 -344.38156 -339.10117 -333.82077 -328.54037 -323.25998 -317.97958 -312.69922 -307.41882 -302.13843 -296.85803 -291.57764 -286.29724 -281.01685 -275.73645 -270.45605 -265.17566 -259.89526 -254.61501 -249.33464 -244.05426 -238.77379 -233.49339 -228.213 -222.9326 -217.65221 -212.37181 -207.09142 -201.81102 -196.53062 -191.25023 -185.96976 -180.68935 -175.40895 -170.12856 -164.84816 -159.56776 -154.28737 -149.00697 -143.72658 -138.44618 -133.16579 -127.88537 -122.60499 -117.32459 -112.04421 -106.76383 -101.48345 -96.203072 -90.92263 -85.642235 -80.361847 -75.081451 -69.801056 -64.520676 -59.240299 -53.959908 -48.679535 -43.399132 -38.118736 -32.838333 -27.557928 -22.277531 -16.997143 -11.716757 -6.4363513 -1.1559587 4.1244407 9.4048328 14.685234 19.965567 25.245962 30.526356"
             style="font-size:10.5607872px;font-variant:normal;font-weight:normal;writing-mode:lr-tb;fill:#ffffff;fill-opacity:1;fill-rule:nonzero;stroke:none;font-family:Inconsolata;-inkscape-font-specification:Inconsolata">997++bMlsSV2mStrZXZXlZvXm+9BeXJsQ/bSVr9jYMIOSM5mLcfAyHfd7ct7GSiX7Oc8MGZbkX+hnLv7jnkdc5aOeIrBWlYfumMw6IrK15w</tspan>
          <tspan
             id="tspan2989"
             sodipodi:role="line"
             y="-624.11902"
             x="-529.1955 -523.9151 -518.6347 -513.35425 -508.07364 -502.79321 -497.51285 -492.23257 -486.95218 -481.67178 -476.39139 -471.11099 -465.8306 -460.5502 -455.26981 -449.98941 -444.70901 -439.42862 -434.14822 -428.86783 -423.58746 -418.30704 -413.02667 -407.74628 -402.46588 -397.18549 -391.90509 -386.62469 -381.3443 -376.0639 -370.78351 -365.50311 -360.22275 -354.94235 -349.66196 -344.38156 -339.10117 -333.82077 -328.54037 -323.25998 -317.97958 -312.69919 -307.41879 -302.1384 -296.858 -291.57761 -286.29724 -281.01685 -275.73645 -270.45605 -265.17566 -259.89526 -254.61497 -249.33461 -244.05423 -238.77376 -233.49336 -228.213 -222.9326 -217.65221 -212.37181 -207.09142 -201.81102 -196.53062 -191.25023 -185.96976 -180.68932 -175.40892 -170.12852 -164.84813 -159.56773 -154.28737 -149.00697 -143.72658 -138.44618 -133.16579 -127.88537 -122.60499 -117.32459 -112.04421 -106.76383 -101.48341 -96.203026 -90.92263 -85.642235 -80.361847 -75.081451 -69.801056 -64.520676 -59.240299 -53.959908 -48.679504 -43.399101 -38.118706 -32.838303 -27.557898 -22.277531 -16.997143 -11.716757 -6.4363513 -1.1559587 4.1244407 9.4048328 14.685234 19.965628 25.246023 30.526417"
             style="font-size:10.5607872px;font-variant:normal;font-weight:normal;writing-mode:lr-tb;fill:#ffffff;fill-opacity:1;fill-rule:nonzero;stroke:none;font-family:Inconsolata;-inkscape-font-specification:Inconsolata">otQUD0Zuib0eP6cnGWw9i4yvPSC9YLBwZVozQpg2tUsWmtpc3KrTzDBc+4AmbA1fMGDuINeVkPmFbfn4QXc5uyeozmp0mR8KOJ6qhV5ow==</tspan>
        </text>
        <text
           id="text2991"
           transform="matrix(-0.99896762,0.045428,-0.045428,-0.99896762,0,0)"
           x="-529.07562"
           y="-604.41357"
           style="font-size:12px">
          <tspan
             id="tspan2993"
             sodipodi:role="line"
             y="-604.41357"
             x="-529.07562 -522.79883 -516.52197 -510.24487 -503.96799 -497.69113 -491.4144 -485.13754 -478.86072 -472.58386 -466.30701 -460.03018 -453.75333 -447.47647 -441.19965 -434.92279 -428.64594 -422.36911 -416.09225 -409.8154 -403.53854 -397.26172 -390.98489 -384.70804 -378.43118 -372.15436 -365.8775 -359.60065 -353.32382 -347.04697 -340.77011 -334.49329 -328.21643 -321.93958 -315.66275 -309.38589 -303.10907 -296.83221 -290.55536 -284.27853 -278.00168 -271.72485 -265.448 -259.17114 -252.89447 -246.6176 -240.34071 -234.06384 -227.78699 -221.51013 -215.23331 -208.95645 -202.6796 -196.40277 -190.12592 -183.84909 -177.57224 -171.29538 -165.01855 -158.7417 -152.46484 -146.18802 -139.91116 -133.63431 -127.35744 -121.0805 -114.80366 -108.52685 -102.25001 -95.973167 -89.696312 -83.419464 -77.142639 -70.865784 -64.588936 -58.312138 -52.035278 -45.758408 -39.481579 -33.20472 -26.927862 -20.651039 -14.374212 -8.0973568 -1.820497 4.4563546 10.733217 17.010069 23.286854 29.563709"
             style="font-size:12.553689px;font-variant:normal;font-weight:normal;writing-mode:lr-tb;fill:#ffffff;fill-opacity:1;fill-rule:nonzero;stroke:none;font-family:Inconsolata;-inkscape-font-specification:Inconsolata">AAAAgIPJov3uoC/PqdXATy5eHffFBWJ5AuZPqH+kcXgbGVorpfKFMtKB8zqZZein8oYDCPwCcbQH8NmdoUsZtPJhr8</tspan>
          <tspan
             id="tspan2995"
             sodipodi:role="line"
             y="-588.72144"
             x="-529.07562 -522.79883 -516.52197 -510.24487 -503.96799 -497.69113 -491.4144 -485.13754 -478.86072 -472.58386 -466.30701 -460.03018 -453.75333 -447.47647 -441.19965 -434.92279 -428.64594 -422.36911 -416.09225 -409.8154 -403.53854 -397.26172 -390.98489 -384.70804 -378.43118 -372.15436 -365.8775 -359.60065 -353.32382 -347.04697 -340.77011 -334.49329 -328.21643 -321.93958 -315.66275 -309.38589 -303.10907 -296.83221 -290.55536 -284.27853 -278.00168 -271.72485 -265.448 -259.17114 -252.89447 -246.6176 -240.34071 -234.06384 -227.78699 -221.51013 -215.23331 -208.95645 -202.6796 -196.40277 -190.12592 -183.84909 -177.57224 -171.29538 -165.01855 -158.7417 -152.46484 -146.18802 -139.91116 -133.63431 -127.35744 -121.0805 -114.80366 -108.52685 -102.25001 -95.973167 -89.696312 -83.419464 -77.142639 -70.865784 -64.588936 -58.312138 -52.035278 -45.758408 -39.481579 -33.20472 -26.927862 -20.651039 -14.374212 -8.0973568 -1.820497 4.4563546 10.733217 17.010069 23.286854 29.563709"
             style="font-size:12.553689px;font-variant:normal;font-weight:normal;writing-mode:lr-tb;fill:#ffffff;fill-opacity:1;fill-rule:nonzero;stroke:none;font-family:Inconsolata;-inkscape-font-specification:Inconsolata">DsoPBduYsGljMGZR1Vp1a6XhWd1b+b/O5LWJBYhnBPv4GJMwLkd3djE81rPbF+frmr2z4yvoLYmbKrajzMFLW/AAAA</tspan>
          <tspan
             id="tspan2997"
             sodipodi:role="line"
             y="-573.0293"
             x="-529.07562 -522.79883 -516.52197 -510.24487 -503.96799 -497.69113 -491.4144 -485.13754 -478.86072 -472.58386 -466.30701 -460.03018 -453.75333 -447.47647 -441.19965 -434.92279 -428.64594 -422.36911 -416.09225 -409.8154 -403.53854 -397.26172 -390.98489 -384.70804 -378.43118 -372.15436 -365.8775 -359.60065 -353.32382 -347.04697 -340.77011 -334.49329 -328.21643 -321.93958 -315.66275 -309.38589 -303.10907 -296.83221 -290.55536 -284.27853 -278.00168 -271.72485 -265.448 -259.17114 -252.89447 -246.6176 -240.34071 -234.06384 -227.78699 -221.51013 -215.23331 -208.95645 -202.6796 -196.40277 -190.12592 -183.84909 -177.57224 -171.29538 -165.01855 -158.7417 -152.46484 -146.18802 -139.91116 -133.63431 -127.35744 -121.0805 -114.80366 -108.52685 -102.25001 -95.973167 -89.696312 -83.419464 -77.142639 -70.865784 -64.588936 -58.312138 -52.035278 -45.758408 -39.481579 -33.20472 -26.927862 -20.651039 -14.374212 -8.0973568 -1.820497 4.4563546 10.733217 17.010069 23.286854 29.563709"
             style="font-size:12.553689px;font-variant:normal;font-weight:normal;writing-mode:lr-tb;fill:#ffffff;fill-opacity:1;fill-rule:nonzero;stroke:none;font-family:Inconsolata;-inkscape-font-specification:Inconsolata">AwEAAQAAAIBicnU01laJgMqxJ7i+vYYLef18w0M8QxNvTquI+k1lA6gy0/fUM0k8ZC0xsIxGOewzPawsvaXZGpzL2k</tspan>
          <tspan
             id="tspan2999"
             sodipodi:role="line"
             y="-557.33722"
             x="-529.07562 -522.79883 -516.52197 -510.24487 -503.96799 -497.69113 -491.4144 -485.13754 -478.86072 -472.58386 -466.30701 -460.03018 -453.75333 -447.47647 -441.19965 -434.92279 -428.64594 -422.36911 -416.09225 -409.8154 -403.53854 -397.26172 -390.98489 -384.70804 -378.43118 -372.15436 -365.8775 -359.60065 -353.32382 -347.04697 -340.77011 -334.49329 -328.21643 -321.93958 -315.66275 -309.38589 -303.10907 -296.83221 -290.55536 -284.27853 -278.00168 -271.72485 -265.448 -259.17114 -252.89447 -246.6176 -240.34071 -234.06384 -227.78699 -221.51013 -215.23331 -208.95645 -202.6796 -196.40277 -190.12592 -183.84909 -177.57224 -171.29538 -165.01855 -158.7417 -152.46484 -146.18802 -139.91116 -133.63431 -127.35744 -121.0805 -114.80366 -108.52685 -102.25001 -95.973167 -89.696312 -83.419464 -77.142639 -70.865784 -64.588936 -58.312138 -52.035278 -45.758408 -39.481579 -33.20472 -26.927862 -20.651039 -14.374212 -8.0973568 -1.820497 4.4563546 10.733217 17.010069 23.286854 29.563709"
             style="font-size:12.553689px;font-variant:normal;font-weight:normal;writing-mode:lr-tb;fill:#ffffff;fill-opacity:1;fill-rule:nonzero;stroke:none;font-family:Inconsolata;-inkscape-font-specification:Inconsolata">dGrVy5XfzrJ36Zx19f6fx2pxGeCkrX+ERWFmS8Gg7qqPldHPT5T8otBlOwh/zVVf/Ok8AaONkhpWAol1ZM8VOW314M</tspan>
          <tspan
             id="tspan3001"
             sodipodi:role="line"
             y="-541.64508"
             x="-529.07562 -522.79883 -516.52197 -510.24487 -503.96799 -497.69113 -491.4144 -485.13754 -478.86072 -472.58386 -466.30701 -460.03018 -453.75333 -447.47647 -441.19965 -434.92279 -428.64594 -422.36911 -416.09225 -409.8154 -403.53854 -397.26172 -390.98489 -384.70804 -378.43118 -372.15436 -365.8775 -359.60065 -353.32382 -347.04697 -340.77011 -334.49329 -328.21643 -321.93958 -315.66275 -309.38589 -303.10907 -296.83221 -290.55536 -284.27853 -278.00168 -271.72485 -265.448 -259.17114 -252.89447 -246.6176 -240.34071 -234.06384 -227.78699 -221.51013 -215.23331 -208.95645 -202.6796 -196.40277 -190.12592 -183.84909 -177.57224 -171.29538 -165.01855 -158.7417 -152.46484 -146.18802 -139.91116 -133.63431 -127.35744 -121.0805 -114.80366 -108.52685 -102.25001 -95.973167 -89.696312 -83.419464 -77.142639 -70.865784 -64.588936 -58.312138 -52.035278 -45.758408 -39.481579 -33.20472 -26.927862 -20.651039 -14.374212 -8.0973568 -1.820497 4.4563546 10.733217 17.010069 23.286854 29.563709"
             style="font-size:12.553689px;font-variant:normal;font-weight:normal;writing-mode:lr-tb;fill:#ffffff;fill-opacity:1;fill-rule:nonzero;stroke:none;font-family:Inconsolata;-inkscape-font-specification:Inconsolata">UQAAAEDbkCuOFwkiEAHRxlquYTCBoQSo4EKlpHfIASdQUF6iaTjiYco5ednub2kFsqHKXqoIAfp7QtdJkUpDxjKg+T</tspan>
          <tspan
             id="tspan3003"
             sodipodi:role="line"
             y="-525.953"
             x="-529.07562 -522.79883 -516.52197 -510.24487 -503.96799 -497.69113 -491.4144 -485.13754 -478.86072 -472.58386 -466.30701 -460.03018 -453.75333 -447.47647 -441.19965 -434.92279 -428.64594 -422.36911 -416.09225 -409.8154 -403.53854 -397.26172 -390.98489 -384.70804 -378.43118 -372.15436 -365.8775 -359.60065 -353.32382 -347.04697 -340.77011 -334.49329 -328.21643 -321.93958 -315.66275 -309.38589 -303.10907 -296.83221 -290.55536 -284.27853 -278.00168 -271.72485 -265.448 -259.17114 -252.89447 -246.6176 -240.34071 -234.06384 -227.78699 -221.51013 -215.23331 -208.95645 -202.6796 -196.40277 -190.12592 -183.84909 -177.57224 -171.29538 -165.01855 -158.7417 -152.46484 -146.18802 -139.91116 -133.63431 -127.35744 -121.0805 -114.80366 -108.52685 -102.25001 -95.973167 -89.696312 -83.419464 -77.142639 -70.865784 -64.588936 -58.312138 -52.035278 -45.758408 -39.481579 -33.20472 -26.927862 -20.651039 -14.374212 -8.0973568 -1.820497 4.4563546 10.733217 17.010069 23.286854 29.563709"
             style="font-size:12.553689px;font-variant:normal;font-weight:normal;writing-mode:lr-tb;fill:#ffffff;fill-opacity:1;fill-rule:nonzero;stroke:none;font-family:Inconsolata;-inkscape-font-specification:Inconsolata">dXAAAAQJmocquo9sCUJam/4hvYLmPST4RZYJs9gSO+Sztst7rj7tKRAQck7Du/dMkT9flABs7x5Whbkaq+BygJZi3y</tspan>
          <tspan
             id="tspan3005"
             sodipodi:role="line"
             y="-510.26083"
             x="-529.07562 -522.79883 -516.52197 -510.24487 -503.96799 -497.69113 -491.4144 -485.13754 -478.86072 -472.58386 -466.30701 -460.03018 -453.75333 -447.47647 -441.19965 -434.92279 -428.64594 -422.36911 -416.09225 -409.8154 -403.53854 -397.26172 -390.98489 -384.70804 -378.43118 -372.15436 -365.8775 -359.60065 -353.32382 -347.04697 -340.77011 -334.49329 -328.21643 -321.93958 -315.66275 -309.38589 -303.10907 -296.83221 -290.55536 -284.27853 -278.00168 -271.72485 -265.448 -259.17114 -252.89447 -246.6176 -240.34071 -234.06384 -227.78699 -221.51013 -215.23331 -208.95645 -202.6796 -196.40277 -190.12592 -183.84909 -177.57224 -171.29538 -165.01855 -158.7417 -152.46484 -146.18802 -139.91116 -133.63431 -127.35744 -121.0805 -114.80366 -108.52685 -102.25001 -95.973167 -89.696312 -83.419464 -77.142639 -70.865784 -64.588936 -58.312138 -52.035278 -45.758408 -39.481579 -33.20472 -26.927862 -20.651039 -14.374212 -8.0973568 -1.820497 4.4563546 10.733217 17.010069 23.286854 29.563709"
             style="font-size:12.553689px;font-variant:normal;font-weight:normal;writing-mode:lr-tb;fill:#ffffff;fill-opacity:1;fill-rule:nonzero;stroke:none;font-family:Inconsolata;-inkscape-font-specification:Inconsolata">e9kAAACAg8mi/e6gL8+p1cBPLl4d98UFYnkC5k+of6RxeBsZWiul8oUy0oHzOpll6KfyhgMI/AJxtAfw2Z2hSxm08m</tspan>
          <tspan
             id="tspan3007"
             sodipodi:role="line"
             y="-494.56845"
             x="-529.07562 -522.79883 -516.52197 -510.24487 -503.96799 -497.69113 -491.4144 -485.13754 -478.86072 -472.58386 -466.30701 -460.03018 -453.75333 -447.47647 -441.19965 -434.92279 -428.64594 -422.36911 -416.09225 -409.8154 -403.53854 -397.26172 -390.98489 -384.70804 -378.43118 -372.15436 -365.8775 -359.60065 -353.32382 -347.04697 -340.77011 -334.49329 -328.21643 -321.93958 -315.66275 -309.38589 -303.10907 -296.83221 -290.55536 -284.27853 -278.00168 -271.72485 -265.448 -259.17114 -252.89447 -246.6176 -240.34071 -234.06384 -227.78699 -221.51013 -215.23331 -208.95645 -202.6796 -196.40277 -190.12592 -183.84909 -177.57224 -171.29538 -165.01855 -158.7417 -152.46484 -146.18802 -139.91116 -133.63431 -127.35744 -121.0805 -114.80366 -108.52685 -102.25001 -95.973167 -89.696312 -83.419464 -77.142639 -70.865784 -64.588936 -58.312138 -52.035278 -45.758408 -39.481579 -33.20472 -26.927862 -20.651039 -14.374212 -8.0973568 -1.820497 4.4563546 10.733217 17.010069 23.286854 29.563709"
             style="font-size:12.553689px;font-variant:normal;font-weight:normal;writing-mode:lr-tb;fill:#ffffff;fill-opacity:1;fill-rule:nonzero;stroke:none;font-family:Inconsolata;-inkscape-font-specification:Inconsolata">Gvv3doUiP5iyPyC4re4Itt99TqwXCcHFsa9V+ZHczJWfJyWdRAN6PYsTjk75x3GbrgCNTnXk8gGeRKYT+ao/0pApA=</tspan>
        </text>
      </g>
    </g>
  </g>
</svg>
