<?xml version="1.0" encoding="UTF-8" standalone="no"?>
<!-- Created with Inkscape (http://www.inkscape.org/) -->

<svg
   xmlns:dc="http://purl.org/dc/elements/1.1/"
   xmlns:cc="http://creativecommons.org/ns#"
   xmlns:rdf="http://www.w3.org/1999/02/22-rdf-syntax-ns#"
   xmlns:svg="http://www.w3.org/2000/svg"
   xmlns="http://www.w3.org/2000/svg"
   xmlns:xlink="http://www.w3.org/1999/xlink"
   xmlns:sodipodi="http://sodipodi.sourceforge.net/DTD/sodipodi-0.dtd"
   xmlns:inkscape="http://www.inkscape.org/namespaces/inkscape"
   width="256"
   height="256"
   id="svg2"
   version="1.1"
   inkscape:version="0.47pre4 r22446"
   sodipodi:docname="kvigall-logo.svg">
  <defs
     id="defs4">
    <linearGradient
       id="linearGradient4597">
      <stop
         style="stop-color:#ffd100;stop-opacity:1;"
         offset="0"
         id="stop4599" />
      <stop
         style="stop-color:#ffa400;stop-opacity:1;"
         offset="1"
         id="stop4601" />
    </linearGradient>
    <marker
       style="overflow:visible"
       id="DistanceStart"
       refX="0.0"
       refY="0.0"
       orient="auto"
       inkscape:stockid="DistanceStart">
      <g
         id="g2300">
        <path
           style="fill:none;stroke:#ffffff;stroke-width:1.15;stroke-linecap:square"
           d="M 0,0 L 2,0"
           id="path2306" />
        <path
           style="fill:#000000;fill-rule:evenodd;stroke:none"
           d="M 0,0 L 13,4 L 9,0 13,-4 L 0,0 z "
           id="path2302" />
        <path
           style="fill:none;stroke:#000000;stroke-width:1;stroke-linecap:square"
           d="M 0,-4 L 0,40"
           id="path2304" />
      </g>
    </marker>
    <marker
       inkscape:stockid="Tail"
       orient="auto"
       refY="0.0"
       refX="0.0"
       id="Tail"
       style="overflow:visible">
      <g
         id="g3767"
         transform="scale(-1.2)">
        <path
           id="path3769"
           d="M -3.8048674,-3.9585227 L 0.54352094,0"
           style="fill:none;fill-rule:evenodd;stroke:#000000;stroke-width:0.8;marker-start:none;marker-end:none;stroke-linecap:round" />
        <path
           id="path3771"
           d="M -1.2866832,-3.9585227 L 3.0617053,0"
           style="fill:none;fill-rule:evenodd;stroke:#000000;stroke-width:0.8;marker-start:none;marker-end:none;stroke-linecap:round" />
        <path
           id="path3773"
           d="M 1.3053582,-3.9585227 L 5.6537466,0"
           style="fill:none;fill-rule:evenodd;stroke:#000000;stroke-width:0.8;marker-start:none;marker-end:none;stroke-linecap:round" />
        <path
           id="path3775"
           d="M -3.8048674,4.1775838 L 0.54352094,0.21974226"
           style="fill:none;fill-rule:evenodd;stroke:#000000;stroke-width:0.8;marker-start:none;marker-end:none;stroke-linecap:round" />
        <path
           id="path3777"
           d="M -1.2866832,4.1775838 L 3.0617053,0.21974226"
           style="fill:none;fill-rule:evenodd;stroke:#000000;stroke-width:0.8;marker-start:none;marker-end:none;stroke-linecap:round" />
        <path
           id="path3779"
           d="M 1.3053582,4.1775838 L 5.6537466,0.21974226"
           style="fill:none;fill-rule:evenodd;stroke:#000000;stroke-width:0.8;marker-start:none;marker-end:none;stroke-linecap:round" />
      </g>
    </marker>
    <linearGradient
       id="linearGradient3633">
      <stop
         style="stop-color:#080087;stop-opacity:1;"
         offset="0"
         id="stop3635" />
      <stop
         style="stop-color:#1a0fc4;stop-opacity:1;"
         offset="1"
         id="stop3637" />
    </linearGradient>
    <inkscape:perspective
       sodipodi:type="inkscape:persp3d"
       inkscape:vp_x="0 : 526.18109 : 1"
       inkscape:vp_y="0 : 1000 : 0"
       inkscape:vp_z="744.09448 : 526.18109 : 1"
       inkscape:persp3d-origin="372.04724 : 350.78739 : 1"
       id="perspective10" />
    <linearGradient
       inkscape:collect="always"
       xlink:href="#linearGradient3633"
       id="linearGradient3704"
       gradientUnits="userSpaceOnUse"
       x1="33.319302"
       y1="48.750175"
       x2="103.7096"
       y2="48.750175" />
    <linearGradient
       inkscape:collect="always"
       xlink:href="#linearGradient3633"
       id="linearGradient3706"
       gradientUnits="userSpaceOnUse"
       x1="35.949825"
       y1="60.082451"
       x2="110.82778"
       y2="60.082451" />
    <linearGradient
       inkscape:collect="always"
       xlink:href="#linearGradient3633"
       id="linearGradient3708"
       gradientUnits="userSpaceOnUse"
       x1="35.709991"
       y1="70.451698"
       x2="110.14496"
       y2="70.451698" />
    <linearGradient
       inkscape:collect="always"
       xlink:href="#linearGradient3633"
       id="linearGradient3710"
       gradientUnits="userSpaceOnUse"
       x1="48.772484"
       y1="86.103409"
       x2="56.442947"
       y2="86.103409" />
    <linearGradient
       inkscape:collect="always"
       xlink:href="#linearGradient3633"
       id="linearGradient3712"
       gradientUnits="userSpaceOnUse"
       x1="47.578716"
       y1="96.074585"
       x2="57.325455"
       y2="96.074585" />
    <linearGradient
       inkscape:collect="always"
       xlink:href="#linearGradient3633"
       id="linearGradient3714"
       gradientUnits="userSpaceOnUse"
       x1="65.7463"
       y1="84.504967"
       x2="104.1083"
       y2="84.504967" />
    <linearGradient
       inkscape:collect="always"
       xlink:href="#linearGradient3633"
       id="linearGradient3716"
       gradientUnits="userSpaceOnUse"
       x1="64.367798"
       y1="94.845467"
       x2="103.73545"
       y2="94.845467" />
    <linearGradient
       inkscape:collect="always"
       xlink:href="#linearGradient3633"
       id="linearGradient3718"
       gradientUnits="userSpaceOnUse"
       x1="34.680977"
       y1="109.02354"
       x2="111.10772"
       y2="109.02354" />
    <linearGradient
       inkscape:collect="always"
       xlink:href="#linearGradient4597"
       id="linearGradient4607"
       gradientUnits="userSpaceOnUse"
       x1="90.393776"
       y1="185.53922"
       x2="90.393776"
       y2="151.23593"
       gradientTransform="matrix(1.097505,0,0,1.097505,-27.047597,-4.2529515)" />
    <filter
       inkscape:collect="always"
       id="filter4643">
      <feGaussianBlur
         inkscape:collect="always"
         stdDeviation="0.87728322"
         id="feGaussianBlur4645" />
    </filter>
    <filter
       inkscape:collect="always"
       id="filter4647">
      <feGaussianBlur
         inkscape:collect="always"
         stdDeviation="0.79852097"
         id="feGaussianBlur4649" />
    </filter>
    <filter
       inkscape:collect="always"
       id="filter4659">
      <feGaussianBlur
         inkscape:collect="always"
         stdDeviation="0.5425437"
         id="feGaussianBlur4661" />
    </filter>
  </defs>
  <sodipodi:namedview
     id="base"
     pagecolor="#ffffff"
     bordercolor="#666666"
     borderopacity="1.0"
     inkscape:pageopacity="0.0"
     inkscape:pageshadow="2"
     inkscape:zoom="2.1572281"
     inkscape:cx="101.5772"
     inkscape:cy="128"
     inkscape:document-units="px"
     inkscape:current-layer="layer1"
     showgrid="false"
     inkscape:window-width="1278"
     inkscape:window-height="1022"
     inkscape:window-x="1"
     inkscape:window-y="1"
     inkscape:window-maximized="0" />
  <metadata
     id="metadata7">
    <rdf:RDF>
      <cc:Work
         rdf:about="">
        <dc:format>image/svg+xml</dc:format>
        <dc:type
           rdf:resource="http://purl.org/dc/dcmitype/StillImage" />
      </cc:Work>
    </rdf:RDF>
  </metadata>
  <g
     inkscape:label="Layer 1"
     inkscape:groupmode="layer"
     id="layer1">
    <g
       id="g3693"
       transform="matrix(1.5497754,0,0,1.5497754,-12.173559,-25.599308)"
       style="filter:url(#filter4659)">
      <path
         id="path2839"
         d="m 23.418996,45.976757 c 7.752532,0.09101 15.582661,0.207192 23.188094,-1.494735 18.487274,-1.880638 37.103003,-5.419181 53.87749,-13.728631 6.19732,-2.392936 12.14366,-5.366912 17.84577,-8.791804 3.48816,8.964652 3.32412,18.658946 3.93653,28.097145 0.80632,8.016049 2.00098,15.973528 1.91579,24.05175 0.0416,4.861386 -0.10817,9.740843 0.82448,14.517759 1.13249,5.634127 0.94578,11.386409 1.85375,17.017619 1.94119,7.01883 2.71024,14.26511 3.53542,21.44494 -0.9995,3.84723 -8.7835,0.76463 -12.38085,1.70236 -8.4367,-0.28641 -16.87082,-0.1514 -25.272216,-0.9777 -9.548886,-0.22034 -19.071718,-1.01336 -28.570233,-1.92257 -11.458988,-1.80998 -22.909617,-3.84532 -34.30388,-5.91959 -3.310275,-0.66316 -11.221752,0.38633 -8.972737,-4.74686 1.303227,-7.67773 3.499606,-15.22616 3.710069,-23.037702 0.649206,-7.862057 0.230507,-15.784222 0.212143,-23.672887 0.0095,-5.747745 -1.022296,-11.426413 -1.18025,-17.152494 0.122661,-1.772848 0.503096,-3.560147 0.187235,-5.335254"
         style="fill:#ffd100;fill-opacity:1;stroke:#000000;stroke-width:1px;stroke-linecap:butt;stroke-linejoin:miter;stroke-opacity:1" />
      <path
         d="m 33.319302,57.24336 c 0.430856,-0.489843 0.795579,-1.03259 1.157872,-1.573657 0.388672,-0.577903 0.809479,-1.133756 1.294229,-1.634389 0.64636,-0.538835 1.960603,-1.958992 2.449694,-1.046671 0.08975,0.320946 0.07746,0.668951 0.05644,0.999464 0.0016,0.07013 -0.123446,0.624311 0.01227,0.592065 0.366604,-0.565177 1.339555,-0.756861 -1.496511,0.772502 -0.06966,0.03757 0.127296,-0.09429 0.187492,-0.145676 0.156223,-0.133356 0.2658,-0.252858 0.410262,-0.40081 0.354445,-0.362553 0.64394,-0.789548 1.02536,-1.12534 1.178495,-0.646079 1.739505,-1.646487 2.211345,-0.575431 0.06886,0.194185 0.11318,0.434135 0.367711,0.33438 0.586193,-0.335956 1.459088,-0.762839 -1.273476,0.720036 -0.111357,0.06043 0.212321,-0.138334 0.317032,-0.209661 0.326964,-0.222723 0.650867,-0.449914 0.977648,-0.672905 1.374523,-0.922987 2.78473,-1.791812 4.200311,-2.650055 1.036345,-0.662546 2.116216,-1.251606 3.176638,-1.873919 0.447309,-0.262506 -1.7967,1.037113 -1.350524,0.772685 1.825341,-1.081799 1.282777,-0.833237 2.154175,-1.21843 0.343801,-0.131016 0.517888,0.09168 0.55416,0.411372 -0.07433,0.541898 -0.326354,1.047376 -0.553316,1.539824 -0.346865,0.719106 -0.762684,1.402427 -1.18517,2.078995 -0.217539,0.393692 -0.566996,0.778609 -0.614488,1.243401 0.0063,0.01992 0.0067,0.04284 0.01902,0.05977 0.06278,0.08657 0.620483,-0.0089 0.697633,-0.01872 1.215135,-0.09088 2.411519,-0.347298 3.59423,-0.630651 0.61072,-0.1699 1.228167,-0.318664 1.836139,-0.498552 0.328892,-0.09731 0.646787,-0.218813 0.97891,-0.304811 0.317841,-0.05612 0.481766,0.151353 0.583169,0.420824 0.08279,0.272159 0.01795,0.538895 -0.107288,0.785164 -0.117181,0.229477 -0.303323,0.407855 -0.47844,0.59214 -0.611663,0.540033 -0.179479,0.16874 -1.939308,1.1323 -0.03386,0.01854 -0.230651,0.03485 -0.258456,0.03427 -0.0176,-3.65e-4 -0.336701,-0.03632 -0.350325,-0.03784 -0.377218,-0.06237 -0.732055,-0.188857 -1.078613,-0.345302 -0.250404,-0.147464 -0.441176,-0.371404 -0.619437,-0.59663 -0.152357,-0.159642 -0.343542,-0.267232 -0.479681,-0.442989 -0.189832,-0.318731 -0.07955,-0.518285 0.157338,-0.761759 0.854554,-0.761222 1.870034,-1.384359 2.958308,-1.743788 0.428121,-0.14915 0.86191,-0.128098 1.303777,-0.08729 0.349636,0.01992 0.706547,0.100583 1.050431,0.01651 0.396235,-0.08312 0.74396,-0.29763 1.115378,-0.447005 0.429178,-0.180287 0.882229,-0.137674 1.333887,-0.110667 0.338414,0.0371 0.685107,0.0029 1.020846,0.06649 0.102536,0.01943 0.273629,0.07599 0.376293,0.108217 0.311389,0.125938 0.427319,0.385831 0.475986,0.697838 0.04013,0.411346 0.01758,0.824717 -0.02193,1.234996 -0.03506,0.408677 -0.07699,0.81449 -0.147015,1.218665 -0.01532,0.113274 -0.05011,0.236497 -0.02311,0.351817 4.55e-4,0.0019 0.116828,-0.193972 0.0018,-0.1386 -0.56636,0.272572 -1.096731,0.614343 -1.645096,0.921514 0.05728,-0.04837 0.117135,-0.09384 0.17184,-0.145095 0.103593,-0.09707 0.4321,-0.443994 0.508475,-0.521459 0.441569,-0.447875 0.897736,-0.881547 1.349275,-1.319268 1.025981,-1.026772 2.129544,-1.96477 3.256404,-2.877081 0.385509,-0.339761 0.814847,-0.629997 1.19072,-0.98087 0.0099,-0.01394 0.01406,-0.03517 0.02984,-0.04183 1.90163,-0.802969 2.235077,-1.252018 1.576187,-0.240087 -0.316577,0.506741 -0.493719,1.088192 -0.68948,1.649433 -0.07021,0.21368 -0.137327,0.433325 -0.153211,0.65929 -0.0024,0.03361 0.01434,0.132605 0.01918,0.09926 0.0053,-0.03677 -8.28e-4,-0.07432 -0.0012,-0.111474 -2.813032,1.551067 -2.042624,1.309542 -1.547011,0.800063 0.300979,-0.309401 0.592653,-0.610694 0.920317,-0.893675 0.502109,-0.401778 0.992962,-0.823892 1.528287,-1.18169 0.970548,-0.532681 1.851708,-1.728111 2.374809,-0.593443 0.105636,0.295066 0.186596,0.597145 0.298235,0.889869 0.113014,0.257735 0.289379,0.172747 0.494183,0.06458 0.60056,-0.335159 1.206119,-0.662152 1.818179,-0.976104 0.686205,-0.353692 1.422906,-0.592351 2.171879,-0.770549 0.424084,-0.104374 0.725294,-0.119602 1.034467,0.206516 0.241725,0.334406 0.550312,0.558345 0.927559,0.715558 0.616061,0.229444 1.140224,0.116075 1.739482,-0.09986 1.0627,-0.545627 -0.674276,0.423491 -1.030246,0.600291 -0.122102,0.06065 0.222124,-0.158836 0.325056,-0.248232 0.326033,-0.283161 0.554114,-0.609043 0.777628,-0.973612 0.322319,-0.598619 0.550023,-1.256067 0.536066,-1.941052 -0.03224,-0.22836 -0.130604,-0.579899 -0.418195,-0.607141 -0.04895,-0.0046 -0.09745,0.01318 -0.146173,0.01976 -0.618046,0.238702 -1.661255,0.82368 1.163884,-0.6966 0.08657,-0.04659 -0.16377,0.109222 -0.240728,0.170398 -0.101522,0.0807 -0.200516,0.164936 -0.294085,0.25474 -0.128898,0.123712 -0.248455,0.256802 -0.372682,0.385204 -0.894569,0.972409 -1.731593,2.013921 -2.360761,3.180875 -0.128251,0.237874 -0.237717,0.485406 -0.356576,0.728109 -0.259852,0.646325 -0.69987,1.614624 -0.449568,2.334535 0.02593,0.07458 0.0757,0.13858 0.113547,0.20787 0.372071,0.373153 0.909767,0.359018 1.3977,0.299311 0.102039,-0.02107 0.205455,-0.03632 0.306117,-0.06322 0.251395,-0.06716 0.421801,-0.138837 0.656104,-0.254271 0.116078,-0.05719 0.454397,-0.247736 0.342452,-0.18283 -1.681489,0.974934 -1.70299,1.002539 -0.942251,0.496988 1.023513,-0.725255 1.927845,-1.59632 2.74576,-2.543415 0.595812,-0.680588 0.975586,-1.513494 1.530259,-2.221709 0.630521,-0.610397 0.374498,-0.385823 2.05242,-1.165695 0.07021,-0.03263 0.152714,0.02565 0.229118,0.0382 0.105548,0.01733 0.21082,0.03652 0.316737,0.05144 0.421518,0.05938 0.55117,0.0657 0.997577,0.107579 1.624136,0.09111 3.220194,-0.240324 4.785521,-0.633984 0.671083,-0.16943 0.523869,-0.139883 1.133279,-0.268479 0.165165,-0.03485 0.57473,-0.185439 0.740094,-0.02606 0.04584,0.04418 0.05908,0.112807 0.08862,0.16921 0.0059,0.496053 -0.339868,0.947948 -0.595792,1.352773 -0.748592,1.158214 -0.127292,0.564168 -2.27337,1.408999 0.213864,-0.389646 0.506992,-0.726146 0.809635,-1.048411 0.873122,-0.849068 1.95416,-1.51747 3.095794,-1.937063 0.360802,-0.147138 0.754234,-0.122526 1.128078,-0.196089 0.624631,-0.303968 0.930851,-0.456652 -1.427251,0.813984 -0.06369,0.03432 0.118611,-0.08331 0.173411,-0.130548 0.218275,-0.188174 0.376745,-0.407988 0.533997,-0.646764 0.293492,-0.486976 0.483396,-1.021708 0.477225,-1.592601 -0.04926,-0.349639 -0.180387,-0.4736 -0.513853,-0.532309 -0.317914,-0.0156 -0.647523,0.042 -0.948073,0.14778 -0.02965,0.01736 -0.118306,0.06996 -0.08896,0.05208 0.574208,-0.349886 1.149588,-0.69785 1.723571,-1.048106 0.01097,-0.0067 0.01845,-0.02441 0.03119,-0.02268 0.134412,0.01829 0.25759,0.08556 0.388392,0.121503 0.09252,0.02543 0.186489,0.04526 0.279734,0.06789 0.530874,0.151075 1.094069,0.206465 1.59147,0.455948 0.338556,0.218425 0.379947,0.560498 0.396879,0.932041 -3.7e-4,0.594442 -0.0084,1.188793 -0.0047,1.78326 -0.0076,0.330603 -0.0084,0.655774 0.117739,0.964604 0.01612,0.02362 0.02886,0.04995 0.04837,0.07087 0.06098,0.06535 0.118836,0.06627 0.184262,0.0062 0.03507,-0.03218 0.138033,-0.127988 0.09598,-0.105698 -0.529194,0.28052 -1.042881,0.589365 -1.564321,0.884048 0.552745,-0.491021 1.100882,-0.989443 1.620928,-1.515279 0.993202,-0.965216 2.023822,-1.887479 2.980571,-2.889807 0.505702,-0.522474 0.97159,-1.080107 1.439762,-1.635648 0.24311,-0.299715 0.55813,-0.516735 0.87546,-0.729347 0.77844,-0.483161 1.5685,-0.937531 2.38093,-1.367788 0.0821,-0.04347 0.16348,0.02335 0.22568,0.05763 0.2148,0.310784 0.11324,0.677277 0.0363,1.017769 -0.0862,0.338703 -0.18252,0.67436 -0.29954,1.003717 -0.11411,0.324698 -0.25163,0.641106 -0.28114,0.986721 0.002,0.361834 0.0567,0.521868 -0.12535,0.859612 -0.81266,0.968616 -2.34266,1.66001 -3.331885,2.22759 -0.698049,0.382338 -0.0059,0.0077 -0.662136,0.350568 -0.0829,0.04331 -0.327963,0.180008 -0.247005,0.133158 0.522443,-0.299072 1.044885,-0.598143 1.567326,-0.897214 -0.0877,0.05513 -0.048,0.05431 -0.11044,0.04427 -0.009,-0.02762 -0.0305,-0.054 -0.0271,-0.08286 0.006,-0.05145 0.10198,-0.02337 0.15378,-0.02259 0.2205,0.0033 0.43807,0.03481 0.65739,0.05662 0.26001,0.0098 0.51585,0.05824 0.77183,0.100634 0,0 -1.64828,1.156127 -1.64828,1.156127 l 0,0 c -0.250274,-0.04266 -0.501051,-0.08468 -0.755539,-0.09234 -0.16521,-0.01209 -0.821376,0.0054 -0.934049,-0.110527 -0.03908,-0.04021 -0.0611,-0.09404 -0.09165,-0.141066 0.0059,-0.102832 -0.01507,-0.115919 0.09316,-0.180087 0.912207,-0.540837 1.823778,-1.0589 2.760888,-1.547918 -2.801032,1.635972 -0.56999,0.417707 -0.0529,-0.178895 0.0398,-0.0503 0.13866,-0.162956 0.16268,-0.233512 0.0569,-0.16702 -0.0258,-0.357002 -0.002,-0.527505 0.0145,-0.366307 0.14052,-0.70065 0.26423,-1.042906 0.1178,-0.32237 0.21741,-0.648975 0.31133,-0.979024 0.0451,-0.223215 0.1732,-0.516492 0.0936,-0.739958 -0.58395,0.181689 -1.991233,1.135575 1.48889,-0.891473 0.0527,-0.03069 -0.1065,0.05949 -0.15833,0.0916 -0.34828,0.215782 0.0155,0.01091 -0.363,0.216845 -0.31504,0.20102 -0.63515,0.400022 -0.88884,0.678597 -0.52991,0.551434 -1.00385,1.156765 -1.55412,1.690014 -0.949904,0.986612 -1.960491,1.907674 -2.93428,2.870025 -0.488537,0.531102 -1.033442,1.00224 -1.543149,1.512615 -0.63125,0.382171 -1.254404,0.778044 -1.893749,1.146511 -0.227734,0.131247 -0.429179,-0.07098 -0.529866,-0.252993 -0.134894,-0.340569 -0.143935,-0.690297 -0.117064,-1.054231 0.01187,-0.588064 0.02126,-1.176703 -0.0043,-1.764558 -0.01922,-0.291154 -0.01619,-0.578234 -0.293718,-0.744324 -0.485137,-0.231598 -1.027759,-0.297839 -1.543306,-0.43542 -0.229926,-0.05539 -0.549974,-0.09055 -0.752749,-0.226174 -0.794209,-0.531185 0.952931,-1.149576 1.673886,-1.321173 0.330448,-0.07336 0.681814,-0.139563 1.016491,-0.06114 0.366005,0.127502 0.576157,0.376057 0.621058,0.771022 0.0215,0.602901 -0.148991,1.17613 -0.441895,1.702658 -0.573377,1.012358 -1.544751,1.723162 -2.731845,1.989822 -0.366066,0.0377 -0.733891,0.07172 -1.077497,0.216452 -0.749315,0.324772 -0.321638,0.150659 1.236019,-0.763831 0.08021,-0.04709 -0.161164,0.09301 -0.23945,0.143222 -0.237177,0.15212 -0.238913,0.161852 -0.452021,0.351074 -0.07306,0.06487 -0.144944,0.131059 -0.217416,0.196589 -0.290824,0.301028 -0.57407,0.610081 -0.786153,0.973029 -0.644097,0.297978 -1.288193,0.595957 -1.93229,0.893935 0.07243,-0.02805 0.06734,-0.01881 0.134841,-0.09938 0.142522,-0.170114 0.228417,-0.379382 0.368202,-0.551635 0.239538,-0.373184 0.492906,-0.737092 0.642015,-1.158879 0.01973,-0.04411 0.02465,-0.03627 -0.07657,-0.03541 -0.148189,0.0013 -0.383244,0.04234 -0.513942,0.06553 -0.480436,0.08523 -0.548955,0.107967 -1.064953,0.224767 -1.597943,0.366668 -3.218562,0.691621 -4.867708,0.620568 -1.075725,-0.07021 -0.114999,-0.0051 -1.055484,-0.07473 -0.111366,-0.0082 -0.222555,-0.02179 -0.334219,-0.02304 -0.06697,-7.52e-4 -0.255658,0.05459 -0.200203,0.01704 0.242868,-0.164477 2.243504,-1.341305 1.4073,-0.849125 -0.648328,0.674692 -1.031498,1.558313 -1.642118,2.266298 -0.791866,0.952542 -1.677452,1.823424 -2.670432,2.56763 -0.974702,0.694501 -0.44259,0.332954 -2.408205,1.447334 -0.422729,0.239661 -0.890127,0.396757 -1.372043,0.455753 -0.570428,0.03141 -1.152741,-0.01301 -1.534241,-0.492833 -0.04289,-0.08803 -0.09899,-0.170772 -0.128683,-0.264083 -0.252666,-0.793898 0.224284,-1.797289 0.517879,-2.506629 0.316525,-0.647605 0.413351,-0.884494 0.79628,-1.506476 0.529967,-0.860815 1.166191,-1.655143 1.824868,-2.419432 0.809959,-0.942836 1.904377,-1.903001 3.177658,-2.044229 0.0647,0.01423 0.13222,0.01901 0.194085,0.04269 0.331584,0.126903 0.456544,0.493606 0.505256,0.81161 0.02068,0.720139 -0.208801,1.419922 -0.529342,2.059028 -0.06921,0.125598 -0.130574,0.255847 -0.207619,0.376795 -0.721956,1.133352 -2.02886,1.735833 -3.21907,2.25454 -0.647838,0.192865 -1.208442,0.268743 -1.849341,-0.0014 -0.388085,-0.181844 -0.72121,-0.421266 -0.993359,-0.756135 -0.26203,-0.216237 -0.567913,-0.144615 -0.880005,-0.068 -0.732564,0.182453 -1.449148,0.429536 -2.116248,0.787305 -0.630721,0.331751 -1.247525,0.692008 -1.891034,0.997861 -0.34962,0.07524 -0.52194,0.0074 -0.676721,-0.322325 -0.104656,-0.289314 -0.18268,-0.586093 -0.287687,-0.875493 -0.035,-0.0713 -0.08242,-0.200338 -0.170462,-0.229818 -0.0467,-0.01564 -0.187586,0.05198 -0.145331,0.02668 0.52851,-0.316522 1.063154,-0.62269 1.594731,-0.934035 -0.574599,0.313662 -1.058787,0.773303 -1.577974,1.167154 -0.256313,0.212349 -0.508751,0.424542 -0.733201,0.671432 -0.05218,0.05739 -0.100667,0.118052 -0.149483,0.178329 -0.03751,0.04631 -0.05883,0.109906 -0.109434,0.14138 -0.608326,0.37834 -1.238063,0.721117 -1.857094,1.081675 -0.0438,-0.02965 -0.09476,-0.0508 -0.13139,-0.08894 -0.18859,-0.196369 0.06403,-0.745099 0.109859,-0.953068 0.335432,-0.97706 -0.131428,0.371658 0.223057,-0.615561 0.102413,-0.285214 0.180542,-0.588328 0.305892,-0.864879 0.0309,-0.06817 0.07379,-0.130234 0.110681,-0.195351 0.548302,-0.928681 0.576166,-0.573191 2.19503,-1.329579 0.01788,-0.0084 -0.03787,0.01111 -0.0568,0.01666 -0.401731,0.382589 -0.872373,0.683015 -1.295231,1.041219 -1.15061,0.903341 -2.286307,1.823093 -3.306544,2.876209 -0.639227,0.63642 -1.292135,1.262076 -1.873861,1.952795 -0.614552,0.35745 -2.295446,1.928563 -2.052941,0.505737 0.07587,-0.402265 0.146692,-0.80268 0.169234,-1.212639 0.04405,-0.39257 0.05946,-0.784962 0.02257,-1.1793 -0.03142,-0.244943 -0.0934,-0.424099 -0.349879,-0.505322 -0.438814,-0.130314 -0.892791,-0.125727 -1.347201,-0.147319 -0.44575,-0.01212 -0.882953,-0.0071 -1.293725,0.193352 -0.370605,0.168799 -0.742319,0.349938 -1.149923,0.408116 -0.360028,0.02408 -0.71752,-0.02126 -1.075882,-0.0559 -0.424049,-0.03125 -0.838921,-0.008 -1.240384,0.14961 -0.660657,0.269911 -1.657522,0.909039 1.042057,-0.66407 0.135363,-0.07888 -0.269136,0.162664 -0.389843,0.262538 -0.0529,0.04377 -0.102767,0.09108 -0.154151,0.136624 -0.143097,0.126202 -0.406949,0.262542 -0.272343,0.481499 0.140475,0.166831 0.342659,0.270855 0.473854,0.447956 0.15963,0.20147 0.329149,0.400005 0.562268,0.518635 0.327398,0.150736 0.671932,0.258464 1.032971,0.2898 0.140211,0.0054 0.192621,0.01538 0.329081,-0.0092 0.04397,-0.0079 0.08704,-0.02088 0.129197,-0.03565 0.0351,-0.0123 0.133958,-0.06429 0.101952,-0.04534 -1.531717,0.906694 -2.233747,1.248884 -1.556031,0.915805 0.191819,-0.150605 0.359228,-0.340823 0.509284,-0.531635 0.114653,-0.195737 0.241109,-0.389137 0.177376,-0.627602 -0.06895,-0.208853 -0.169561,-0.24534 -0.386566,-0.19029 -0.903034,0.235295 -1.797303,0.506223 -2.707419,0.71576 -1.225954,0.286272 -2.460509,0.543933 -3.71194,0.691302 -0.356807,0.03867 -0.807004,0.115338 -0.932629,-0.318671 0.0026,-0.515286 0.377194,-0.943979 0.628473,-1.366424 0.433304,-0.661971 0.845955,-1.340154 1.192831,-2.051768 0.20889,-0.464015 0.421114,-0.930242 0.537279,-1.42805 0.02562,-0.27802 -0.139816,-0.151347 -0.317663,-0.08784 -0.05815,0.02927 -0.230507,0.120933 -0.17445,0.08783 0.47845,-0.282577 1.923695,-1.113378 1.441964,-0.836431 -0.668546,0.384349 -1.332516,0.776648 -2.002414,1.158635 -0.410458,0.234051 0.814847,-0.478606 1.22407,-0.714809 0.178791,-0.103198 -0.355942,0.209228 -0.532753,0.315782 -0.209424,0.126208 -0.417284,0.254991 -0.625926,0.382487 -1.403578,0.846582 -2.804521,1.699911 -4.159803,2.62261 -0.939826,0.64963 -2.346219,1.795083 -3.294643,2.044799 -0.04978,0.01311 -0.102269,0.01176 -0.153404,0.01763 -0.276991,-0.06752 -0.421788,-0.263344 -0.493127,-0.53448 -0.02585,-0.05679 -0.06329,-0.17711 -0.123258,-0.212351 -0.02605,-0.01531 -0.115464,0.03036 -0.08939,0.01508 0.558892,-0.327507 1.12118,-0.649183 1.681771,-0.973774 -0.46476,0.228844 -0.726697,0.744376 -1.084079,1.099491 -0.813764,0.887154 -0.941155,0.847267 -2.43706,1.681707 -0.04054,0.02261 -0.09251,0.0228 -0.138382,0.01567 -0.03931,-0.0061 -0.07104,-0.03582 -0.106559,-0.05373 -0.20716,-0.225595 -0.140493,-0.512243 -0.08767,-0.789979 0.03806,-0.291526 0.03113,-0.594156 -0.02209,-0.883635 -0.0068,-0.01355 -0.0088,-0.03091 -0.02038,-0.04066 -0.01648,-0.01384 -0.09031,0.02796 -0.08463,0.02462 2.998689,-1.770049 1.86832,-1.160738 1.287499,-0.722267 -0.509056,0.484519 -0.951668,1.028534 -1.343973,1.612047 -0.34899,0.525464 -0.688153,1.059549 -1.076019,1.557198 0,0 -1.883018,0.804497 -1.883018,0.804497 z"
         id="path3617"
         style="opacity:0.97044337;fill:url(#linearGradient3704);fill-opacity:1;stroke:none" />
      <path
         d="m 37.555648,60.678593 c 0.547172,-0.230166 1.077698,-0.499874 1.613624,-0.757156 0.732031,-0.313165 1.432522,-0.71329 2.200058,-0.935443 0.503802,-0.119962 0.634266,0.04761 0.78833,0.497656 0.07903,0.3127 0.121974,0.635533 0.22933,0.940693 0.106262,0.196802 0.29506,0.17145 0.482932,0.138442 0.387331,-0.08443 0.765852,-0.185519 1.144735,-0.304381 0.11209,-0.06494 0.239915,-0.09703 0.35395,-0.157689 0.04694,-0.02496 0.179881,-0.113257 0.133588,-0.08712 -2.481282,1.400907 -2.017405,1.260959 -1.447124,0.778159 1.222178,-0.925542 1.799488,-1.219759 3.061577,-1.35103 0.72318,-0.104372 1.252933,0.09018 1.840681,0.494724 0.455181,0.345775 0.753917,0.813495 1.006652,1.314826 -0.136023,-0.173856 0.08476,0.156146 0.08021,0.110783 -0.06534,-0.650937 -1.179188,0.567698 -1.75755,0.873453 -0.0331,0.0175 0.03123,-0.06824 0.0427,-0.103873 0.01632,-0.05072 0.02699,-0.103083 0.04049,-0.154625 0.08673,-0.447273 0.270874,-0.863039 0.442855,-1.281865 0.125506,-0.347984 0.29409,-0.6586 0.105933,-1.011253 -0.296578,-0.288863 -0.713087,-0.389717 -1.108675,-0.460711 -0.14265,0.0026 -0.168881,-0.0113 -0.298724,0.0434 -0.04388,0.01849 -0.166101,0.09322 -0.124662,0.06976 3.142865,-1.779112 1.871674,-1.198358 1.399829,-0.739329 -0.05493,0.09089 -0.09876,0.128113 -0.08037,0.24458 0.05445,0.344943 0.696276,0.988305 0.907226,1.234809 0.791335,0.944673 1.656635,1.843705 2.316275,2.89092 0.121522,0.192924 0.225541,0.396334 0.338312,0.5945 0.411747,0.637423 0.531998,1.442009 1.016613,2.032754 0.267206,0.235081 0.354161,0.110349 0.616129,-0.04248 0.07459,-0.04351 0.151446,-0.08303 0.227168,-0.124541 0.941766,-0.548616 -0.721284,0.422185 -1.077463,0.598175 -0.141877,0.0701 0.259019,-0.182121 0.383704,-0.279574 0.438134,-0.342448 0.845191,-0.722967 1.249931,-1.103341 0.914189,-0.881855 1.760209,-1.820486 2.521024,-2.837188 0.264,-0.256392 0.583849,-1.063057 0.900469,-1.253656 0.623043,-0.37506 1.245171,-0.75584 1.899734,-1.072699 0.06406,-0.03101 0.1379,0.0353 0.20685,0.05295 0.450485,0.236353 0.683655,0.640173 0.823794,1.111427 0.124381,0.583864 -0.125039,0.915959 -0.577613,1.247332 -0.681413,0.324987 -1.548352,1.086127 -2.43422,1.234348 -0.101416,0.01697 -0.265401,0.03095 -0.367961,-0.01135 -0.05232,-0.02158 -0.09239,-0.06538 -0.138588,-0.09808 -0.03064,-0.05407 -0.07182,-0.10341 -0.09191,-0.16222 -0.137728,-0.403009 0.145259,-0.875015 0.311288,-1.222694 0.05997,-0.174038 0.403823,-0.754161 0.361497,-0.932571 -0.499393,-1.123809 2.11068,-1.132987 2.753675,-1.138422 1.230649,-0.0032 2.461419,-8.79e-4 3.690347,0.06953 0.427585,0.06493 1.091018,0.05697 1.333243,0.507532 0.02599,0.04835 0.03673,0.103461 0.0551,0.155191 0.06364,0.252178 -0.03355,0.507757 0.0048,0.760156 0.0081,-0.823378 -1.174502,0.521513 -1.684031,0.802023 -0.05282,0.02908 0.09618,-0.07278 0.143178,-0.110543 0.342341,-0.275072 -0.0022,-0.01437 0.396909,-0.308898 0.80243,-0.52655 1.658111,-0.978047 2.490205,-1.448863 0.210535,-0.119125 0.404828,-0.210573 0.639839,-0.263774 0.338409,0.0028 0.474098,0.260761 0.628753,0.521086 0.219249,0.396713 0.522686,0.723581 0.872461,1.007064 0.458912,0.343621 1.005807,0.5441 1.560103,0.672148 0.192057,0.02412 0.396242,0.01756 0.581217,-0.04796 0.04545,-0.0161 0.170387,-0.09028 0.12847,-0.06645 -1.717814,0.976259 -2.137989,1.283242 -1.523006,0.842683 0.237938,-0.252945 0.376228,-0.55568 0.459306,-0.88827 0.07494,-0.444755 0.0952,-0.899537 0.06847,-1.349443 -0.03454,-0.423372 -0.261025,-0.662269 -0.636568,-0.823877 -0.442304,-0.121897 -0.77516,-0.193006 -1.196689,0.02855 3.053297,-1.665578 1.61437,-1.149337 1.271775,-0.551523 -0.127453,0.222399 -0.166383,0.455384 -0.200077,0.704865 0.0025,0.582652 0.271276,1.114318 0.720889,1.485954 0.112986,0.09339 0.240952,0.16701 0.361428,0.250516 0.87799,0.502218 1.888891,0.757138 2.897341,0.807292 0.224786,0.01118 0.450126,-0.0011 0.675188,-0.0016 0.537079,-0.07176 0.795391,-0.07783 1.310093,-0.259992 0.213406,-0.07553 0.809606,-0.400706 0.620199,-0.276722 -2.115865,1.385033 -0.776588,0.351533 -0.497094,0.07381 0.168714,-0.167645 0.318027,-0.353746 0.47704,-0.530619 0.724724,-0.878187 1.219875,-1.905073 1.598497,-2.971454 0.225591,-0.860406 0.868072,-2.638024 2.253719,-1.735606 0.490424,0.42163 1.014037,0.80012 1.531739,1.186854 0.472268,0.403526 1.008601,0.769157 1.330899,1.311824 0.156277,0.313128 0.08547,0.619453 -0.02045,0.932654 -0.06155,0.124169 -0.122325,0.220522 -0.149335,0.360204 -0.10721,0.32211 -0.390497,0.518575 -0.661135,0.69762 -0.570226,-0.0287 -1.538554,0.992428 -2.326136,1.243677 -0.09659,0.03081 -0.204062,0.05583 -0.305929,0.02883 -0.04179,-0.01108 -0.07708,-0.03916 -0.115626,-0.05874 -0.03158,-0.04206 -0.07316,-0.07822 -0.09474,-0.126189 -0.1941,-0.431422 0.155055,-1.155154 0.308538,-1.539408 0.216345,-0.58469 0.501257,-1.140025 0.775585,-1.698632 0.198996,-0.405209 0.420922,-0.877545 0.650411,-1.266236 0.124663,-0.211144 0.266157,-0.411887 0.399235,-0.617831 0.58804,-0.888787 1.217466,-1.757585 2.069326,-2.409191 1.513289,-0.974218 1.990772,-1.311744 3.511051,-1.385425 0.420683,0.0027 0.691335,0.25935 0.890711,0.602615 0.216014,0.427473 0.356876,0.889048 0.450177,1.357521 0.0982,0.484544 0.09636,0.974749 0.02985,1.46236 -0.06593,0.471981 -0.237908,0.918816 -0.391981,1.367015 -0.02251,0.04765 -0.153367,0.493284 -0.08199,0.534236 0.01344,0.0077 0.0104,-0.0293 0.01763,-0.043 0.01671,-0.03165 0.03603,-0.06185 0.05405,-0.09278 0.517555,-0.280604 1.703825,-0.925154 -1.375392,0.788946 -0.08552,0.04761 0.165096,-0.105183 0.247054,-0.158685 0.295069,-0.192619 0.585443,-0.392281 0.87659,-0.590737 0.828028,-0.518151 1.68506,-0.994527 2.536839,-1.469202 0.194572,-0.10843 0.379362,-0.161131 0.59839,-0.164872 0.387939,0.12158 0.306212,0.480526 0.2007,0.783394 -0.105402,0.310236 -0.202279,0.6303 -0.209324,0.96002 0.0067,0.02852 0.0055,0.06018 0.02018,0.08557 0.108358,0.187898 0.766648,0.229583 0.944498,0.258665 0.693851,0.09844 1.387545,0.192604 2.086283,0.248907 0.1814,-0.01747 0.387561,0.01204 0.558538,-0.07082 0.04767,-0.0231 0.175442,-0.118317 0.129113,-0.09264 -1.580137,0.875865 -2.07616,1.311066 -1.458256,0.787745 0.315983,-0.34982 0.61167,-0.715025 0.948063,-1.045979 0.299286,-0.292994 0.660684,-0.505423 1.009904,-0.731227 0.879011,-0.74676 1.62389,-0.954178 2.549298,-1.31963 0.230652,-0.07465 0.442428,-0.193528 0.658846,-0.29999 0.324694,-0.123368 0.664692,-0.196918 0.998704,-0.290811 0.354999,-0.05502 0.70683,-0.277673 1.075972,-0.245895 0.05558,0.0048 0.107372,0.0303 0.161058,0.04544 0.301856,0.202419 0.490686,0.515723 0.639236,0.83958 0.0878,0.273917 0.16719,0.540058 0.42018,0.699693 0.2866,0.14037 0.53531,0.0036 0.7808,-0.155592 -2.858586,1.690652 -1.52672,0.989472 -1.0136,0.395077 0.13354,-0.15469 0.15095,-0.193692 0.25873,-0.360479 0.18983,-0.334445 0.24855,-0.701468 0.2247,-1.079987 -0.0328,-0.295584 -0.1561,-0.551082 -0.34039,-0.780324 -0.0407,-0.03359 -0.0963,-0.09671 -0.16,-0.09382 -0.0443,0.002 -0.11312,0.131744 -0.0743,0.110262 1.60151,-0.887282 2.16744,-1.512657 1.69393,-0.99352 0.1497,0.450603 0.71093,0.727339 1.09524,0.943583 0.91605,0.512757 1.92975,0.761697 2.9511,0.960056 0.77068,0.147728 1.56724,0.145139 2.31766,-0.105138 0.13717,-0.04575 0.2683,-0.10793 0.40245,-0.161895 0.12255,-0.07219 0.49325,-0.283322 0.36765,-0.21657 -2.04198,1.085277 -1.58743,0.989397 -1.0403,0.482004 0.24099,-0.223487 0.42124,-0.472682 0.59242,-0.750022 0.0339,-0.07016 0.0678,-0.140328 0.10174,-0.210492 0,0 1.82854,-0.834248 1.82854,-0.834248 l 0,0 c -0.0344,0.07799 -0.0688,0.155978 -0.10323,0.233966 -0.73993,1.292406 -1.92601,1.838311 -3.28897,2.501885 -0.96811,0.330702 -1.76004,0.383845 -2.76645,0.16661 -1.03789,-0.220564 -2.06222,-0.495131 -3.00644,-0.994249 -0.4781,-0.259715 -1.03867,-0.541449 -1.27178,-1.063594 -0.28346,-0.971697 1.53557,-1.72095 2.11411,-1.017889 0.1976,0.268141 0.34101,0.555334 0.38608,0.889776 0.0355,0.414807 -7e-5,0.813856 -0.17949,1.197094 -0.59844,1.052421 -1.54472,1.47681 -2.66433,2.049456 -0.322545,0.143033 -0.622922,0.19271 -0.92977,-0.01988 -0.250989,-0.208035 -0.38567,-0.480018 -0.46673,-0.793937 -0.112528,-0.260208 -0.261239,-0.55604 -0.53749,-0.667999 -0.401647,-0.0101 -0.77634,0.171352 -1.162504,0.257341 -0.339875,0.09527 -0.68675,0.182617 -1.002776,0.343849 -0.212848,0.109928 -0.438975,0.194296 -0.662506,0.279784 -0.740166,0.295987 -2.16291,0.865366 0.94839,-0.67332 -0.361584,0.211848 -0.722488,0.433217 -1.046879,0.699684 -0.341496,0.319119 -0.65346,0.66283 -0.936479,1.035564 -0.66754,0.797898 -1.69257,1.404822 -2.730486,1.312066 -0.694458,-0.08089 -1.385799,-0.185754 -2.080331,-0.266112 -0.412922,-0.05846 -1.027071,-0.06794 -1.155936,-0.560358 -0.01135,-0.350866 0.08526,-0.69384 0.189074,-1.026508 0.01835,-0.05488 0.03463,-0.110502 0.05504,-0.164656 0.04643,-0.123221 0.160382,-0.283341 -0.05446,-0.264499 -0.145793,0.03292 -0.143791,0.02621 -0.299487,0.09475 -0.07479,0.03292 -0.290492,0.149285 -0.220446,0.107211 2.761793,-1.658892 1.480703,-0.846724 0.860701,-0.505226 -1.029994,0.699716 -2.044518,1.473133 -3.210327,1.932242 -0.05211,-0.01052 -0.109575,-0.0063 -0.156325,-0.03156 -0.258446,-0.139905 -0.09329,-0.566679 -0.03616,-0.762166 0.152657,-0.439822 0.330061,-0.875219 0.410288,-1.335875 0.0815,-0.466392 0.08882,-0.933748 0.0032,-1.401339 -0.084,-0.446054 -0.211516,-0.887698 -0.432501,-1.286825 -0.190091,-0.305674 -0.381051,-0.440621 -0.755072,-0.430107 -0.271113,0.01556 -0.539825,0.03482 -0.806276,0.0917 -0.69968,0.149375 -1.848833,0.846577 0.749086,-0.620565 -0.93231,0.623005 -1.556032,1.463237 -2.184336,2.380324 -0.134388,0.200506 -0.278317,0.394936 -0.403163,0.601519 -0.248085,0.410506 -0.432802,0.822121 -0.640186,1.253103 -0.108407,0.225291 -0.439856,0.904184 -0.541982,1.14676 -0.07143,0.169666 -0.129739,0.344562 -0.194608,0.516843 -0.07042,0.185267 -0.467564,1.130914 -0.282331,1.331882 0.612227,0.01097 2.521481,-1.405377 -0.831628,0.66322 0.263296,-0.138028 0.515337,-0.297009 0.685258,-0.547029 0.06522,-0.128945 0.0029,-0.295395 0.149684,-0.382335 0.12895,-0.241397 0.226478,-0.509453 0.125855,-0.778394 -0.270318,-0.533496 -0.798441,-0.884534 -1.239357,-1.26697 -0.515138,-0.375153 -1.025561,-0.763982 -1.564387,-1.102762 -0.742778,0.02413 -0.142298,0.02001 1.574839,-1.002827 0.02936,-0.01749 -0.06259,0.03303 -0.08259,0.06074 -0.146453,0.202901 -0.163183,0.489395 -0.266498,0.709555 -0.41835,1.087333 -0.927469,2.15123 -1.650769,3.071455 -0.211777,0.248137 -0.703488,0.85995 -0.983129,1.045548 -1.075189,0.713606 -2.207462,1.505268 -3.513159,1.720536 -0.223998,0.03693 -0.451721,0.04588 -0.677581,0.06881 -0.229234,-0.0043 -0.458955,0.0025 -0.687702,-0.01303 -1.045357,-0.07109 -2.084369,-0.340421 -3.000021,-0.853742 -0.130115,-0.09114 -0.268294,-0.171732 -0.390345,-0.273416 -0.490867,-0.408955 -0.787833,-0.986574 -0.837865,-1.619972 0.07984,-1.458936 0.878847,-1.502798 2.309862,-2.29316 0.436553,-0.118242 0.8748,-0.06174 1.293641,0.106395 0.415574,0.221823 0.689713,0.52426 0.737695,1.0109 0.03294,0.463448 0.01544,0.9315 -0.03396,1.393356 -0.06192,0.362335 -0.18072,0.686186 -0.402915,0.983123 -0.552886,0.85642 -1.724941,1.381129 -2.718149,1.196938 -0.568507,-0.161087 -1.127688,-0.389878 -1.602312,-0.747508 -0.367206,-0.298723 -0.692107,-0.636222 -0.931433,-1.048379 -0.129335,-0.193252 -0.223514,-0.380419 -0.483591,-0.303537 -0.180171,0.0652 -0.149726,0.0488 -0.344243,0.147042 -0.08153,0.04118 -0.320755,0.174777 -0.242259,0.128067 2.708534,-1.611731 1.529243,-0.894396 0.929136,-0.536344 -0.194746,0.130283 -0.215399,0.133631 -0.381047,0.280878 -0.601354,0.534555 -1.61459,1.811263 -2.156158,1.028317 -0.03089,-0.249357 0.01688,-0.489968 0.02128,-0.739539 -0.08972,-0.464258 -0.814576,-0.446647 -1.16164,-0.519969 -1.238335,-0.09861 -2.480708,-0.08619 -3.720919,-0.023 -0.290009,0.01647 -0.579587,0.04232 -0.86946,0.0588 -0.0478,0.0027 -0.182368,0.03041 -0.143619,0.0023 1.649852,-1.197483 1.531229,-1.752998 1.665172,-1.074864 0.06286,0.219369 -0.03238,0.373053 -0.120998,0.572791 -0.271019,0.610845 0.06284,-0.1118 -0.233137,0.521706 -0.142594,0.27713 -0.454851,0.776141 -0.326061,1.095443 0.678962,0.233561 2.536383,-1.251768 -0.637851,0.71313 0.398932,-0.213155 0.762481,-0.510485 0.677164,-1.008279 -0.1091,-0.389072 -0.286628,-0.775959 -0.70723,-0.897824 -0.742249,0.111375 -0.241782,0.05554 1.408307,-0.911659 0.07136,-0.04183 -0.144055,0.08426 -0.204056,0.141195 -0.334931,0.317812 -0.523383,0.765144 -0.817371,1.114633 -0.758118,1.014358 -1.575449,1.974596 -2.485374,2.857414 -0.488583,0.467158 -0.325105,0.318662 -0.829655,0.769769 -0.17197,0.153754 -0.545813,0.498281 -0.75217,0.627294 -0.666718,0.416828 -1.348692,0.808752 -2.024639,1.210442 -0.09537,0.05668 -0.192842,0.10975 -0.289264,0.164625 -0.440578,0.232627 -0.651511,0.346417 -1.022668,-0.0582 -0.432926,-0.644435 -0.530144,-1.448139 -0.916234,-2.11974 -0.107609,-0.19506 -0.207304,-0.394702 -0.322829,-0.585182 -0.639173,-1.053879 -1.495718,-1.95325 -2.329331,-2.852222 -0.137723,-0.144674 -0.275983,-0.288839 -0.413169,-0.434023 -0.318523,-0.337091 -0.794554,-0.720553 -0.65005,-1.2385 0.52999,-0.809457 1.587802,-1.450151 2.55772,-1.326771 0.440661,0.107594 0.899226,0.253375 1.207669,0.604385 0.03339,0.05995 0.07503,0.116 0.100165,0.179854 0.129258,0.328408 -0.03168,0.69327 -0.141939,1.000291 -0.165995,0.406087 -0.362173,0.807923 -0.43141,1.24497 -0.01183,0.04859 -0.02736,0.09643 -0.03549,0.145782 -0.0075,0.04583 0.02657,0.112118 -0.01139,0.138872 -0.6681,0.470786 -1.616676,1.782291 -1.961566,0.864418 -0.192474,-0.49225 -0.480542,-0.922063 -0.912194,-1.239589 -0.595423,-0.380941 -1.061081,-0.481037 -1.764915,-0.37569 -0.236548,0.03351 -0.360941,0.04421 -0.59085,0.103356 -0.08156,0.02098 -0.162126,0.04626 -0.241148,0.07538 -0.067,0.02469 -0.257415,0.122715 -0.196269,0.08584 1.097985,-0.662252 2.155016,-1.230504 1.464808,-0.858377 -0.06812,0.04345 -0.123804,0.104823 -0.192651,0.147117 -0.787767,0.483935 -1.484013,1.017516 -2.34232,1.30656 -0.39191,0.120041 -0.790152,0.222114 -1.195273,0.285706 -0.271358,-0.0015 -0.502177,-0.112604 -0.625559,-0.365498 -0.105592,-0.307073 -0.145082,-0.631626 -0.218319,-0.946964 -0.130478,-0.370883 -0.225081,-0.351187 -0.598942,-0.252217 -0.74041,0.239906 -1.430938,0.609264 -2.139484,0.926816 -0.563759,0.276149 -1.12641,0.554814 -1.693401,0.823987 0,0 1.60585,-1.284528 1.60585,-1.284528 z"
         id="path3619"
         style="opacity:0.97044337;fill:url(#linearGradient3706);fill-opacity:1;stroke:none" />
      <path
         d="m 37.307945,72.986308 c 0.596948,-0.264049 1.60869,-0.832789 -0.988581,0.603062 -0.118308,0.0654 0.229116,-0.143576 0.342215,-0.217624 1.522285,-0.996664 -0.797864,0.504426 0.909087,-0.597013 1.572399,-1.010033 3.208496,-1.870789 4.97824,-2.461479 0.703785,-0.193679 1.097396,-0.196806 1.612778,0.336586 0.346688,0.41884 0.540652,0.928406 0.740472,1.426787 0.100955,0.258012 0.199155,0.650177 0.530766,0.669333 0.04404,-0.01062 0.09031,-0.01439 0.132106,-0.03185 0.07277,-0.03041 0.277777,-0.14952 0.209106,-0.110726 -0.455957,0.257582 -0.902233,0.533728 -1.37103,0.767126 -0.161475,0.08039 0.299321,-0.201476 0.445934,-0.306554 0.342965,-0.245803 0.718811,-0.539707 1.051513,-0.795555 1.591634,-1.196945 3.290657,-2.287418 5.148758,-3.020354 0.888168,-0.266407 1.31193,-0.228209 2.082097,0.271168 0.5441,0.430632 1.001165,0.958688 1.596822,1.322272 0.753997,0.295202 1.37651,-0.388512 -1.495419,1.037908 -0.02659,0.01321 -0.01891,-0.05667 -0.03347,-0.08255 -0.129036,-0.22943 -0.173998,-0.265972 -0.350716,-0.490748 -0.631113,-0.754191 -1.404597,-1.347066 -2.246365,-1.844905 -0.546437,-0.263279 -0.937449,-0.496841 -1.54302,-0.315299 -0.691223,0.501945 0.222163,-0.170739 1.435326,-0.773626 0.05622,-0.02794 -0.08114,0.09675 -0.111957,0.15145 -0.03396,0.06029 -0.05969,0.125308 -0.08104,0.191134 -0.07021,0.216484 -0.06222,0.284209 -0.0829,0.516187 0.04846,0.844055 0.407236,1.644773 0.846696,2.354848 0.340784,0.422206 0.802549,0.93234 1.39929,0.931327 0.08518,-1.45e-4 0.168321,-0.02625 0.252481,-0.03937 0.643091,-0.266443 1.103624,-0.468335 -1.219137,0.711252 -0.09594,0.04872 0.173214,-0.128029 0.254852,-0.198125 0.267672,-0.22983 0.51214,-0.492393 0.763495,-0.739593 0.928041,-0.986923 2.123043,-1.533051 3.296518,-2.198404 0.597369,-0.267942 1.094296,-0.28877 1.722787,-0.130649 0.598444,0.169787 1.110779,0.495112 1.526219,0.953114 0.256045,0.3422 0.357342,0.743699 0.401302,1.160574 -0.0062,0.291857 0.08618,0.51209 0.300389,0.706611 0.833472,0.44013 1.774635,0.633258 2.69006,0.821952 1.061452,0.190331 2.137131,0.284842 3.213219,0.339729 0.02681,-0.0091 0.104158,-0.04276 0.08042,-0.02733 -1.807253,1.174916 -1.275148,1.411107 -2.425761,0.749217 C 62.70809,74.30267 62.21687,73.807002 61.7158,73.337617 c -0.347856,-0.376352 -0.795365,-0.65873 -1.091616,-1.080702 -0.08808,-0.174321 -0.06918,-0.385497 0.11757,-0.493082 1.85305,-1.067525 1.254949,-0.866348 2.204002,-1.153887 0.689415,-0.230176 1.413353,-0.315657 2.133256,-0.385703 0.573609,-0.07158 1.124441,0.01979 1.623676,0.30884 0.342512,0.200552 0.552659,0.532285 0.794524,0.832798 0.02258,0.01807 0.04106,0.04304 0.06774,0.05421 0.03133,0.01312 0.08825,-0.09942 0.05815,-0.08368 -2.595488,1.357735 -2.112222,1.249373 -1.458283,0.778612 6.320548,-3.658003 -1.152099,0.687855 0.610038,-0.354412 0.08185,-0.04841 0.163301,-0.09751 0.24578,-0.144844 1.812804,-1.040289 1.322244,-0.76654 2.180251,-1.243179 0.326856,-0.176784 0.665449,-0.331725 1.037713,-0.232665 0.43097,0.317935 0.769586,0.754744 1.141218,1.140888 0.490664,0.528645 1.024642,1.007432 1.658427,1.355124 0.541329,0.264793 0.994834,0.279656 1.55474,0.08413 0.805869,-0.486366 -0.467042,0.284988 -1.314454,0.725705 -0.07661,0.03984 0.135159,-0.107551 0.200759,-0.163698 0.228359,-0.195452 0.445541,-0.39808 0.680622,-0.585973 0.437778,-0.330992 0.934983,-0.576975 1.33587,-0.954892 0.04931,-0.06015 0.138443,-0.147169 0.154195,-0.234031 0.04686,-0.258392 -0.365351,-0.47284 -0.524191,-0.580314 -1.089153,-0.511029 -2.287899,-0.712296 -3.463412,-0.920636 -1.01474,-0.116059 -2.252259,-0.383406 -3.242707,-0.0041 -0.127454,0.04881 -0.241837,0.126578 -0.362756,0.189866 0.473329,-0.252348 0.924241,-0.552213 1.419986,-0.757046 0.09827,-0.0406 -0.144764,0.158418 -0.196274,0.25143 -0.265085,0.47866 -0.06124,0.926844 0.142876,1.37382 0.556516,0.89978 1.382228,1.600062 2.300366,2.115423 0.207573,0.116513 0.426872,0.21078 0.640307,0.31617 0.836464,0.315821 1.719609,0.734585 2.637387,0.714623 0.09574,-0.0021 0.190197,-0.02253 0.285295,-0.0338 0.476851,-0.213077 2.340137,-1.05267 -1.330762,0.751942 -0.07228,0.03553 0.120593,-0.108104 0.170015,-0.171703 0.184901,-0.237937 0.268659,-0.532903 0.35819,-0.814367 0.16827,-0.625264 0.289646,-1.258596 0.51172,-1.868223 0.08304,-0.194272 0.130472,-0.327178 0.244169,-0.50632 0.08623,-0.135864 0.218995,-0.30544 0.360602,-0.389797 1.877572,-1.118497 1.247935,-0.942306 2.240647,-1.175826 0.985328,-0.108269 1.947722,0.12846 2.892995,0.376869 0.82476,0.23998 1.719061,0.38009 2.446971,0.864499 0.210381,0.228888 0.0817,0.437621 -0.04537,0.660916 -0.0058,0.0019 -0.01154,0.0038 -0.01731,0.0057 -0.605246,0.239125 -1.199445,0.508358 -1.815736,0.717374 -0.0558,0.01893 0.07218,-0.09318 0.10957,-0.138723 0.195823,-0.238553 0.412394,-0.440271 0.642371,-0.645743 0.573666,-0.475176 1.172221,-0.918289 1.748666,-1.389936 0.723182,-0.608086 1.539461,-0.997184 2.393818,-1.450447 0.03356,-0.01781 0.340123,-0.05126 0.373592,-0.05529 0.413974,-0.05041 0.821799,-0.0052 1.231758,0.0496 0.356375,0.07554 0.695979,0.0053 1.039877,-0.08996 0.526296,-0.144704 1.035825,-0.340808 1.555943,-0.505566 0.300857,-0.128556 0.08825,-0.04531 0.359262,-0.135448 0.230637,-0.07671 0.258479,0.0206 0.275395,0.248183 -0.01855,0.03455 -0.03333,0.0714 -0.05564,0.103641 -0.07273,0.105061 -0.163828,0.196169 -0.243368,0.296172 -0.189419,0.238148 -0.357361,0.486484 -0.521805,0.74226 -0.326763,0.519768 -0.593196,1.072558 -0.83826,1.634287 -0.04224,-0.0089 -0.09003,0.342401 -0.109205,0.341163 -0.01961,-0.0013 -3.36e-4,-0.06409 -0.01827,-0.05605 -1.607998,0.720299 -2.351403,1.274533 -1.685687,0.787487 0.583326,-0.628823 1.307987,-1.095015 2.011266,-1.576542 1.152131,-0.751289 2.233825,-1.600127 3.30709,-2.457976 0.554625,-0.459148 1.113259,-0.912136 1.688209,-1.345593 0.702285,-0.476613 0.598136,-0.412294 2.026953,-1.153278 0.06699,-0.03474 0.189162,0.04584 0.225803,0.08764 0.08448,0.09638 0.09048,0.175436 0.122391,0.294606 0.02692,0.708659 -0.249958,1.38956 -0.476578,2.048421 -0.269216,0.869562 -0.514225,1.766627 -0.505062,2.683116 0.06483,0.584824 0.203202,0.656587 0.750391,0.739623 1.169179,-0.02609 2.282492,-0.445488 3.373784,-0.82665 0.50099,-0.211018 2.84344,-1.379984 0.20391,0.0066 -0.13824,0.07263 0.26479,-0.165875 0.39291,-0.255173 0.26858,-0.187204 0.28454,-0.214648 0.50684,-0.420426 0.21373,-0.228483 0.36347,-0.507395 0.44507,-0.808352 0.062,-0.280294 0.002,-0.289715 -0.25212,-0.337211 -0.12609,-0.0101 -0.25867,-0.04838 -0.38253,-4.72e-4 -0.0334,0.01291 -0.12177,0.07506 -0.0906,0.0576 1.66934,-0.933471 2.19202,-1.335105 1.60703,-0.891302 -0.1661,0.257754 -0.1382,0.598293 -0.14615,0.893266 0.001,0.462195 0.0594,0.800853 0.28411,1.202872 0.0354,0.04268 0.13815,0.209998 0.22858,0.179035 0.0265,-0.0091 0.0823,-0.07455 0.0575,-0.06146 -1.60847,0.848256 -2.14289,1.313805 -1.48643,0.764282 0.6705,-0.739247 1.29614,-1.518751 1.94193,-2.279903 0.61634,-0.714437 1.18621,-1.475504 1.90276,-2.094545 0.7595,-0.551433 0.44493,-0.334816 2.10876,-1.227533 0.0855,-0.04587 0.23488,-0.03646 0.3243,-0.01345 0.10137,0.02609 0.21104,0.09372 0.30084,0.142738 0.3911,0.255779 0.80026,0.461857 1.24587,0.602169 0.28845,0.09422 0.57022,0.110462 0.86713,0.07062 0,0 -1.63606,1.209051 -1.63606,1.209051 l 0,0 c -0.3086,0.0096 -0.60686,-0.04644 -0.89813,-0.150616 -0.44401,-0.164278 -0.85747,-0.385018 -1.27366,-0.608883 -0.13468,-0.0503 -0.23185,-0.08547 -0.37509,-0.04467 -0.0475,0.01353 -0.18064,0.0785 -0.13846,0.05279 0.43619,-0.265823 2.23636,-1.324377 1.32201,-0.774975 -0.7755,0.590159 -1.37282,1.366018 -2.00773,2.097945 -0.61814,0.740325 -1.22457,1.488651 -1.81818,2.248551 -0.61065,0.701175 -1.82942,1.863017 -2.42713,0.898543 -0.21618,-0.417699 -0.30702,-0.827396 -0.32053,-1.299036 -0.002,-0.330381 -0.0251,-0.670438 0.0641,-0.992037 0.37341,-0.877903 1.54246,-1.346797 2.42931,-1.135372 0.28839,0.102065 0.4712,0.277741 0.40847,0.604013 -0.0606,0.346358 -0.22372,0.661823 -0.44134,0.936819 -0.29081,0.289905 -0.59738,0.538375 -0.95359,0.74787 -1.1341,0.666985 -2.23634,1.354248 -3.464041,1.825778 -1.143486,0.393858 -2.320863,0.85606 -3.548146,0.831006 -0.633088,-0.136188 -0.814647,-0.329929 -0.87787,-0.986202 0.0089,-0.942077 0.278703,-1.858819 0.523846,-2.761947 0.19509,-0.618019 0.431045,-1.24609 0.435329,-1.90239 -0.0096,-0.04401 0.0021,-0.114374 -0.04053,-0.128889 -0.01744,-0.0059 -0.123083,0.04351 -0.114049,0.03815 1.241562,-0.736001 2.20411,-1.271308 1.447759,-0.84954 -0.617002,0.427048 -1.198536,0.901133 -1.781246,1.373438 -1.087851,0.849712 -2.165502,1.715269 -3.318844,2.476422 -0.651993,0.448618 -1.380022,0.88817 -1.891926,1.498888 -0.649827,0.754725 -2.49369,1.766217 -1.903616,0.535833 0.264479,-0.565281 0.528864,-1.131336 0.849006,-1.668179 0.228196,-0.377983 0.454418,-0.772053 0.766184,-1.087303 0.356087,0.128071 -0.274477,0.203276 -0.349937,0.261166 -0.521907,0.169911 -1.038971,0.354471 -1.568753,0.499627 -0.365237,0.08478 -0.724424,0.114687 -1.094866,0.03476 -0.397727,-0.0531 -0.797009,-0.07351 -1.194774,-0.0012 -0.731958,0.161897 -1.444537,0.756392 1.247009,-0.826087 0.05371,-0.03158 -0.111352,0.05626 -0.164342,0.08902 -0.149169,0.09223 -0.237258,0.169721 -0.376509,0.280501 -0.590472,0.46157 -1.182201,0.921331 -1.768786,1.388076 -0.192019,0.165773 -0.292633,0.244713 -0.464925,0.421195 -0.05194,0.0532 -0.102531,0.10794 -0.14901,0.16597 -0.03485,0.04351 -0.04476,0.112779 -0.09447,0.138021 -2.020085,1.025762 -2.227887,1.574947 -1.948691,0.870161 0.04395,-0.02359 0.272601,-0.247019 0.27282,-0.292356 1.26e-4,-0.02605 -0.02349,-0.04649 -0.03524,-0.06974 -0.649452,-0.517165 -1.52935,-0.633398 -2.299344,-0.872609 -0.950518,-0.22555 -1.936515,-0.433388 -2.911703,-0.23524 -0.806631,0.286635 -0.361206,0.148039 1.205536,-0.78335 0.07355,-0.04372 -0.152759,0.07948 -0.219605,0.132883 -0.212452,0.169736 -0.331154,0.419525 -0.436558,0.662176 -0.249838,0.599377 -0.379162,1.227348 -0.52808,1.857053 -0.361223,1.32883 -0.858447,1.924806 -2.604622,2.268914 -1.013725,-0.01351 -1.961861,-0.447657 -2.882078,-0.831309 -0.217027,-0.110487 -0.439391,-0.211036 -0.651055,-0.331452 -0.950367,-0.540667 -1.803825,-1.259015 -2.417164,-2.169048 -0.254646,-0.497493 -0.488638,-0.975513 -0.264271,-1.543239 0.04319,-0.109288 0.08301,-0.235858 0.17891,-0.303769 0.625665,-0.443035 1.304534,-0.805691 1.956801,-1.208536 0.122965,-0.0483 0.241631,-0.109449 0.368895,-0.144913 1.016423,-0.283243 2.201983,-0.0037 3.222227,0.113645 1.221849,0.209671 2.478004,0.391404 3.611563,0.918035 0.374308,0.247999 0.915573,0.619777 0.561943,1.109143 -0.377446,0.425348 -0.889594,0.674206 -1.352704,0.993835 -0.269851,0.198341 -0.227318,0.155464 -0.468377,0.377082 -0.03724,0.03423 -0.344108,0.334507 -0.395692,0.366869 -0.630763,0.395718 -1.271342,0.775803 -1.915371,1.149544 -0.07118,0.04131 -0.15209,0.06291 -0.228136,0.09437 -0.595509,0.138464 -1.088665,0.06852 -1.630535,-0.227397 -0.630542,-0.380738 -1.170155,-0.874618 -1.677336,-1.406965 -0.16327,-0.163333 -0.338042,-0.338759 -0.502706,-0.501268 -0.155227,-0.153196 -0.319006,-0.355303 -0.516113,-0.460187 -0.03302,-0.01757 -0.07089,-0.02389 -0.106333,-0.03583 -0.339077,-0.0055 -0.637453,0.159759 -0.929193,0.31729 -0.71902,0.39199 -0.330114,0.182676 1.247623,-0.734134 0.155212,-0.09019 -0.307736,0.184958 -0.46292,0.275199 -0.641974,0.373314 -1.282959,0.748376 -1.928109,1.116175 -0.523941,0.298698 1.042982,-0.605911 1.564473,-0.908867 -0.748054,0.392321 -1.657047,1.804571 -2.315725,1.028263 -0.211663,-0.288714 -0.399219,-0.59932 -0.724872,-0.776262 -0.482731,-0.243098 -1.000311,-0.293369 -1.535279,-0.225812 -0.719339,0.06937 -1.436978,0.178177 -2.117876,0.431274 -0.850678,0.315601 -0.204643,0.09401 1.273207,-0.812491 0.08154,-0.05002 -0.462983,0.176381 -0.256373,0.204462 0.246347,0.426756 0.699056,0.698794 1.013066,1.071004 0.489579,0.4632 0.992683,0.926308 1.600643,1.230655 0.33754,0.170984 0.140811,0.07611 0.462415,0.221657 0.05996,0.02714 0.121465,0.05118 0.179588,0.08205 0.04818,0.02559 0.180957,0.05256 0.138636,0.08699 -1.518983,1.235668 -1.030999,1.34311 -1.759175,1.153618 -1.029632,-0.172753 -2.072761,-0.254878 -3.100474,-0.441073 -0.694964,-0.134373 -0.752011,-0.135832 -1.418317,-0.300161 -0.41914,-0.103371 -0.863553,-0.206485 -1.253441,-0.400452 -0.07241,-0.03602 -0.138411,-0.08372 -0.207616,-0.125575 -0.242899,-0.22939 -0.396818,-0.489532 -0.378396,-0.834718 -0.02309,-0.376947 -0.0865,-0.746005 -0.315829,-1.058592 -0.384063,-0.433151 -0.879429,-0.719763 -1.44344,-0.856803 -0.609266,-0.104989 -1.086216,-0.03838 -1.642083,0.239621 2.786185,-1.6422 1.405937,-0.885343 0.864384,-0.48329 -0.276266,0.205102 -0.537481,0.436256 -0.778813,0.68095 -0.929635,0.919319 -1.856695,1.924637 -3.241082,2.169704 -0.09411,-0.0023 -0.18928,0.0074 -0.28234,-0.0068 -0.62343,-0.09529 -1.080773,-0.624319 -1.437155,-1.095397 -0.45639,-0.743624 -0.838029,-1.560291 -0.949648,-2.433814 0.01519,-1.341651 0.650686,-1.682819 2.235096,-2.203526 0.617667,-0.07273 1.049984,0.177882 1.57768,0.474732 0.834701,0.543145 1.615522,1.156114 2.296707,1.886612 0.02511,0.02796 0.589683,0.658452 0.543626,0.694279 -1.489186,1.158413 -1.247598,1.413306 -2.048786,0.940695 -0.553048,-0.409305 -1.021293,-0.914196 -1.569729,-1.328364 -0.736708,-0.415527 -1.13316,-0.410635 -1.941292,-0.149544 -0.155616,0.06242 -0.313347,0.1198 -0.466848,0.187251 -0.406065,0.178429 -1.663101,0.833117 0.455098,-0.341653 0.218739,-0.121314 -0.427737,0.259649 -0.636481,0.397453 -0.462871,0.305569 -0.780662,0.550564 -1.224603,0.879898 -0.43119,0.339934 -0.582052,0.461987 -1.007786,0.786203 -0.135258,0.103005 -0.262594,0.217943 -0.407914,0.306186 -0.672659,0.40846 -1.351995,0.806647 -2.043471,1.182373 -0.08232,0.04473 -0.177897,0.06335 -0.270842,0.07515 -0.05956,0.0076 -0.119487,-0.01199 -0.179231,-0.01798 -0.34826,-0.16504 -0.491649,-0.486819 -0.597285,-0.844268 -0.183559,-0.475282 -0.357907,-0.964822 -0.701938,-1.352277 -0.469235,-0.438511 -0.840883,-0.3589 -1.434598,-0.195012 -0.730044,0.242907 -1.444271,0.523451 -2.131223,0.872402 -0.201992,0.102605 -0.788762,0.445528 -0.597017,0.324852 0.351686,-0.221336 0.718245,-0.41811 1.077367,-0.627165 -1.195843,0.768293 -2.337288,1.603585 -3.650841,2.186947 0,0 1.597963,-1.27822 1.597963,-1.27822 z"
         id="path3621"
         style="opacity:0.97044337;fill:url(#linearGradient3708);fill-opacity:1;stroke:none" />
      <path
         d="m 50.515841,82.77606 c 0.383757,0.409204 0.703916,0.870123 1.00809,1.33972 0.37873,0.625039 0.760464,1.247325 1.237846,1.802574 0.298119,0.306939 0.647847,0.55508 1.059631,0.676773 0.168139,0.02666 0.26793,-0.04141 0.406164,-0.121014 0.06109,-0.03518 0.24713,-0.135791 0.186012,-0.100652 -1.63409,0.939478 -1.960016,1.178229 -1.262842,0.690431 0.46178,-0.369086 0.907419,-0.760948 1.276391,-1.224422 0.0203,-0.0061 0.328948,-0.546777 0.116268,-0.419383 -0.698649,0.191551 -1.955696,1.024722 1.030887,-0.676021 -0.467452,0.272208 -0.835948,0.647019 -1.124063,1.100391 -0.330715,0.561323 -0.436153,1.199381 -0.499642,1.83731 -0.0019,0.17214 -0.01515,0.268538 0.02412,0.432296 0.0066,0.02771 0.05746,0.187392 0.109787,0.210243 0.01443,0.0063 0.04658,-0.04141 0.03256,-0.03423 -0.584785,0.299583 -1.164788,0.608412 -1.747182,0.912619 0.01803,-0.03681 0.04777,-0.06993 0.05408,-0.110421 0.07053,-0.452986 -0.338681,-1.129236 -0.557374,-1.499289 -0.400077,-0.658958 -0.895501,-1.252883 -1.283072,-1.919127 -0.196341,-0.36643 -0.381986,-0.799131 -0.199542,-1.211323 0.02972,-0.06714 0.07717,-0.124927 0.115755,-0.18739 0.983659,-1.039567 2.023092,-1.357702 3.2912,-1.474255 0.242213,-0.02045 0.485135,-0.02795 0.728008,-0.03468 0,0 -1.630271,1.190826 -1.630271,1.190826 l 0,0 c -0.233989,0.0054 -0.468089,0.01148 -0.701262,0.03364 -0.297159,0.03259 -0.595529,0.06434 -0.882043,0.155606 -0.0904,0.0288 -0.344963,0.154916 -0.265009,0.10384 3.166642,-2.022921 1.775787,-1.080831 1.317614,-0.768742 -0.04688,0.04423 -0.101431,0.08153 -0.14065,0.132679 -0.252754,0.329614 -0.06688,0.744167 0.08959,1.066685 0.370963,0.673646 0.849468,1.277892 1.260813,1.926638 0.328878,0.544126 0.679814,1.130685 0.689303,1.784997 -0.616476,0.348431 -1.21546,0.729806 -1.849427,1.045293 -0.03573,0.01778 -0.06353,-0.04964 -0.08802,-0.08114 -0.171456,-0.220545 -0.165978,-0.524381 -0.158626,-0.786698 0.0742,-0.65489 0.159248,-1.322608 0.468472,-1.91495 0.254833,-0.483441 0.600878,-0.879116 1.058506,-1.183686 0.637272,-0.365978 1.270806,-0.738543 1.911817,-1.097932 0.116592,-0.06537 0.289757,-0.119405 0.423694,-0.135717 0.105351,-0.01283 0.120733,-0.001 0.21869,0.02125 0.308193,0.202416 0.214767,0.517172 0.03212,0.786527 -0.357689,0.48766 -0.811219,0.885101 -1.266681,1.279389 -0.792396,0.64544 -0.225017,0.20266 -2.168422,1.309072 -0.225829,0.128568 -0.450504,0.183404 -0.701283,0.09927 -0.421085,-0.171664 -0.780111,-0.44878 -1.079177,-0.791351 -0.468134,-0.570928 -0.847354,-1.202768 -1.241258,-1.825795 -0.310953,-0.451743 -0.630692,-0.907048 -1.04493,-1.271522 0,0 1.743358,-1.068331 1.743358,-1.068331 z"
         id="path3623"
         style="opacity:0.97044337;fill:url(#linearGradient3710);fill-opacity:1;stroke:none" />
      <path
         d="m 49.184571,95.150044 c 0.497982,-0.221662 1.029688,-0.289623 1.567971,-0.334973 1.574065,-0.118543 3.132969,0.170202 4.673982,0.451935 0.545107,0.150192 1.391005,0.212817 1.780921,0.697592 0.03926,0.04881 0.06189,0.108928 0.09284,0.163392 0.108348,0.400878 -0.150189,0.665404 -0.448462,0.886361 -0.845107,0.535926 -1.731233,1.006006 -2.608918,1.481672 -0.428924,0.135179 -0.414811,-0.435924 -0.44966,-0.712084 -0.03156,-0.664151 -0.231238,-1.279702 -0.536997,-1.864287 -0.306294,-0.499304 -0.644315,-0.869746 -1.194821,-1.080477 -0.06248,-0.0085 -0.232058,-0.03971 -0.300924,-0.01987 -0.03906,0.01126 -0.136838,0.08761 -0.101248,0.06797 0.556401,-0.307023 1.104152,-0.629747 1.664057,-0.93033 0.03937,-0.02114 -0.07124,0.05532 -0.09915,0.09022 -0.03344,0.04183 -0.05532,0.09171 -0.08298,0.137563 -0.169921,0.444058 -0.187576,0.931008 -0.178731,1.401392 0.0068,0.322399 0.06111,0.64002 0.153542,0.948043 0,0 -1.773624,0.966851 -1.773624,0.966851 l 0,0 c -0.08919,-0.326246 -0.146023,-0.660988 -0.161133,-0.999513 -0.02457,-0.492313 -0.0012,-0.992191 0.113564,-1.473204 0.311748,-0.924472 1.519998,-1.655211 2.447763,-1.307189 0.555001,0.274351 0.911889,0.688588 1.230166,1.216259 0.317433,0.596996 0.541755,1.22761 0.599491,1.906292 0.0099,0.05626 0.04436,0.402437 0.08778,0.460561 0.0047,0.0063 0.165499,-0.09629 0.169407,-0.08805 0.132286,-0.07462 0.267748,-0.141166 0.402616,-0.210951 0.05159,-0.0267 0.204286,-0.110603 0.154198,-0.08118 -0.473056,0.277848 -2.221086,1.293537 -1.423163,0.826705 0.245671,-0.138305 0.548457,-0.300716 0.570572,-0.614163 -0.235359,-0.539496 -1.170446,-0.640769 -1.64734,-0.795291 -1.542972,-0.321249 -3.115706,-0.576314 -4.693863,-0.364388 -0.556793,0.08424 -1.113783,0.182945 -1.61371,0.457674 0,0 1.605849,-1.284528 1.605849,-1.284528 z"
         id="path3625"
         style="opacity:0.97044337;fill:url(#linearGradient3712);fill-opacity:1;stroke:none" />
      <path
         d="m 67.915793,81.633189 c -0.06656,0.670917 -0.167289,1.337603 -0.263619,2.004685 -0.01596,0.48376 -0.241262,1.040772 -0.04412,1.510576 0.316468,0.224764 1.089193,-0.04561 1.416883,-0.123274 1.789278,-0.461497 3.583372,-0.901605 5.394537,-1.268585 1.617845,-0.232824 3.239459,-0.609805 4.881398,-0.609054 0.680058,0.01087 0.837154,0.289755 1.1141,0.8458 0.298497,0.65098 0.773438,1.169598 1.311977,1.629489 0.57554,0.437061 1.233997,0.774262 1.967592,0.777245 0.855169,-0.438591 -0.916261,0.547837 -1.401296,0.76795 -0.07113,0.03228 0.09931,-0.124232 0.125748,-0.197733 0.149166,-0.414755 0.0097,-0.872244 -0.07334,-1.281102 -0.222571,-0.994787 -0.62419,-1.934802 -0.944035,-2.899599 -0.165786,-0.33487 -0.113211,-0.739957 -0.260813,-1.07555 -0.01698,-0.01653 -0.02855,-0.04186 -0.05095,-0.04959 -0.07198,-0.02483 -0.736847,0.23277 -0.813213,0.25963 -0.617547,0.295946 -1.913581,0.89942 0.828935,-0.515175 0.104793,-0.05405 -0.193673,0.135062 -0.284221,0.210589 -0.281046,0.234421 -0.267632,0.251357 -0.490062,0.54381 -0.437605,0.792443 -0.525274,1.734351 -0.344343,2.616373 0.04733,0.230734 0.126607,0.453745 0.189911,0.680617 0.323722,0.929507 0.816693,1.783241 1.520508,2.477491 0.377522,0.372389 0.575414,0.483608 1.001927,0.779311 0.648839,0.400976 1.376091,0.737891 2.148455,0.799049 0.129203,0.01023 0.259211,-0.0011 0.388817,-0.0016 0.135237,-0.01495 0.273636,-0.01216 0.405712,-0.04485 0.485391,-0.120141 1.183025,-0.566706 0.970665,-0.484298 -0.333722,0.129504 -0.672577,0.704004 -0.957189,0.486892 -0.264521,-0.201785 0.527311,-0.406205 0.781374,-0.621009 0.291669,-0.246598 0.57011,-0.508427 0.855165,-0.762641 1.372908,-1.267269 2.625759,-2.654923 3.940686,-3.980081 0.850288,-0.856903 1.204798,-1.178287 2.075809,-2.000364 0.744106,-0.682879 1.471215,-1.38495 2.233105,-2.048333 0.104185,-0.09071 0.582275,-0.501284 0.753066,-0.603542 0.636059,-0.380828 1.285511,-0.738827 1.928266,-1.10824 0.06233,0.0018 0.128958,-0.01735 0.186991,0.0055 0.3065,0.120509 0.46547,0.954255 0.550048,1.228568 0.241825,0.792011 0.413998,1.604063 0.658075,2.395218 0.05766,0.09556 0.103603,0.353211 0.243159,0.39837 0.0276,0.0089 0.334049,-0.05061 0.360709,-0.05384 0.52391,-0.08074 1.03037,-0.02174 1.53088,0.141444 0.48052,0.2292 0.62322,0.577341 0.72517,1.070155 0.0136,0.296454 0.10417,0.55851 0.24326,0.815273 0.26568,0.783816 -0.11107,0.341436 -1.77661,1.17893 -0.004,0.0019 -0.32351,-0.192559 -0.42373,-0.244248 -0.638529,-0.2571 -1.305277,-0.428662 -1.976124,-0.576475 -0.521215,-0.103912 -1.046763,-0.194306 -1.576259,-0.111182 -0.02521,0.0092 -0.05183,0.04004 -0.07562,0.02762 -0.04124,-0.02152 -0.122234,-0.0841 -0.08438,-0.11114 0.583194,-0.416627 1.20521,-0.777244 1.826978,-1.133752 0.05642,-0.03235 0.128816,-0.01835 0.193537,-0.02477 0.102541,-0.01016 0.205864,-0.01225 0.308121,-0.02496 0.135388,-0.01683 0.269546,-0.0424 0.40432,-0.0636 0.778007,-0.143622 1.570707,-0.247609 2.336827,-0.448641 0.30978,-0.02339 0.5682,-0.251258 0.87477,-0.25914 0.0341,0.0034 0.069,0.0019 0.10222,0.01035 0.0777,0.01967 0.16531,0.0741 0.23555,0.107087 0.16525,0.0776 0.33708,0.143648 0.50474,0.215738 0.33277,0.13784 0.16195,0.06683 0.51244,0.213113 0,0 -1.65904,1.110709 -1.65904,1.110709 l 0,0 c -0.35904,-0.140091 -0.18283,-0.07259 -0.52854,-0.202769 -0.25324,-0.09683 -0.52905,-0.2614 -0.80609,-0.222523 -0.27338,0.0951 -0.54332,0.196676 -0.83141,0.242299 -0.767297,0.149124 -1.540153,0.27132 -2.309064,0.411923 -0.824323,0.139116 -0.07397,0.01571 -0.761066,0.121113 -0.07394,0.01134 -0.280828,0.08178 -0.22147,0.03625 0.520347,-0.3991 1.082197,-0.740958 1.623296,-1.111436 -0.02721,-0.03511 -0.0786,-0.06101 -0.08164,-0.105334 -0.0017,-0.02473 0.04957,-6.52e-4 0.07435,-9.78e-4 0.52697,-0.0087 1.043157,0.08965 1.556654,0.201839 0.68949,0.16052 1.38002,0.329081 2.04063,0.587427 0.1158,0.05238 0.22812,0.113297 0.34746,0.156997 0.0278,0.01017 0.11137,0.0033 0.0866,0.01951 -0.56555,0.369088 -1.15374,0.702271 -1.73062,1.053407 0.0395,0.0019 0.0244,0.0096 0.0305,-0.04088 -0.12156,-0.282853 -0.24963,-0.558178 -0.24575,-0.876215 -0.0665,-0.402394 -0.18642,-0.733833 -0.59775,-0.890613 -0.497244,-0.140175 -0.994595,-0.150086 -1.504671,-0.06566 -0.511886,0.02775 -0.569838,-0.13867 -0.723921,-0.598126 -0.200393,-0.801109 -0.350933,-1.617527 -0.637034,-2.395029 -0.06777,-0.18697 -0.237959,-0.81728 -0.385546,-0.952666 -0.04863,-0.04461 -0.148853,0.0089 -0.184698,0.02009 0.487618,-0.288759 0.970621,-0.58546 1.462855,-0.866278 0.126529,-0.07219 -0.247242,0.154551 -0.365179,0.240056 -1.029471,0.746369 -1.926494,1.659911 -2.885435,2.489847 -0.849483,0.792541 -1.269777,1.169855 -2.093093,1.998579 -1.29628,1.304795 -2.518933,2.682248 -3.848817,3.954164 -0.262419,0.243876 -1.204184,1.14333 -1.54268,1.371158 -0.73301,0.493358 -1.498056,0.937529 -2.254999,1.393318 -0.471334,0.283811 -0.931236,0.496066 -1.491224,0.483235 -0.134758,-0.0079 -0.270387,-0.0065 -0.404274,-0.02375 -0.782858,-0.100735 -1.503285,-0.466033 -2.148417,-0.90277 -0.166188,-0.123941 -0.339257,-0.239154 -0.498565,-0.371822 -0.957197,-0.797133 -1.640576,-1.840488 -2.063484,-3.007228 -0.07132,-0.23258 -0.158043,-0.460983 -0.213953,-0.697739 -0.212025,-0.897838 -0.170832,-1.868388 0.21023,-2.713081 0.06933,-0.109369 0.128803,-0.225643 0.207977,-0.328109 0.103255,-0.13363 0.380538,-0.40322 0.527611,-0.493625 0.859125,-0.528097 1.668315,-1.068761 2.595493,-1.433771 0.341352,-0.119035 0.813711,-0.363145 1.07113,0.01828 0.145754,0.355528 0.08548,0.761335 0.217877,1.124708 0.261627,0.990938 0.62267,1.950414 0.901694,2.936154 0.11456,0.439472 0.26862,0.898963 0.200527,1.361128 -0.134118,0.910302 -1.317696,1.350581 -2.181329,1.432447 -0.745635,-0.100112 -1.41035,-0.445747 -1.998458,-0.90891 -0.556089,-0.477795 -1.066685,-1.005104 -1.395494,-1.669678 -0.259111,-0.492622 -0.365651,-0.661093 -0.958932,-0.690058 -1.576487,-0.05025 -3.14488,0.278099 -4.69404,0.521074 -1.860915,0.393275 -3.701221,0.869984 -5.532977,1.381751 -0.398934,0.0987 -1.160918,0.376656 -1.541151,0.06856 -0.04472,-0.03623 -0.07584,-0.0866 -0.113753,-0.129898 -0.1968,-0.524919 0.01579,-1.097079 0.05642,-1.634311 0.094,-0.645211 0.192393,-1.291942 0.208698,-1.944868 0,0 1.82209,-0.928401 1.82209,-0.928401 z"
         id="path3627"
         style="opacity:0.97044337;fill:url(#linearGradient3714);fill-opacity:1;stroke:none" />
      <path
         d="m 66.141638,93.594454 c 0.273086,0.537035 0.63421,1.025945 1.009504,1.495128 0.68216,0.789659 1.519863,1.411885 2.400556,1.960562 0.991384,0.479473 2.050746,0.958274 3.16728,1.038011 0.213989,0.01528 0.428991,-0.0081 0.643486,-0.01216 0.217872,-0.04372 0.440247,-0.06908 0.653615,-0.13115 0.232139,-0.06754 0.45971,-0.153446 0.678463,-0.256387 0.239414,-0.112665 0.953817,-0.427991 0.692166,-0.38861 -0.321971,0.04846 -0.60642,0.588931 -0.883141,0.417354 -0.24132,-0.149627 0.428376,-0.373602 0.627937,-0.575589 0.198772,-0.201187 0.37706,-0.42163 0.56559,-0.632445 0.893652,-1.077241 1.604444,-2.286768 2.131915,-3.58057 0.03415,-0.05766 0.255058,-0.813289 0.113864,-0.858059 -0.0229,-0.0073 -0.03272,0.03576 -0.05259,0.04926 -0.03924,0.02667 -0.08244,0.04702 -0.123652,0.07053 -0.711197,0.469859 0.266849,-0.182162 1.356281,-0.743478 0.08444,-0.04351 -0.149884,0.117144 -0.219215,0.182078 -0.239825,0.224613 -0.437318,0.487723 -0.633645,0.749405 -0.248805,0.381976 -0.522632,0.739165 -0.851039,1.055139 -0.212719,0.194228 -0.345531,0.254343 -0.219931,0.547915 0.685591,0.611856 1.52421,1.031216 2.322523,1.474522 1.780067,0.891348 3.714811,1.399723 5.634944,1.890038 0.764402,0.214277 1.554569,0.304576 2.330787,0.45888 0.278021,0.07005 0.153754,0.04471 0.371306,0.08302 0.645036,-0.286495 0.477373,-0.214058 -1.653716,0.905985 -0.04023,0.02114 0.07351,-0.05417 0.105062,-0.08688 0.04919,-0.051 0.09267,-0.107313 0.136175,-0.163244 0.09724,-0.125007 0.42911,-0.581474 0.495773,-0.672659 0.808695,-1.112711 1.75319,-2.12586 2.802702,-3.015562 0.242165,-0.205291 0.498525,-0.393226 0.747787,-0.589838 1.313056,-0.891539 0.91149,-0.645569 3.0124,-1.808681 0.58625,-0.324562 1.230321,-0.588912 1.892616,-0.696436 0.57227,0.0058 0.664786,0.373089 0.725992,0.862336 0.07636,0.685694 0.101272,1.375536 0.125439,2.064603 0.003,0.554842 0.02343,1.105928 0.09488,1.656148 0.01215,0.05152 0.01983,0.104297 0.03644,0.154552 0.03479,0.105236 0.07883,0.15438 0.09685,0.131345 0.02076,-0.02654 0.04363,-0.115175 0.01346,-0.100169 -1.597525,0.794782 -2.101161,1.438173 -1.565844,0.7909 0.296853,-0.50556 0.54041,-1.043652 0.900332,-1.510263 0.120835,-0.156654 0.254478,-0.302998 0.381717,-0.454497 0.424064,-0.444462 0.537654,-0.591447 1.027126,-0.985451 0.306594,-0.246794 0.999159,-0.728391 1.329447,-0.924404 1.83767,-1.090586 1.74062,-1.028181 3.02178,-1.697792 0.20533,-0.100258 0.40917,-0.203626 0.61599,-0.300773 0.38685,-0.181713 0.79013,-0.333253 1.1708,-0.528211 0.0515,-0.02635 0.19974,-0.116464 0.14966,-0.08761 -0.56464,0.325314 -1.12888,0.65132 -1.69332,0.97698 0.0156,0.0449 0.051,0.08732 0.047,0.134687 -0.005,0.06117 -0.11023,0.01972 -0.22745,0.0048 -0.38423,-0.04882 -0.76517,-0.111764 -1.1488,-0.167618 -1.119387,-0.115634 -2.255069,-0.254842 -3.380818,-0.135962 -0.212197,0.02241 -0.42164,0.06587 -0.63246,0.09881 -0.179486,0.05663 -0.362429,0.103288 -0.538459,0.16989 -0.162203,0.06137 -0.622633,0.303568 -0.474508,0.213373 0.415455,-0.252973 0.834121,-0.505723 1.278708,-0.703056 0.128549,-0.05706 -0.220145,0.176216 -0.31842,0.276826 -0.239145,0.244826 -0.249654,0.310333 -0.404248,0.598612 -0.238807,0.635395 -0.007,1.08059 0.356937,1.60127 0.603614,0.704598 1.271057,1.355746 1.928208,2.010915 0.51348,0.503161 1.038852,0.997383 1.587952,1.461835 0.120048,0.07764 0.229748,0.167196 0.350248,0.24395 0,0 -1.722537,1.09815 -1.722537,1.09815 l 0,0 c -0.118312,-0.089 -0.232394,-0.182714 -0.345422,-0.278393 -0.510788,-0.499843 -1.003883,-1.017825 -1.515711,-1.516763 -0.668593,-0.665495 -1.368199,-1.303648 -1.992467,-2.011188 -0.408994,-0.568886 -0.677531,-1.083253 -0.449997,-1.793153 0.05184,-0.113367 0.09238,-0.232622 0.155526,-0.3401 0.101107,-0.172077 0.385568,-0.537719 0.552488,-0.644444 1.062327,-0.67923 1.901242,-1.271604 3.075754,-1.527263 0.209617,-0.02508 0.418351,-0.05917 0.628852,-0.07523 1.147461,-0.08753 2.300684,0.04229 3.443404,0.132095 0.11768,0.0129 0.75872,0.08438 0.91667,0.09757 0.13094,0.01094 0.50844,-0.02677 0.62944,0.09201 0.0512,0.05022 0.0716,0.124237 0.10737,0.186355 -0.59992,0.355819 -1.19715,0.716209 -1.79976,1.067458 -0.11559,0.06738 -0.24556,0.106351 -0.36891,0.158173 -0.48443,0.203515 -0.96834,0.409191 -1.43456,0.652657 -0.227956,0.11973 -0.873976,0.53285 -0.683867,0.359191 0.240535,-0.21972 0.532429,-0.391231 0.839147,-0.501037 0.25733,-0.09212 -0.461313,0.293421 -0.687564,0.446771 -0.474402,0.321542 -0.759224,0.522502 -1.173593,0.913239 -0.158792,0.149736 -0.30171,0.315458 -0.452566,0.473188 -0.120305,0.142203 -0.246223,0.279842 -0.360917,0.426609 -0.348508,0.445965 -0.592366,0.960865 -0.834683,1.468996 -0.399044,0.885088 -2.040954,2.018295 -2.224049,0.779959 -0.05656,-0.562912 -0.07,-1.124847 -0.065,-1.690685 -0.01681,-0.678879 -0.0422,-1.359424 -0.14713,-2.031472 -0.05242,-0.400373 -0.06815,-0.63199 -0.5377,-0.598474 -0.404782,0.07696 -0.771627,0.205694 -1.149095,0.37555 -0.200991,0.09044 -0.763252,0.430387 -0.595418,0.287527 0.03144,-0.02676 2.131675,-1.287777 0.119587,-0.03233 -0.252796,0.193024 -0.514004,0.375501 -0.758388,0.579071 -1.019904,0.849573 -1.936978,1.83195 -2.691614,2.923801 -0.539047,0.797089 -1.307497,2.318531 -2.5507,1.950432 -0.821499,-0.28801 -1.690869,-0.412383 -2.522333,-0.667717 -1.926495,-0.538814 -3.876009,-1.048464 -5.69297,-1.901657 -0.600495,-0.3065 -1.208044,-0.602677 -1.789323,-0.945115 -0.08257,-0.04864 -0.49206,-0.301081 -0.594876,-0.386802 -0.05608,-0.04676 -0.09949,-0.106899 -0.149238,-0.160349 -0.168306,-0.333844 -0.191129,-0.523523 0.103601,-0.785378 0.369081,-0.282989 0.660068,-0.64189 0.912489,-1.031224 0.796355,-1.108535 1.427542,-1.682271 2.939212,-2.204603 0.06573,8.88e-4 0.134705,-0.01773 0.197201,0.0027 0.445743,0.145455 0.08666,0.911893 0.0088,1.152897 -0.571693,1.313468 -1.29525,2.556829 -2.195082,3.674884 -0.273375,0.317004 -0.830245,1.002878 -1.179656,1.246949 -0.73385,0.51261 -1.508867,0.964026 -2.27615,1.425091 -0.654139,0.393076 -1.350128,0.663458 -2.114744,0.727299 -0.219102,-0.0055 -0.439301,0.006 -0.657304,-0.01656 -1.132749,-0.117383 -2.20725,-0.596531 -3.215809,-1.092991 -0.909237,-0.553575 -1.781609,-1.177109 -2.487008,-1.98321 -0.391352,-0.47247 -0.760032,-0.963947 -1.097683,-1.476475 0,0 1.77385,-1.028115 1.77385,-1.028115 z"
         id="path3629"
         style="opacity:0.97044337;fill:url(#linearGradient3716);fill-opacity:1;stroke:none" />
      <path
         d="m 36.365762,106.46858 c 0.05226,0.0164 0.106006,0.0287 0.156782,0.0492 0.37403,0.15129 0.741313,0.31285 1.12497,0.44255 0.255977,0.0865 1.29006,0.39478 1.496002,0.45672 1.924953,0.55257 3.854652,1.10988 5.708522,1.87229 1.010183,0.4479 1.713287,1.03989 2.428994,1.85283 0.01542,0.0161 0.219895,0.24495 0.280659,0.26216 0.02776,0.008 0.102422,-0.0532 0.07676,-0.04 -0.551519,0.28339 -1.072612,0.63594 -1.654336,0.8506 -0.11047,0.0408 0.128269,-0.19848 0.17729,-0.30555 0.07668,-0.16746 0.132461,-0.34373 0.198691,-0.51559 0.554409,-1.68592 0.971959,-3.41243 1.433906,-5.12496 0.232368,-1.10929 0.638148,-2.30198 0.631961,-3.4463 -0.01411,-0.071 -0.02118,-0.19785 -0.08176,-0.26149 -0.0471,-0.0495 -0.213343,0.1408 -0.14901,0.10583 0.553227,-0.30069 1.095839,-0.62052 1.643759,-0.93078 -0.3524,0.21711 -0.670896,0.48379 -0.987442,0.7491 -0.262358,0.25182 -0.583098,0.53548 -0.674619,0.90567 -0.01834,0.0742 -0.01594,0.15203 -0.02391,0.22804 0.01777,0.0862 0.01947,0.17743 0.05331,0.25872 0.224636,0.5396 0.791167,0.992 1.225913,1.33817 0.747918,0.59553 1.151974,0.82305 1.98097,1.35689 1.872112,1.14119 3.873725,2.04183 5.951543,2.73615 1.286489,0.42989 2.016234,0.60783 3.318881,0.96092 2.169683,0.62347 4.395835,0.97111 6.626971,1.276 0.140638,0.0201 0.281429,0.039 0.421913,0.0601 0.08749,0.0131 0.174083,0.0324 0.261966,0.0426 0.04735,0.005 0.09546,0.008 0.142946,0.004 0.0133,-0.001 0.04595,-0.0272 0.03478,-0.0199 -1.769611,1.15836 -1.167976,1.52594 -1.824866,1.08585 -0.305191,-0.16018 -0.620191,-0.29342 -0.915242,-0.47346 -0.491449,-0.34987 -0.493109,-0.77368 -0.371578,-1.32122 0.31976,-0.83757 0.965757,-1.35229 1.707064,-1.805 2.72254,-1.53595 1.248659,-0.80516 2.466813,-1.33734 0.266544,-0.11645 0.571754,-0.29229 0.873417,-0.30038 0.0654,-0.002 0.128793,0.0231 0.19319,0.0347 0.05026,0.0393 0.108954,0.0698 0.150771,0.11802 0.279523,0.32228 0.285497,0.85016 0.319284,1.24813 0.02115,0.72202 0.02874,1.44214 0.0996,2.16158 0.09287,0.59488 0.307859,1.15438 0.726995,1.5915 0.228354,0.18205 0.590851,0.47678 0.908838,0.32272 0.05896,-0.0286 0.103003,-0.081 0.154505,-0.12148 -2.640293,1.53787 -1.613288,1.14037 -1.233029,0.38689 0.189274,-0.37505 0.272199,-0.77249 0.357161,-1.18003 0.181704,-1.20132 0.188674,-2.4212 0.181179,-3.63363 0.03956,-0.59235 -0.139552,-1.22368 0.06459,-1.79562 0.976421,-1.20054 1.731576,-1.32826 2.90207,-1.14296 0.771045,0.12206 0.686826,0.1153 1.528287,0.28571 1.991136,0.48466 3.928127,1.1864 5.768173,2.08936 0.372198,0.18265 0.73371,0.38631 1.100565,0.57946 0.814183,0.48448 1.640671,0.96176 2.394113,1.53987 0.208658,0.1601 0.613788,0.50565 0.794687,0.72817 0.07736,0.0952 0.13083,0.20748 0.196246,0.31122 0.0247,0.10153 0.06883,0.20024 0.0741,0.3046 0.0277,0.5481 -0.533899,0.96697 -0.898125,1.2834 -0.446212,0.37031 -0.957929,0.68998 -1.266574,1.19253 -0.192774,0.49884 0.222564,0.85942 0.582847,1.13722 0.815424,0.54564 1.811634,0.58929 2.760828,0.63361 2.096211,-0.002 4.103782,-0.69858 6.051148,-1.40542 0.551353,-0.24219 1.682915,-0.70511 2.185846,-1.0598 0.181872,-0.12826 -0.679889,0.46742 -0.617541,0.25378 0.08984,-0.30785 0.496648,-0.40698 0.727279,-0.62981 0.525778,-0.50799 0.57226,-0.63224 0.970108,-1.20801 0.32479,-0.60315 0.747183,-1.38857 0.391513,-2.07665 -0.04202,-0.0813 -0.105045,-0.14985 -0.157567,-0.22478 -0.300104,-0.3599 -0.742749,-0.46593 -1.150615,-0.64672 -0.03246,-0.0251 -0.07084,-0.044 -0.09738,-0.0752 -0.45808,-0.53957 1.470006,-1.10119 1.884996,-1.2974 0.07789,-0.0368 0.172173,-0.007 0.258316,-0.009 0.127778,-0.002 0.255594,-0.002 0.383392,-0.003 1.227792,0.0508 2.463782,0.19791 3.650102,0.52957 0.27148,0.0759 0.53675,0.1725 0.80513,0.25875 0.94433,0.37777 1.87644,0.89752 2.53676,1.69239 0.0916,0.1103 0.16625,0.23369 0.24937,0.35053 0.45143,0.71928 0.41652,1.44829 0.32455,2.25734 -0.0472,0.54739 -0.29458,1.07835 -0.27338,1.63125 0.009,0.0253 0.0162,0.11681 0.0765,0.10286 0.0595,-0.0138 0.10269,-0.0659 0.15368,-0.0994 0.0472,-0.031 0.18857,-0.12391 0.13934,-0.0963 -0.5161,0.28966 -1.02701,0.58845 -1.54051,0.88268 1.11812,-0.66251 2.21441,-1.39478 3.44847,-1.82282 0.65235,-0.22137 1.3122,-0.41508 1.99028,-0.53865 0.25214,-0.0582 0.49655,-0.0534 0.74985,-0.0187 0,0 -1.65793,1.17923 -1.65793,1.17923 l 0,0 c -0.23373,-0.0147 -0.46357,0.002 -0.69382,0.0488 -0.66279,0.12511 -1.30885,0.31672 -1.94335,0.54519 -0.33761,0.13179 -0.66249,0.2746 -0.98327,0.44384 -0.0927,0.0489 -0.36614,0.20441 -0.27575,0.1513 1.8309,-1.07589 1.89096,-1.11669 1.24637,-0.71367 -0.64074,0.37046 -1.2768,0.74915 -1.92223,1.11137 -0.14301,0.0803 -0.31754,0.11712 -0.45545,0.007 -0.0997,-0.0798 -0.0999,-0.13613 -0.1396,-0.25172 -0.0271,-0.57727 0.24684,-1.12135 0.31563,-1.68929 0.0954,-0.73826 0.14647,-1.4682 -0.25129,-2.13445 -0.0749,-0.111 -0.14188,-0.22783 -0.22478,-0.33301 -0.61458,-0.77983 -1.4912,-1.29797 -2.39776,-1.66599 -0.26284,-0.084 -0.52224,-0.17972 -0.78851,-0.25215 -1.209352,-0.32892 -2.476411,-0.43846 -3.725864,-0.41122 -0.135397,0.011 -0.271197,0.0178 -0.40619,0.0329 -0.08903,0.01 -0.339346,0.0931 -0.265403,0.0425 0.512539,-0.35068 1.089939,-0.60033 1.599526,-0.95528 0.0084,-0.006 -0.259748,-0.15384 -0.06862,-0.0242 0.420915,0.21434 0.871002,0.36702 1.170247,0.76175 0.05893,0.0905 0.129904,0.17429 0.176804,0.27161 0.372851,0.77363 -0.03691,1.61035 -0.413643,2.29021 -0.14273,0.21 -0.270429,0.43105 -0.42819,0.63001 -1.027412,1.29573 -2.283075,1.94327 -3.734494,2.79945 -0.341772,0.20161 -0.698355,0.37782 -1.057159,0.54727 -0.373548,0.17642 -0.758995,0.32645 -1.138492,0.48968 -1.999446,0.71845 -4.055993,1.42093 -6.204662,1.43303 -1.010939,-0.0332 -2.05338,-0.079 -2.914253,-0.67492 -0.437147,-0.34097 -0.876143,-0.7663 -0.740758,-1.37115 0.03372,-0.0712 0.0599,-0.14653 0.101147,-0.21367 0.276851,-0.45066 0.777001,-0.72641 1.168631,-1.06125 0.270084,-0.22538 0.919221,-0.71531 0.969549,-1.08775 0.01136,-0.0841 -0.01736,-0.1688 -0.02604,-0.2532 -0.04934,-0.0964 -0.08627,-0.20031 -0.148018,-0.28932 -0.159286,-0.22961 -0.512553,-0.57218 -0.707191,-0.7412 -0.698163,-0.60625 -1.480589,-1.10784 -2.268649,-1.58668 -0.360183,-0.1934 -0.714132,-0.39888 -1.080549,-0.58018 -1.847684,-0.91424 -3.810807,-1.5922 -5.833605,-1.99015 -0.685104,-0.10371 -1.413035,-0.26047 -2.112472,-0.22689 -0.111125,0.005 -0.418935,0.12206 -0.328909,0.0567 0.956145,-0.69423 2.123513,-1.17404 1.364761,-0.85635 -0.03165,0.0407 -0.07306,0.0755 -0.09494,0.12214 -0.184848,0.39439 -0.0345,1.20706 -0.107636,1.63442 -0.02853,1.21747 -0.02565,2.43802 -0.141126,3.65133 -0.08465,0.5243 -0.182073,1.04281 -0.43912,1.51479 -0.04271,0.0784 -0.06934,0.17589 -0.142796,0.22667 -0.605914,0.41883 -1.250356,0.77898 -1.875534,1.16847 -0.06878,0.0196 -0.135231,0.0512 -0.206337,0.0589 -0.384766,0.0417 -0.731699,-0.24699 -0.997697,-0.48076 -0.430668,-0.49972 -0.646252,-1.07069 -0.756087,-1.71978 -0.07829,-0.71629 -0.09253,-1.43471 -0.121716,-2.15409 -0.02375,-0.27454 -0.03802,-0.86761 -0.263737,-1.06934 -0.0241,-0.0215 -0.05922,-0.0259 -0.08882,-0.0389 -0.755983,0.0288 -2.75592,1.32953 -0.06025,-0.27621 -0.725238,0.40698 -1.369898,0.86169 -1.724743,1.64367 -0.136945,0.44992 -0.164163,0.8021 0.266964,1.08224 0.303501,0.17266 0.627832,0.29894 0.937137,0.46039 0.696083,0.37232 0.158581,0.0478 -1.568008,1.24287 -0.0095,0.007 -0.01736,-0.0162 -0.02825,-0.0199 -0.04118,-0.0143 -0.08431,-0.0222 -0.126339,-0.0338 -0.07439,-0.0205 -0.148047,-0.0437 -0.222924,-0.0623 -0.125543,-0.0312 -0.252124,-0.058 -0.378185,-0.087 -2.142619,-0.43088 -4.291563,-0.83868 -6.389703,-1.46272 -1.256477,-0.35239 -2.069466,-0.56419 -3.313162,-0.97958 -2.105718,-0.7033 -4.136417,-1.60369 -6.067062,-2.7011 -0.866323,-0.51227 -1.302948,-0.74351 -2.100399,-1.30948 -0.49987,-0.35477 -1.134035,-0.79238 -1.423135,-1.36399 -0.04791,-0.0947 -0.05989,-0.20367 -0.08983,-0.3055 -7.49e-4,-0.0917 -0.01279,-0.18398 -0.0022,-0.27507 0.04655,-0.40216 0.358478,-0.73169 0.629846,-1.00405 0.298199,-0.27688 0.621368,-0.52863 0.949265,-0.76958 0.623258,-0.35744 1.237141,-0.73175 1.869775,-1.07232 0.03718,-0.02 0.08567,-0.0126 0.126644,-0.002 0.2239,0.0558 0.255785,0.33996 0.27543,0.52073 -0.0653,1.20074 -0.534058,2.39364 -0.771614,3.56563 -0.460604,1.69166 -0.888434,3.39187 -1.33084,5.08831 -0.04828,0.17018 -0.09447,0.34095 -0.144832,0.51052 -0.03408,0.11475 -0.01183,0.27171 -0.108479,0.34233 -1.483617,1.08401 -1.566067,1.63086 -2.284419,0.74234 -0.637218,-0.82649 -1.291805,-1.39598 -2.247907,-1.85852 -0.260141,-0.11397 -0.51668,-0.23654 -0.780423,-0.34191 -1.59208,-0.63606 -3.261479,-1.06579 -4.913183,-1.51224 -0.216432,-0.0569 -1.305375,-0.34132 -1.571549,-0.41701 -0.401915,-0.11427 -0.797925,-0.26545 -1.203423,-0.36726 -0.05616,-0.0141 -0.114109,-0.0198 -0.171164,-0.0296 0,0 1.68487,-1.17403 1.68487,-1.17403 z"
         id="path3631"
         style="opacity:0.97044337;fill:url(#linearGradient3718);fill-opacity:1;stroke:none" />
    </g>
    <path
       style="fill:none;stroke:#ff0000;stroke-width:16.60000038000000089;stroke-linecap:butt;stroke-linejoin:miter;stroke-miterlimit:4;stroke-opacity:1;stroke-dasharray:none;filter:url(#filter4647)"
       d="M 16.807599,32.882911 C 146.6038,176.58584 197.1316,171.95027 197.1316,171.95027"
       id="path3724"
       sodipodi:nodetypes="cc" />
    <path
       style="fill:none;stroke:#ff0000;stroke-width:13.30000019000000044;stroke-linecap:butt;stroke-linejoin:miter;stroke-miterlimit:4;stroke-opacity:1;stroke-dasharray:none;marker-start:none;filter:url(#filter4643)"
       d="m 200.3765,12.486366 c 0,0 -187.277364,117.743694 -189.595153,161.318134"
       id="path3726"
       sodipodi:nodetypes="cc" />
    <rect
       style="opacity:0.71921183;fill:#080087;fill-opacity:1;stroke:#000000;stroke-width:3.29251504;stroke-miterlimit:4;stroke-opacity:1;stroke-dasharray:none"
       id="rect3687"
       width="194.98206"
       height="107.20435"
       x="52.743614"
       y="139.60475" />
    <text
       xml:space="preserve"
       style="font-size:43.90019989000000322px;font-style:normal;font-variant:normal;font-weight:bold;font-stretch:normal;fill:#ffd100;fill-opacity:1;stroke:none;font-family:DejaVu Sans Mono;-inkscape-font-specification:'10.15 Saturday Night BRK Bold';"
       x="58.797562"
       y="231.95526"
       id="text3689"><tspan
         sodipodi:role="line"
         id="tspan3691"
         x="58.797562"
         y="231.95526">kvigall</tspan></text>
    <text
       xml:space="preserve"
       style="font-size:5px;font-style:normal;font-variant:normal;font-weight:bold;font-stretch:normal;fill:#000000;fill-opacity:1;stroke:none;font-family:Inconsolata;-inkscape-font-specification:Inconsolata Medium"
       x="212.30949"
       y="117.85976"
       id="text4583"><tspan
         sodipodi:role="line"
         id="tspan4585"
         x="212.30949"
         y="117.85976" /></text>
    <rect
       style="fill:url(#linearGradient4607);fill-opacity:1;stroke:#efff00;stroke-width:1.09750497;stroke-linecap:butt;stroke-opacity:1"
       id="rect4587"
       width="185.18761"
       height="59.524563"
       x="56.897316"
       y="144.4315" />
    <rect
       style="opacity:0.88012618;fill:#00ffff;fill-opacity:1;stroke:none"
       id="rect4623"
       width="36.12175"
       height="21.9501"
       x="62.173683"
       y="149.38789" />
    <rect
       y="149.38789"
       x="101.30627"
       height="21.9501"
       width="54.43697"
       id="rect4625"
       style="opacity:0.88012618;fill:#00ff00;fill-opacity:1;stroke:none" />
    <rect
       style="opacity:0.88012618;fill:#ff5400;fill-opacity:1;stroke:none"
       id="rect4627"
       width="30.525421"
       height="21.9501"
       x="158.75414"
       y="149.38789" />
    <rect
       y="149.38789"
       x="192.3192"
       height="21.9501"
       width="44.261826"
       id="rect4629"
       style="opacity:0.88012618;fill:#002aff;fill-opacity:1;stroke:none" />
    <rect
       y="175.72801"
       x="200.45932"
       height="21.9501"
       width="36.12175"
       id="rect4631"
       style="opacity:0.88012618;fill:#f0e68c;fill-opacity:1;stroke:none" />
    <rect
       style="opacity:0.88012618;fill:#ef2929;fill-opacity:1;stroke:none"
       id="rect4633"
       width="54.43697"
       height="21.9501"
       x="143.01146"
       y="175.72801" />
    <rect
       y="175.72801"
       x="110.46391"
       height="21.9501"
       width="30.525421"
       id="rect4635"
       style="opacity:0.88012618;fill:#3c880c;fill-opacity:1;stroke:none" />
    <rect
       style="opacity:0.88012618;fill:#dcb830;fill-opacity:1;stroke:none"
       id="rect4637"
       width="44.261826"
       height="21.9501"
       x="62.81361"
       y="175.72801" />
  </g>
</svg>
