<?xml version="1.0" encoding="UTF-8" standalone="no"?>
<!-- Created with Inkscape (http://www.inkscape.org/) -->

<svg
   xmlns:dc="http://purl.org/dc/elements/1.1/"
   xmlns:cc="http://creativecommons.org/ns#"
   xmlns:rdf="http://www.w3.org/1999/02/22-rdf-syntax-ns#"
   xmlns:svg="http://www.w3.org/2000/svg"
   xmlns="http://www.w3.org/2000/svg"
   xmlns:sodipodi="http://sodipodi.sourceforge.net/DTD/sodipodi-0.dtd"
   xmlns:inkscape="http://www.inkscape.org/namespaces/inkscape"
   version="1.0"
   width="256"
   height="256"
   id="svg2"
   inkscape:version="0.47 r22583"
   sodipodi:docname="Black_Paw.svg">
  <metadata
     id="metadata2903">
    <rdf:RDF>
      <cc:Work
         rdf:about="">
        <dc:format>image/svg+xml</dc:format>
        <dc:type
           rdf:resource="http://purl.org/dc/dcmitype/StillImage" />
        <dc:title></dc:title>
      </cc:Work>
    </rdf:RDF>
  </metadata>
  <sodipodi:namedview
     pagecolor="#ffffff"
     bordercolor="#666666"
     borderopacity="1"
     objecttolerance="10"
     gridtolerance="10"
     guidetolerance="10"
     inkscape:pageopacity="0"
     inkscape:pageshadow="2"
     inkscape:window-width="1278"
     inkscape:window-height="1022"
     id="namedview2901"
     showgrid="false"
     inkscape:zoom="3.0976562"
     inkscape:cx="128"
     inkscape:cy="128"
     inkscape:window-x="1"
     inkscape:window-y="1"
     inkscape:window-maximized="0"
     inkscape:current-layer="svg2" />
  <defs
     id="defs4">
    <inkscape:perspective
       sodipodi:type="inkscape:persp3d"
       inkscape:vp_x="0 : 199.51877 : 1"
       inkscape:vp_y="0 : 1000 : 0"
       inkscape:vp_z="425.82123 : 199.51877 : 1"
       inkscape:persp3d-origin="212.91061 : 133.01251 : 1"
       id="perspective2905" />
  </defs>
  <g
     id="g2925"
     transform="matrix(0.5743698,-0.03105989,0.03105989,0.5743698,-426.46051,-209.56166)"
     style="fill:#6d8131;fill-opacity:1;stroke:none">
    <path
       sodipodi:nodetypes="caaaaaaaaaaaaa"
       id="path2927"
       style="fill:#6d8131;fill-opacity:1;fill-rule:evenodd;stroke:none"
       d="m 943.04411,582.67355 c 23.476,3.37112 45.92289,15.81541 64.06199,31.24544 12.461,10.59985 16.9792,28.45371 28.4321,40.1568 15.894,16.24105 45.4398,19.66038 54.7074,40.49246 12.3328,27.72229 10.9004,67.50507 -8.4435,90.78195 -19.8065,23.83359 -58.3679,22.85965 -89.11659,24.68581 -20.57482,1.22194 -40.53007,-9.81364 -61.13521,-9.34573 -20.11779,0.45682 -39.16453,13.44711 -59.22325,11.82494 -19.02886,-1.53889 -39.38874,-7.34129 -53.70125,-20.10428 -16.22637,-14.46965 -31.4094,-36.38767 -29.94855,-58.20446 2.15056,-32.11729 33.47129,-55.27612 55.10919,-78.90428 9.23898,-10.08878 21.70981,-16.68887 31.42047,-26.31483 12.63663,-12.52639 19.2463,-31.86501 34.66616,-40.65115 9.76755,-5.5655 22.06888,-7.25693 33.17104,-5.66267 z" />
    <path
       sodipodi:nodetypes="caaaaaaaa"
       id="path2929"
       style="fill:#6d8131;fill-opacity:1;fill-rule:evenodd;stroke:none"
       d="m 732.75121,547.66498 c 5.41672,-17.10368 21.73238,-32.16813 38.97729,-37.11684 13.15985,-3.77643 28.91117,0.55065 40.23749,8.24205 21.31976,14.47767 33.94698,40.31819 42.35302,64.6795 4.04178,11.71337 6.84678,25.2137 3.14767,37.03976 -4.21859,13.48684 -14.11132,26.91825 -27.02046,32.66676 -17.69504,7.87969 -40.47,5.68204 -58.05972,-2.43004 -10.82637,-4.99294 -18.91291,-15.59275 -24.33797,-26.20917 -11.88849,-23.26487 -23.18541,-51.96482 -15.29732,-76.87202 z" />
    <path
       sodipodi:nodetypes="caaaaaaa"
       id="path2931"
       style="fill:#6d8131;fill-opacity:1;fill-rule:evenodd;stroke:none"
       d="m 895.97932,422.81924 c 18.56691,2.90707 34.43974,19.4524 43.42283,35.95952 9.44329,17.35281 9.82756,39.31242 6.95443,58.85829 -2.66973,18.16221 -5.88894,41.58768 -21.92741,50.51857 -18.35639,10.22161 -45.5352,3.45726 -62.36867,-9.11542 -17.71411,-13.23041 -26.26772,-38.15516 -27.82602,-60.20975 -1.42992,-20.23761 3.81925,-43.31955 17.5112,-58.29071 10.71956,-11.72107 28.54111,-20.17752 44.23364,-17.7205 z" />
    <path
       sodipodi:nodetypes="caaaaaa"
       id="path2933"
       style="fill:#6d8131;fill-opacity:1;fill-rule:evenodd;stroke:none"
       d="m 1044.4738,422.35739 c 19.4204,5.62389 29.0924,31.53952 31.9565,51.55395 3.0804,21.52666 -5.9498,44.40122 -17.4405,62.86342 -10.8397,17.41639 -25.4594,39.81481 -45.9422,40.94849 -20.38347,1.1282 -41.4635,-16.88252 -49.93723,-35.45541 -11.73231,-25.71509 -7.90582,-61.19393 8.23964,-84.39385 15.47859,-22.2417 47.09569,-43.05404 73.12379,-35.5166 z" />
    <path
       sodipodi:nodetypes="caaaaaaaaa"
       id="path2935"
       style="fill:#6d8131;fill-opacity:1;fill-rule:evenodd;stroke:none"
       d="m 1124.6319,522.71927 c 13.9288,8.93847 26.4084,23.12169 30.538,39.14833 3.8938,15.11162 -0.9242,32.02023 -7.3703,46.23188 -9.4248,20.7788 -22.6697,43.92561 -43.7581,52.63552 -14.5174,5.99596 -32.9635,2.80171 -46.9133,-4.41714 -5.1495,-2.66482 -9.2217,-7.79585 -11.333,-13.19597 -7.0954,-18.14778 -7.1902,-39.61208 -2.093,-58.41912 4.9085,-18.11099 15.745,-35.51184 30.1471,-47.54014 11.3657,-9.49237 26.3914,-15.59156 41.1562,-16.72517 3.288,-0.25245 6.851,0.50077 9.6264,2.28181 z" />
  </g>
  <text
     xml:space="preserve"
     style="font-size:44.08574677px;font-style:normal;font-variant:normal;font-weight:normal;font-stretch:normal;fill:#fbe3ac;fill-opacity:1;stroke:#000000;stroke-width:3.69113708;stroke-linecap:round;stroke-linejoin:round;stroke-miterlimit:4;stroke-opacity:1;stroke-dasharray:22.14682191, 7.38227397;stroke-dashoffset:0;font-family:cmr10;-inkscape-font-specification:cmr10"
     x="28.853203"
     y="246.5276"
     id="text3734"><tspan
       sodipodi:role="line"
       id="tspan3736"
       x="28.853203"
       y="246.5276"
       style="font-style:normal;font-variant:normal;font-weight:normal;font-stretch:normal;fill:#fbe3ac;fill-opacity:1;stroke:#000000;stroke-width:3.69113708;stroke-linecap:round;stroke-linejoin:round;stroke-miterlimit:4;stroke-opacity:1;stroke-dasharray:22.14682191, 7.38227397;stroke-dashoffset:0;font-family:Fully Completely BRK;-inkscape-font-specification:Fully Completely BRK">sadbipws</tspan></text>
  <g
     style="opacity:0.73451329;fill:#341a13;fill-opacity:1;stroke:none"
     transform="matrix(0.57308701,0.04936245,-0.04936245,0.57308701,-390.05441,-278.65533)"
     id="g3709">
    <path
       d="m 943.04411,582.67355 c 23.476,3.37112 45.92289,15.81541 64.06199,31.24544 12.461,10.59985 16.9792,28.45371 28.4321,40.1568 15.894,16.24105 45.4398,19.66038 54.7074,40.49246 12.3328,27.72229 10.9004,67.50507 -8.4435,90.78195 -19.8065,23.83359 -58.3679,22.85965 -89.11659,24.68581 -20.57482,1.22194 -40.53007,-9.81364 -61.13521,-9.34573 -20.11779,0.45682 -39.16453,13.44711 -59.22325,11.82494 -19.02886,-1.53889 -39.38874,-7.34129 -53.70125,-20.10428 -16.22637,-14.46965 -31.4094,-36.38767 -29.94855,-58.20446 2.15056,-32.11729 33.47129,-55.27612 55.10919,-78.90428 9.23898,-10.08878 21.70981,-16.68887 31.42047,-26.31483 12.63663,-12.52639 19.2463,-31.86501 34.66616,-40.65115 9.76755,-5.5655 22.06888,-7.25693 33.17104,-5.66267 z"
       style="fill:#341a13;fill-opacity:1;fill-rule:evenodd;stroke:none"
       id="path3711"
       sodipodi:nodetypes="caaaaaaaaaaaaa" />
    <path
       d="m 732.75121,547.66498 c 5.41672,-17.10368 21.73238,-32.16813 38.97729,-37.11684 13.15985,-3.77643 28.91117,0.55065 40.23749,8.24205 21.31976,14.47767 33.94698,40.31819 42.35302,64.6795 4.04178,11.71337 6.84678,25.2137 3.14767,37.03976 -4.21859,13.48684 -14.11132,26.91825 -27.02046,32.66676 -17.69504,7.87969 -40.47,5.68204 -58.05972,-2.43004 -10.82637,-4.99294 -18.91291,-15.59275 -24.33797,-26.20917 -11.88849,-23.26487 -23.18541,-51.96482 -15.29732,-76.87202 z"
       style="fill:#341a13;fill-opacity:1;fill-rule:evenodd;stroke:none"
       id="path3713"
       sodipodi:nodetypes="caaaaaaaa" />
    <path
       d="m 895.97932,422.81924 c 18.56691,2.90707 34.43974,19.4524 43.42283,35.95952 9.44329,17.35281 9.82756,39.31242 6.95443,58.85829 -2.66973,18.16221 -5.88894,41.58768 -21.92741,50.51857 -18.35639,10.22161 -45.5352,3.45726 -62.36867,-9.11542 -17.71411,-13.23041 -26.26772,-38.15516 -27.82602,-60.20975 -1.42992,-20.23761 3.81925,-43.31955 17.5112,-58.29071 10.71956,-11.72107 28.54111,-20.17752 44.23364,-17.7205 z"
       style="fill:#341a13;fill-opacity:1;fill-rule:evenodd;stroke:none"
       id="path3715"
       sodipodi:nodetypes="caaaaaaa" />
    <path
       d="m 1044.4738,422.35739 c 19.4204,5.62389 29.0924,31.53952 31.9565,51.55395 3.0804,21.52666 -5.9498,44.40122 -17.4405,62.86342 -10.8397,17.41639 -25.4594,39.81481 -45.9422,40.94849 -20.38347,1.1282 -41.4635,-16.88252 -49.93723,-35.45541 -11.73231,-25.71509 -7.90582,-61.19393 8.23964,-84.39385 15.47859,-22.2417 47.09569,-43.05404 73.12379,-35.5166 z"
       style="fill:#341a13;fill-opacity:1;fill-rule:evenodd;stroke:none"
       id="path3717"
       sodipodi:nodetypes="caaaaaa" />
    <path
       d="m 1124.6319,522.71927 c 13.9288,8.93847 26.4084,23.12169 30.538,39.14833 3.8938,15.11162 -0.9242,32.02023 -7.3703,46.23188 -9.4248,20.7788 -22.6697,43.92561 -43.7581,52.63552 -14.5174,5.99596 -32.9635,2.80171 -46.9133,-4.41714 -5.1495,-2.66482 -9.2217,-7.79585 -11.333,-13.19597 -7.0954,-18.14778 -7.1902,-39.61208 -2.093,-58.41912 4.9085,-18.11099 15.745,-35.51184 30.1471,-47.54014 11.3657,-9.49237 26.3914,-15.59156 41.1562,-16.72517 3.288,-0.25245 6.851,0.50077 9.6264,2.28181 z"
       style="fill:#341a13;fill-opacity:1;fill-rule:evenodd;stroke:none"
       id="path3719"
       sodipodi:nodetypes="caaaaaaaaa" />
  </g>
  <path
     style="opacity:0.6504425;fill:#acfafb;fill-opacity:1;stroke:none"
     d="m 54.224237,123.29888 c -4.068646,16.58341 -11.404801,33.41662 -20.921205,44.63192 -23.7505722,27.9906 -18.824762,65.239 4.18424,71.13208 18.868847,4.8327 32.177568,-18.40939 31.049959,-49.50147 -1.043003,-22.68901 -8.08123,-44.58904 -14.312994,-66.26253 z"
     id="path3726"
     sodipodi:nodetypes="csacc" />
  <path
     sodipodi:nodetypes="csasc"
     id="path3728"
     d="m 95.426198,77.57366 c -7.681743,47.27286 -6.18298,21.705501 -11.777158,58.14786 -5.075333,33.06239 -0.752243,46.17167 16.105066,48.40489 18.411744,2.43914 42.407154,-19.65151 30.749424,-46.46444 C 119.4372,112.2092 121.86794,125.70735 95.426198,77.57366 z"
     style="opacity:0.6504425;fill:#acfafb;fill-opacity:1;stroke:none" />
  <path
     style="opacity:0.6504425;fill:#acfafb;fill-opacity:1;stroke:none"
     d="m 234.59094,116.3605 c 5.15473,32.55708 11.35328,29.35724 15.10717,54.45532 3.40573,22.77025 -0.33443,46.28899 -16.57049,45.82414 -20.14358,-0.57673 -25.09474,-39.46952 -17.27199,-57.93573 7.42593,-17.52947 0.99195,-9.1938 18.73531,-42.34373 z"
     id="path3730"
     sodipodi:nodetypes="csasc" />
  <path
     sodipodi:nodetypes="csasc"
     id="path3732"
     d="m 172.18209,77.484973 c 7.24687,38.136057 7.86643,23.778257 11.62032,48.876337 3.40574,22.77026 -13.93363,49.14925 -31.9127,45.12677 -16.60519,-3.7151 -15.7275,-31.40648 -8.90352,-50.26463 5.3338,-14.73998 4.4788,-23.141245 29.1959,-43.738477 z"
     style="opacity:0.6504425;fill:#acfafb;fill-opacity:1;stroke:none" />
</svg>
