<?xml version="1.0" encoding="UTF-8" standalone="no"?>
<!-- Created with Inkscape (http://www.inkscape.org/) -->
<svg
   xmlns:dc="http://purl.org/dc/elements/1.1/"
   xmlns:cc="http://creativecommons.org/ns#"
   xmlns:rdf="http://www.w3.org/1999/02/22-rdf-syntax-ns#"
   xmlns:svg="http://www.w3.org/2000/svg"
   xmlns="http://www.w3.org/2000/svg"
   xmlns:xlink="http://www.w3.org/1999/xlink"
   xmlns:sodipodi="http://sodipodi.sourceforge.net/DTD/sodipodi-0.dtd"
   xmlns:inkscape="http://www.inkscape.org/namespaces/inkscape"
   width="463.07864"
   height="463.07864"
   id="svg4909"
   sodipodi:version="0.32"
   inkscape:version="0.46"
   version="1.0"
   sodipodi:docname="camera_lens.svg"
   inkscape:output_extension="org.inkscape.output.svg.inkscape"
   inkscape:export-filename="/home/roger/mis-dibujos/open/camera_lens.png"
   inkscape:export-xdpi="60"
   inkscape:export-ydpi="60">
  <defs
     id="defs3">
    <linearGradient
       inkscape:collect="always"
       id="linearGradient5887">
      <stop
         style="stop-color:#cdd0ce;stop-opacity:1;"
         offset="0"
         id="stop5889" />
      <stop
         style="stop-color:#cdd0ce;stop-opacity:0;"
         offset="1"
         id="stop5891" />
    </linearGradient>
    <linearGradient
       inkscape:collect="always"
       id="linearGradient5781">
      <stop
         style="stop-color:#2ad4ff;stop-opacity:1;"
         offset="0"
         id="stop5783" />
      <stop
         style="stop-color:#2ad4ff;stop-opacity:0;"
         offset="1"
         id="stop5785" />
    </linearGradient>
    <linearGradient
       id="linearGradient5769">
      <stop
         style="stop-color:#89269d;stop-opacity:1;"
         offset="0"
         id="stop5771" />
      <stop
         id="stop5777"
         offset="0.33681446"
         style="stop-color:#a40000;stop-opacity:1;" />
      <stop
         style="stop-color:#89269d;stop-opacity:0;"
         offset="1"
         id="stop5773" />
    </linearGradient>
    <linearGradient
       id="linearGradient5662"
       inkscape:collect="always">
      <stop
         id="stop5664"
         offset="0"
         style="stop-color:#ffffff;stop-opacity:1;" />
      <stop
         id="stop5666"
         offset="1"
         style="stop-color:#ffffff;stop-opacity:0.05313725" />
    </linearGradient>
    <linearGradient
       id="linearGradient5639">
      <stop
         id="stop5641"
         offset="0"
         style="stop-color:#aed3ff;stop-opacity:1;" />
      <stop
         style="stop-color:#d6e9ff;stop-opacity:0.13245033;"
         offset="0.2101547"
         id="stop5643" />
      <stop
         id="stop5647"
         offset="0.77785289"
         style="stop-color:#c2deff;stop-opacity:0.13245033;" />
      <stop
         id="stop5645"
         offset="1"
         style="stop-color:#aed3ff;stop-opacity:1;" />
    </linearGradient>
    <linearGradient
       inkscape:collect="always"
       id="linearGradient5621">
      <stop
         style="stop-color:#2a5e89;stop-opacity:1;"
         offset="0"
         id="stop5623" />
      <stop
         style="stop-color:#2a5e89;stop-opacity:0;"
         offset="1"
         id="stop5625" />
    </linearGradient>
    <linearGradient
       id="linearGradient5608">
      <stop
         style="stop-color:#042b76;stop-opacity:1;"
         offset="0"
         id="stop5610" />
      <stop
         style="stop-color:#2e75f8;stop-opacity:1;"
         offset="1"
         id="stop5612" />
    </linearGradient>
    <linearGradient
       inkscape:collect="always"
       id="linearGradient5554">
      <stop
         style="stop-color:#ffffff;stop-opacity:1;"
         offset="0"
         id="stop5556" />
      <stop
         style="stop-color:#ffffff;stop-opacity:0.03793103"
         offset="1"
         id="stop5558" />
    </linearGradient>
    <linearGradient
       id="linearGradient5540">
      <stop
         style="stop-color:#aed3ff;stop-opacity:1;"
         offset="0"
         id="stop5542" />
      <stop
         id="stop5637"
         offset="0.5"
         style="stop-color:#d6e9ff;stop-opacity:0.49803922;" />
      <stop
         style="stop-color:#aed3ff;stop-opacity:1;"
         offset="1"
         id="stop5544" />
    </linearGradient>
    <linearGradient
       id="linearGradient5526">
      <stop
         style="stop-color:#000000;stop-opacity:1;"
         offset="0"
         id="stop5528" />
      <stop
         style="stop-color:#ffffff;stop-opacity:0.99607843;"
         offset="1"
         id="stop5530" />
    </linearGradient>
    <linearGradient
       id="linearGradient5504">
      <stop
         style="stop-color:#acacac;stop-opacity:1;"
         offset="0"
         id="stop5506" />
      <stop
         style="stop-color:#000000;stop-opacity:1;"
         offset="1"
         id="stop5508" />
    </linearGradient>
    <inkscape:perspective
       sodipodi:type="inkscape:persp3d"
       inkscape:vp_x="0 : 526.18109 : 1"
       inkscape:vp_y="0 : 1000 : 0"
       inkscape:vp_z="744.09448 : 526.18109 : 1"
       inkscape:persp3d-origin="372.04724 : 350.78739 : 1"
       id="perspective4915" />
    <inkscape:perspective
       id="perspective4981"
       inkscape:persp3d-origin="372.04724 : 350.78739 : 1"
       inkscape:vp_z="744.09448 : 526.18109 : 1"
       inkscape:vp_y="0 : 1000 : 0"
       inkscape:vp_x="0 : 526.18109 : 1"
       sodipodi:type="inkscape:persp3d" />
    <filter
       inkscape:collect="always"
       id="filter5590">
      <feGaussianBlur
         inkscape:collect="always"
         stdDeviation="0.81070223"
         id="feGaussianBlur5592" />
    </filter>
    <filter
       inkscape:collect="always"
       id="filter5827">
      <feGaussianBlur
         inkscape:collect="always"
         stdDeviation="1.0174043"
         id="feGaussianBlur5829" />
    </filter>
    <linearGradient
       inkscape:collect="always"
       xlink:href="#linearGradient5769"
       id="linearGradient5957"
       gradientUnits="userSpaceOnUse"
       gradientTransform="translate(427.84375,138.76983)"
       x1="-150.34375"
       y1="345.375"
       x2="-143.59375"
       y2="305.10675" />
    <radialGradient
       inkscape:collect="always"
       xlink:href="#linearGradient5608"
       id="radialGradient5961"
       gradientUnits="userSpaceOnUse"
       gradientTransform="matrix(1.3392857,0,0,1.171875,495.16071,127.68933)"
       cx="-167"
       cy="337.36218"
       fx="-167"
       fy="337.36218"
       r="56" />
    <linearGradient
       inkscape:collect="always"
       xlink:href="#linearGradient5621"
       id="linearGradient5965"
       gradientUnits="userSpaceOnUse"
       gradientTransform="matrix(1.2614234,0,0,1.2614234,473.02062,129.31064)"
       x1="-182.84375"
       y1="76.875"
       x2="-175.15625"
       y2="165.875" />
    <radialGradient
       inkscape:collect="always"
       xlink:href="#linearGradient5504"
       id="radialGradient5971"
       gradientUnits="userSpaceOnUse"
       gradientTransform="matrix(1.5047732,0.2312093,-0.1611202,1.0486144,317.46449,104.9398)"
       cx="81.5"
       cy="127.87659"
       fx="81.5"
       fy="127.87659"
       r="231.53931" />
    <linearGradient
       inkscape:collect="always"
       xlink:href="#linearGradient5526"
       id="linearGradient5974"
       gradientUnits="userSpaceOnUse"
       gradientTransform="matrix(0,1,-1,0,511.37658,554.37659)"
       x1="-356.81097"
       y1="233.87659"
       x2="47.810963"
       y2="233.87659" />
    <linearGradient
       inkscape:collect="always"
       xlink:href="#linearGradient5887"
       id="linearGradient5989"
       gradientUnits="userSpaceOnUse"
       spreadMethod="reflect"
       x1="-838.1897"
       y1="-119.63782"
       x2="-807.76764"
       y2="-191.78227" />
    <linearGradient
       inkscape:collect="always"
       xlink:href="#linearGradient5639"
       id="linearGradient5991"
       gradientUnits="userSpaceOnUse"
       x1="-228.88583"
       y1="249.36218"
       x2="22.885826"
       y2="249.36218" />
    <linearGradient
       inkscape:collect="always"
       xlink:href="#linearGradient5554"
       id="linearGradient5993"
       gradientUnits="userSpaceOnUse"
       x1="-210.08661"
       y1="245.86218"
       x2="-149.5"
       y2="245.86218" />
    <linearGradient
       inkscape:collect="always"
       xlink:href="#linearGradient5662"
       id="linearGradient5995"
       gradientUnits="userSpaceOnUse"
       x1="-210.08661"
       y1="245.86218"
       x2="-164.82713"
       y2="249.55072" />
    <linearGradient
       inkscape:collect="always"
       xlink:href="#linearGradient5639"
       id="linearGradient5997"
       gradientUnits="userSpaceOnUse"
       x1="-228.88583"
       y1="249.36218"
       x2="22.885826"
       y2="249.36218" />
    <linearGradient
       inkscape:collect="always"
       xlink:href="#linearGradient5781"
       id="linearGradient5999"
       gradientUnits="userSpaceOnUse"
       x1="-153"
       y1="-47.637817"
       x2="-145.55725"
       y2="-89.637817" />
    <linearGradient
       inkscape:collect="always"
       xlink:href="#linearGradient5887"
       id="linearGradient6001"
       gradientUnits="userSpaceOnUse"
       spreadMethod="reflect"
       x1="-838.1897"
       y1="-119.63782"
       x2="-807.76764"
       y2="-191.78227" />
    <linearGradient
       inkscape:collect="always"
       xlink:href="#linearGradient5887"
       id="linearGradient6003"
       gradientUnits="userSpaceOnUse"
       spreadMethod="reflect"
       x1="-838.1897"
       y1="-119.63782"
       x2="-807.76764"
       y2="-191.78227" />
    <inkscape:perspective
       id="perspective6358"
       inkscape:persp3d-origin="372.04724 : 350.78739 : 1"
       inkscape:vp_z="744.09448 : 526.18109 : 1"
       inkscape:vp_y="0 : 1000 : 0"
       inkscape:vp_x="0 : 526.18109 : 1"
       sodipodi:type="inkscape:persp3d" />
  </defs>
  <sodipodi:namedview
     inkscape:document-units="mm"
     id="base"
     pagecolor="#ffffff"
     bordercolor="#666666"
     borderopacity="1.0"
     inkscape:pageopacity="0.0"
     inkscape:pageshadow="2"
     inkscape:zoom="0.5"
     inkscape:cx="232.80624"
     inkscape:cy="266.32648"
     inkscape:current-layer="layer1"
     showgrid="false"
     inkscape:window-width="1272"
     inkscape:window-height="944"
     inkscape:window-x="0"
     inkscape:window-y="0" />
  <metadata
     id="metadata4">
    <rdf:RDF>
      <cc:Work
         rdf:about="">
        <dc:format>image/svg+xml</dc:format>
        <dc:type
           rdf:resource="http://purl.org/dc/dcmitype/StillImage" />
      </cc:Work>
    </rdf:RDF>
  </metadata>
  <g
     inkscape:label="Layer 1"
     inkscape:groupmode="layer"
     id="layer1"
     transform="translate(-45.96068,-168.33727)">
    <path
       sodipodi:type="arc"
       style="fill:#212121;fill-opacity:1;fill-rule:nonzero;stroke:#000000;stroke-width:3.54330707;stroke-linecap:round;stroke-linejoin:round;stroke-miterlimit:4;stroke-dasharray:none;stroke-dashoffset:0;stroke-opacity:1"
       id="path4987"
       sodipodi:cx="296"
       sodipodi:cy="326.36218"
       sodipodi:rx="187"
       sodipodi:ry="187"
       d="M 483,326.36218 A 187,187 0 1 1 109,326.36218 A 187,187 0 1 1 483,326.36218 z"
       transform="translate(-18.5,73.514403)" />
    <path
       id="path5514"
       d="M 478.27471,399.87658 C 478.27471,289.25058 388.126,199.10187 277.49999,199.10187 C 166.87399,199.10187 76.72528,289.25058 76.72528,399.87658 C 76.72528,510.50259 166.87399,600.6513 277.49999,600.6513 C 388.126,600.6513 478.27471,510.50259 478.27471,399.87658 z M 441.40456,399.87658 C 441.40456,490.55354 368.17695,563.78115 277.49999,563.78115 C 186.82304,563.78115 113.59543,490.55354 113.59543,399.87658 C 113.59543,309.19963 186.82304,235.97202 277.49999,235.97202 C 368.17695,235.97202 441.40456,309.19963 441.40456,399.87658 z"
       style="fill:#a3a3a3;fill-opacity:1;fill-rule:nonzero;stroke:url(#linearGradient5974);stroke-width:3.07250834;stroke-linecap:round;stroke-linejoin:round;stroke-miterlimit:4;stroke-dasharray:none;stroke-dashoffset:0;stroke-opacity:1" />
    <path
       style="fill:url(#radialGradient5971);fill-opacity:1;fill-rule:nonzero;stroke:none;stroke-width:1.77165353;stroke-linecap:round;stroke-linejoin:round;stroke-miterlimit:4;stroke-dasharray:none;stroke-dashoffset:0;stroke-opacity:1"
       d="M 277.49999,168.33727 C 149.92283,168.33727 45.96068,272.29942 45.96068,399.87659 C 45.96068,527.45375 149.92283,631.4159 277.49999,631.4159 C 405.07716,631.4159 509.03931,527.45375 509.03931,399.87659 C 509.03931,272.29942 405.07716,168.33727 277.49999,168.33727 z M 277.49999,210.85701 C 382.07133,210.85701 466.51957,295.30525 466.51957,399.87659 C 466.51957,504.44792 382.07133,588.89616 277.49999,588.89616 C 172.92866,588.89616 88.48042,504.44792 88.48042,399.87659 C 88.48042,295.30525 172.92866,210.85701 277.49999,210.85701 z"
       id="path4989" />
    <path
       sodipodi:type="arc"
       style="fill:none;fill-opacity:1;fill-rule:nonzero;stroke:url(#linearGradient5991);stroke-width:1.77165353;stroke-linecap:round;stroke-linejoin:round;stroke-miterlimit:4;stroke-dasharray:none;stroke-dashoffset:0;stroke-opacity:1"
       id="path5538"
       sodipodi:cx="-103"
       sodipodi:cy="249.36218"
       sodipodi:rx="125"
       sodipodi:ry="125"
       d="M 22,249.36218 A 125,125 0 1 1 -228,249.36218 A 125,125 0 1 1 22,249.36218 z"
       transform="matrix(0,-1,1,0,28.13781,296.87659)" />
    <path
       sodipodi:type="arc"
       style="fill:none;fill-opacity:1;fill-rule:nonzero;stroke:url(#linearGradient5993);stroke-width:8.85826778;stroke-linecap:round;stroke-linejoin:round;stroke-miterlimit:4;stroke-dasharray:none;stroke-dashoffset:0;stroke-opacity:1;filter:url(#filter5590)"
       id="path5552"
       sodipodi:cx="-149.5"
       sodipodi:cy="245.86218"
       sodipodi:rx="53.5"
       sodipodi:ry="51.5"
       d="M -96,245.86218 A 53.5,51.5 0 1 1 -203,245.86218 A 53.5,51.5 0 1 1 -96,245.86218 z"
       transform="matrix(0,1,-1,0,523.36218,549.37659)" />
    <path
       transform="matrix(0,1.304875,-1.3555498,0,610.77843,594.9554)"
       d="M -96,245.86218 A 53.5,51.5 0 1 1 -203,245.86218 A 53.5,51.5 0 1 1 -96,245.86218 z"
       sodipodi:ry="51.5"
       sodipodi:rx="53.5"
       sodipodi:cy="245.86218"
       sodipodi:cx="-149.5"
       id="path5594"
       style="opacity:0.55517237;fill:none;fill-opacity:1;fill-rule:nonzero;stroke:url(#linearGradient5995);stroke-width:4.7955575;stroke-linecap:round;stroke-linejoin:round;stroke-miterlimit:4;stroke-dasharray:none;stroke-dashoffset:0;stroke-opacity:1"
       sodipodi:type="arc" />
    <path
       style="fill:url(#linearGradient5965);fill-opacity:1;fill-rule:nonzero;stroke:none;stroke-width:6.37795258;stroke-linecap:round;stroke-linejoin:round;stroke-miterlimit:4;stroke-dasharray:none;stroke-dashoffset:0;stroke-opacity:1"
       d="M 277.5,235.74324 C 208.45046,235.74324 150.51558,283.64261 135.15625,348.00993 L 419.84375,348.00993 C 404.4844,283.64261 346.54953,235.74324 277.5,235.74324 z"
       id="path5616" />
    <path
       transform="matrix(0,-0.8689289,0.8689289,0,60.82199,310.37691)"
       d="M 22,249.36218 A 125,125 0 1 1 -228,249.36218 A 125,125 0 1 1 22,249.36218 z"
       sodipodi:ry="125"
       sodipodi:rx="125"
       sodipodi:cy="249.36218"
       sodipodi:cx="-103"
       id="path5649"
       style="fill:none;fill-opacity:1;fill-rule:nonzero;stroke:url(#linearGradient5997);stroke-width:1.77165353;stroke-linecap:round;stroke-linejoin:round;stroke-miterlimit:4;stroke-dasharray:none;stroke-dashoffset:0;stroke-opacity:1"
       sodipodi:type="arc" />
    <path
       style="opacity:0.34137932;fill:url(#radialGradient5961);fill-opacity:1;fill-rule:nonzero;stroke:none;stroke-width:6.37795258;stroke-linecap:round;stroke-linejoin:round;stroke-miterlimit:4;stroke-dasharray:none;stroke-dashoffset:0;stroke-opacity:1"
       d="M 271.5,457.42346 C 230.1,457.42346 196.5,486.82345 196.5,523.04846 C 196.5,529.62582 197.62652,535.96249 199.6875,541.95471 C 223.17733,554.93772 250.20453,562.32972 279,562.32971 C 300.34672,562.32971 320.72135,558.28107 339.40625,550.89221 C 343.94669,542.4359 346.5,533.0045 346.5,523.04846 C 346.5,486.82346 312.9,457.42345 271.5,457.42346 z"
       id="path5598" />
    <path
       sodipodi:type="arc"
       style="opacity:0.38380283;fill:#5fd3bc;fill-opacity:1;fill-rule:nonzero;stroke:none;stroke-width:6.37795258;stroke-linecap:round;stroke-linejoin:round;stroke-miterlimit:4;stroke-dasharray:none;stroke-dashoffset:0;stroke-opacity:1"
       id="path5660"
       sodipodi:cx="-153"
       sodipodi:cy="-68.637817"
       sodipodi:rx="39"
       sodipodi:ry="21"
       d="M -114,-68.637817 A 39,21 0 1 1 -192,-68.637817 A 39,21 0 1 1 -114,-68.637817 z"
       transform="translate(430.5,404.5144)" />
    <path
       style="opacity:0.92758622;fill:url(#linearGradient5957);fill-opacity:1;fill-rule:nonzero;stroke:none;stroke-width:8.85826778;stroke-linecap:round;stroke-linejoin:round;stroke-miterlimit:4;stroke-dashoffset:0;stroke-opacity:1"
       d="M 300.00603,403.60835 L 253.0747,404.76714 L 243.75,477.77144 C 253.2694,481.81032 264.37959,484.14483 276.25067,484.14483 C 289.17495,484.14483 301.20177,481.37298 311.25,476.64885 L 300.00603,403.60835 z"
       id="rect5762" />
    <path
       transform="matrix(1.6794872,0,0,1,535.96153,383.5144)"
       d="M -114,-68.637817 A 39,21 0 1 1 -192,-68.637817 A 39,21 0 1 1 -114,-68.637817 z"
       sodipodi:ry="21"
       sodipodi:rx="39"
       sodipodi:cy="-68.637817"
       sodipodi:cx="-153"
       id="path5779"
       style="opacity:0.38380283;fill:url(#linearGradient5999);fill-opacity:1;fill-rule:nonzero;stroke:none;stroke-width:6.37795258;stroke-linecap:round;stroke-linejoin:round;stroke-miterlimit:4;stroke-dasharray:none;stroke-dashoffset:0;stroke-opacity:1"
       sodipodi:type="arc" />
    <path
       style="font-size:16px;font-style:normal;font-variant:normal;font-weight:normal;font-stretch:normal;text-align:start;line-height:125%;writing-mode:lr-tb;text-anchor:start;fill:#e6e6e6;fill-opacity:1;stroke:none;stroke-width:1px;stroke-linecap:butt;stroke-linejoin:miter;stroke-opacity:1;font-family:Bitstream Vera Sans;-inkscape-font-specification:Bitstream Vera Sans"
       d="M 64.54814,410.36216 L 66.2038,410.19514 C 65.76484,410.77338 65.45389,411.37534 65.27096,412.00101 C 65.08753,412.62152 65.02979,413.2686 65.09773,413.94226 C 65.23157,415.26887 65.74081,416.24351 66.62547,416.86619 C 67.50497,417.48941 68.71166,417.72365 70.24553,417.56891 C 71.77423,417.41471 72.90983,416.94419 73.65231,416.15736 C 74.38962,415.37106 74.69136,414.31461 74.55754,412.98801 C 74.48958,412.31435 74.30377,411.69184 74.0001,411.12046 C 73.69591,410.54392 73.27101,410.0162 72.72539,409.53728 L 74.3655,409.37183 C 74.79402,409.8835 75.13266,410.43825 75.38142,411.03609 C 75.62965,411.62876 75.78827,412.2671 75.85727,412.95112 C 76.03448,414.70784 75.63771,416.14554 74.66696,417.26424 C 73.69104,418.38347 72.2729,419.03691 70.41254,419.22457 C 68.54702,419.41276 67.02695,419.05571 65.85232,418.15342 C 64.67254,417.25165 63.99404,415.92241 63.81682,414.1657 C 63.74678,413.47131 63.77419,412.80897 63.89905,412.17866 C 64.01823,411.54371 64.23459,410.93821 64.54814,410.36216 M 64.82479,403.39912 L 70.72118,405.27242 L 70.52531,400.98783 L 64.82479,403.39912 M 63.3124,404.35982 L 63.23069,402.57262 L 74.67957,397.59926 L 74.7545,399.23818 L 71.81396,400.43622 L 72.05408,405.68855 L 75.09167,406.61329 L 75.16766,408.27561 L 63.3124,404.35982 M 63.01338,395.76711 L 63.03783,393.64225 L 72.85452,388.58301 L 63.09735,388.47072 L 63.11497,386.93957 L 74.77826,387.07379 L 74.75381,389.19865 L 64.93713,394.2579 L 74.69429,394.37019 L 74.67667,395.90133 L 63.01338,395.76711 M 63.27421,383.0997 L 63.42612,380.98014 L 73.52869,376.51905 L 63.79584,375.8215 L 63.9053,374.29417 L 75.53952,375.12799 L 75.38761,377.24755 L 65.28505,381.70864 L 75.01789,382.4062 L 74.90843,383.93353 L 63.27421,383.0997 M 65.98057,365.90019 C 65.8283,367.03587 66.13047,367.996 66.88707,368.78059 C 67.64438,369.56002 68.75347,370.04768 70.21435,370.24356 C 71.67007,370.43875 72.86587,370.26015 73.80175,369.70774 C 74.73832,369.15019 75.28275,368.30357 75.43502,367.1679 C 75.5873,366.03223 75.28444,365.07726 74.52645,364.30299 C 73.76915,363.52357 72.66264,363.03626 71.20691,362.84105 C 69.74604,362.64518 68.54765,362.82344 67.61177,363.37583 C 66.67659,363.92308 66.13286,364.76453 65.98057,365.90019 M 64.71069,365.72992 C 64.92804,364.10902 65.64638,362.88635 66.8657,362.0619 C 68.07989,361.23679 69.60067,360.94674 71.42806,361.19175 C 73.2503,361.4361 74.64095,362.11653 75.60004,363.23305 C 76.55396,364.34889 76.92225,365.71727 76.70491,367.33817 C 76.48687,368.96425 75.77042,370.19242 74.55556,371.02271 C 73.34138,371.84784 71.8206,372.13789 69.9932,371.89286 C 68.16581,371.64783 66.77515,370.9674 65.82122,369.85156 C 64.86284,368.72988 64.49266,367.356 64.71069,365.72992 M 66.18779,357.27148 L 66.59962,355.18677 L 77.17474,352.00402 L 67.60193,350.11295 L 67.89869,348.61073 L 79.34161,350.87123 L 78.92978,352.95594 L 68.35466,356.1387 L 77.92747,358.02976 L 77.63071,359.53198 L 66.18779,357.27148 M 69.89251,340.31248 L 72.40857,331.50059 L 73.56546,331.83091 L 80.32245,341.42998 L 82.39664,334.16561 L 83.67373,334.53026 L 81.059,343.68772 L 79.90211,343.35739 L 73.14513,333.75833 L 71.1696,340.67713 L 69.89251,340.31248 M 75.93887,324.36797 C 75.55997,325.44935 75.66162,326.45076 76.24382,327.3722 C 76.82776,328.28875 77.81524,328.99072 79.20627,329.47814 C 80.59239,329.96384 81.79959,330.03088 82.82788,329.67926 C 83.8579,329.32274 84.56236,328.60379 84.94127,327.52241 C 85.32018,326.44105 85.21681,325.44456 84.63116,324.53293 C 84.04723,323.6164 83.06221,322.91528 81.67609,322.42958 C 80.28506,321.94217 79.07539,321.87427 78.0471,322.22587 C 77.02053,322.57258 76.31779,323.28661 75.93887,324.36797 M 74.72971,323.94428 C 75.27053,322.40088 76.2214,321.34884 77.58232,320.78816 C 78.93834,320.22579 80.48635,320.24944 82.22637,320.85913 C 83.96148,321.46713 85.1857,322.41486 85.89903,323.70234 C 86.60745,324.98812 86.69125,326.40271 86.15044,327.94611 C 85.60791,329.49444 84.65777,330.55225 83.30004,331.11955 C 81.94402,331.68194 80.39601,331.65829 78.65598,331.04858 C 76.91597,330.43888 75.69175,329.49114 74.98332,328.20537 C 74.27172,326.91297 74.18718,325.49261 74.72971,323.94428 M 80.71364,312.00145 C 80.26767,313.05694 80.30633,314.06275 80.8296,315.01889 C 81.35491,315.97025 82.29643,316.73276 83.65416,317.30645 C 85.0071,317.87811 86.20772,318.02072 87.25604,317.73427 C 88.30638,317.44304 89.05454,316.76968 89.50052,315.7142 C 89.94649,314.65872 89.90581,313.65771 89.37848,312.71115 C 88.85317,311.75981 87.91405,310.9983 86.56111,310.42663 C 85.20338,309.85296 84.00036,309.70933 82.95204,309.99576 C 81.90576,310.27742 81.15962,310.94598 80.71364,312.00145 M 79.53342,311.50276 C 80.16996,309.99632 81.18493,309.00598 82.57833,308.53174 C 83.96694,308.0555 85.51043,308.17618 87.20879,308.89379 C 88.90236,309.60939 90.06474,310.63202 90.69593,311.9617 C 91.32233,313.28937 91.31726,314.70643 90.68074,316.21288 C 90.04218,317.72414 89.02758,318.72029 87.63694,319.20134 C 86.24834,319.67759 84.70485,319.55691 83.00648,318.83929 C 81.30812,318.12168 80.14574,317.09904 79.51934,315.77138 C 78.89018,314.4369 78.89487,313.01403 79.53342,311.50276 M 83.18476,303.68189 L 84.23993,301.58035 L 92.66911,302.4819 L 86.91817,296.24622 L 87.97334,294.14468 L 98.39725,299.37846 L 97.70666,300.75389 L 88.55345,296.15811 L 94.35323,302.43581 L 93.6416,303.85313 L 85.14255,302.95146 L 94.29576,307.54723 L 93.60867,308.91567 L 83.18476,303.68189 M 92.51334,286.15869 L 93.33378,284.81059 L 102.16314,290.18405 L 105.1159,285.33225 L 106.25043,286.02271 L 102.47723,292.22262 L 92.51334,286.15869 M 97.49024,278.1202 L 101.61589,272.00713 L 102.71676,272.7501 L 99.47393,277.55507 L 102.33619,279.48679 L 105.44354,274.88256 L 106.54441,275.62552 L 103.43706,280.22975 L 106.94043,282.59413 L 110.26192,277.67259 L 111.36279,278.41556 L 107.15848,284.64519 L 97.49024,278.1202 M 103.5746,269.24395 L 104.85747,267.54989 L 115.75876,269.31768 L 107.97976,263.42683 L 108.90419,262.20611 L 118.20286,269.24777 L 116.91999,270.94184 L 106.0187,269.17404 L 113.79769,275.06489 L 112.87327,276.28562 L 103.5746,269.24395 M 116.0966,254.18437 L 117.27108,255.17901 C 116.6654,255.45097 116.13724,255.7442 115.68659,256.05871 C 115.23596,256.37325 114.85076,256.7193 114.53098,257.09687 C 113.97561,257.75268 113.67363,258.36715 113.62506,258.94027 C 113.57987,259.50943 113.79177,259.9926 114.26076,260.38978 C 114.65424,260.72302 115.05163,260.85821 115.45292,260.79537 C 115.85361,260.7252 116.39493,260.4124 117.07689,259.85696 L 117.8419,259.25584 C 118.77352,258.50234 119.63601,258.09639 120.4294,258.03799 C 121.22217,257.97228 121.98024,258.24571 122.70361,258.85831 C 123.56609,259.58873 123.97419,260.43257 123.92791,261.38984 C 123.88499,262.34314 123.39062,263.37821 122.44479,264.49505 C 122.08799,264.91636 121.65994,265.32509 121.16064,265.72125 C 120.6647,266.11344 120.10791,266.48481 119.49026,266.83535 L 118.2502,265.78517 C 118.93846,265.52855 119.55074,265.22465 120.08703,264.87346 C 120.62332,264.52227 121.08333,264.12013 121.46705,263.66703 C 122.04935,262.97944 122.36358,262.33439 122.40971,261.73189 C 122.45584,261.12941 122.22851,260.61611 121.72772,260.19199 C 121.29051,259.82174 120.83426,259.6674 120.35895,259.72897 C 119.88701,259.78659 119.33026,260.06926 118.68869,260.57699 L 117.92458,261.18912 C 116.98503,261.9359 116.15449,262.34844 115.43296,262.42673 C 114.71145,262.50504 114.01087,262.2564 113.33121,261.68081 C 112.54426,261.01436 112.15816,260.21304 112.17293,259.27685 C 112.19107,258.3367 112.61247,257.37974 113.43712,256.40597 C 113.79055,255.98865 114.18847,255.59535 114.63087,255.22607 C 115.07328,254.85681 115.56186,254.50957 116.0966,254.18437 M 126.08839,244.96643 L 127.72713,252.17475 L 130.52363,249.33665 L 126.08839,244.96643 M 124.81835,244.29631 L 126.21112,242.88282 L 131.62577,248.2181 L 132.79372,247.03278 L 133.72863,247.95398 L 132.56068,249.1393 L 134.51953,251.06943 L 133.41738,252.18798 L 131.45853,250.25785 L 127.76276,254.0086 L 126.67761,252.93935 L 124.81835,244.29631 M 136.86379,236.8584 L 137.42029,242.13387 L 142.91148,243.18413 L 141.66434,244.33249 L 137.46229,243.5289 L 137.91716,247.78285 L 136.67002,248.9312 L 136.06896,243.26134 L 130.95567,242.29853 L 132.20281,241.15018 L 136.02122,241.8716 L 135.61665,238.00675 L 136.86379,236.8584"
       id="text5869" />
    <path
       sodipodi:type="arc"
       style="opacity:0.67605633;fill:none;fill-opacity:1;fill-rule:nonzero;stroke:url(#linearGradient6001);stroke-width:0.37938437;stroke-linecap:round;stroke-linejoin:round;stroke-miterlimit:4;stroke-dasharray:none;stroke-dashoffset:0;stroke-opacity:1"
       id="path5885"
       sodipodi:cx="-626"
       sodipodi:cy="-119.63782"
       sodipodi:rx="212"
       sodipodi:ry="212"
       d="M -414,-119.63782 A 212,212 0 1 1 -838,-119.63782 A 212,212 0 1 1 -414,-119.63782 z"
       transform="matrix(0.8723124,0,0,0.8723124,823.56756,506.10672)" />
    <path
       transform="matrix(0.8535103,7.7214931e-2,-7.7214931e-2,0.8535103,799.30963,555.44383)"
       d="M -414,-119.63782 A 212,212 0 1 1 -838,-119.63782 A 212,212 0 1 1 -414,-119.63782 z"
       sodipodi:ry="212"
       sodipodi:rx="212"
       sodipodi:cy="-119.63782"
       sodipodi:cx="-626"
       id="path5895"
       style="opacity:0.67605633;fill:none;fill-opacity:1;fill-rule:nonzero;stroke:url(#linearGradient6003);stroke-width:0.37938437;stroke-linecap:round;stroke-linejoin:round;stroke-miterlimit:4;stroke-dasharray:none;stroke-dashoffset:0;stroke-opacity:1"
       sodipodi:type="arc" />
    <path
       style="fill:none;fill-opacity:1;fill-rule:nonzero;stroke:#000000;stroke-width:3.54330707;stroke-linecap:round;stroke-linejoin:round;stroke-miterlimit:4;stroke-dasharray:none;stroke-dashoffset:0;stroke-opacity:1"
       d="M 275.5,211.84375 C 170.92867,211.84375 86.46876,296.30366 86.46875,400.875 C 86.46875,505.44633 170.92866,589.90625 275.5,589.90625 C 380.07134,589.90625 464.53126,505.44633 464.53125,400.875 C 464.53125,296.30366 380.07133,211.84375 275.5,211.84375 z"
       id="path5903" />
    <path
       transform="matrix(0.6300468,0,0,0.5447753,371.2873,255.08841)"
       d="M -137,243.36218 L -158.62436,252.81667 L -177.62436,238.81667 L -175,215.36218 L -153.37564,205.9077 L -134.37564,219.9077 L -137,243.36218 z"
       inkscape:randomized="0"
       inkscape:rounded="0"
       inkscape:flatsided="true"
       sodipodi:arg2="1.1586255"
       sodipodi:arg1="0.63502674"
       sodipodi:r2="11.800423"
       sodipodi:r1="23.600847"
       sodipodi:cy="229.36218"
       sodipodi:cx="-156"
       sodipodi:sides="6"
       id="path5831"
       style="opacity:0.67605633;fill:#ff7f2a;fill-opacity:1;fill-rule:nonzero;stroke:none;stroke-width:8.85826778;stroke-linecap:round;stroke-linejoin:round;stroke-miterlimit:4;stroke-dasharray:none;stroke-dashoffset:0;stroke-opacity:1;filter:url(#filter5827)"
       sodipodi:type="star" />
    <path
       sodipodi:type="star"
       style="opacity:0.67605633;fill:#636667;fill-opacity:1;fill-rule:nonzero;stroke:none;stroke-width:8.85826778;stroke-linecap:round;stroke-linejoin:round;stroke-miterlimit:4;stroke-dasharray:none;stroke-dashoffset:0;stroke-opacity:1;filter:url(#filter5827)"
       id="path5789"
       sodipodi:sides="6"
       sodipodi:cx="-156"
       sodipodi:cy="229.36218"
       sodipodi:r1="23.600847"
       sodipodi:r2="11.800423"
       sodipodi:arg1="0.63502674"
       sodipodi:arg2="1.1586255"
       inkscape:flatsided="true"
       inkscape:rounded="0"
       inkscape:randomized="0"
       d="M -137,243.36218 L -158.62436,252.81667 L -177.62436,238.81667 L -175,215.36218 L -153.37564,205.9077 L -134.37564,219.9077 L -137,243.36218 z"
       transform="matrix(0.7919013,0,0,0.7919013,414.22899,209.02503)" />
    <path
       sodipodi:type="arc"
       style="opacity:0.67605633;fill:none;fill-opacity:1;fill-rule:nonzero;stroke:url(#linearGradient5989);stroke-width:0.37938437;stroke-linecap:round;stroke-linejoin:round;stroke-miterlimit:4;stroke-dasharray:none;stroke-dashoffset:0;stroke-opacity:1"
       id="path5987"
       sodipodi:cx="-626"
       sodipodi:cy="-119.63782"
       sodipodi:rx="212"
       sodipodi:ry="212"
       d="M -414,-119.63782 A 212,212 0 1 1 -838,-119.63782 A 212,212 0 1 1 -414,-119.63782 z"
       transform="matrix(0.8384326,0.1201594,-0.1201594,0.8384326,782.61194,582.64453)" />
  </g>
</svg>
