<?xml version="1.0" encoding="UTF-8" standalone="no"?>
<!-- Created with Inkscape (http://www.inkscape.org/) -->

<svg
   xmlns:dc="http://purl.org/dc/elements/1.1/"
   xmlns:cc="http://creativecommons.org/ns#"
   xmlns:rdf="http://www.w3.org/1999/02/22-rdf-syntax-ns#"
   xmlns:svg="http://www.w3.org/2000/svg"
   xmlns="http://www.w3.org/2000/svg"
   xmlns:xlink="http://www.w3.org/1999/xlink"
   xmlns:sodipodi="http://sodipodi.sourceforge.net/DTD/sodipodi-0.dtd"
   xmlns:inkscape="http://www.inkscape.org/namespaces/inkscape"
   width="744.09448819"
   height="1052.3622047"
   id="svg2"
   version="1.1"
   inkscape:version="0.47 r22583"
   sodipodi:docname="logo.svg"
   inkscape:export-filename="/home/mattia/prog/curtain/logo.png"
   inkscape:export-xdpi="21.664549"
   inkscape:export-ydpi="21.664549">
  <defs
     id="defs4">
    <linearGradient
       id="linearGradient3621">
      <stop
         id="stop3623"
         offset="0"
         style="stop-color:#7e0000;stop-opacity:1;" />
      <stop
         id="stop3625"
         offset="1"
         style="stop-color:#cd0000;stop-opacity:1;" />
    </linearGradient>
    <inkscape:perspective
       sodipodi:type="inkscape:persp3d"
       inkscape:vp_x="0 : 526.18109 : 1"
       inkscape:vp_y="0 : 1000 : 0"
       inkscape:vp_z="744.09448 : 526.18109 : 1"
       inkscape:persp3d-origin="372.04724 : 350.78739 : 1"
       id="perspective10" />
    <radialGradient
       inkscape:collect="always"
       xlink:href="#linearGradient3621"
       id="radialGradient3639"
       cx="360.62445"
       cy="453.34174"
       fx="360.62445"
       fy="453.34174"
       r="332.84018"
       gradientUnits="userSpaceOnUse"
       spreadMethod="pad" />
  </defs>
  <sodipodi:namedview
     id="base"
     pagecolor="#ffffff"
     bordercolor="#666666"
     borderopacity="1.0"
     inkscape:pageopacity="0.0"
     inkscape:pageshadow="2"
     inkscape:zoom="0.70000001"
     inkscape:cx="363.41219"
     inkscape:cy="552.6613"
     inkscape:document-units="px"
     inkscape:current-layer="layer1"
     showgrid="false"
     inkscape:window-width="1280"
     inkscape:window-height="954"
     inkscape:window-x="-4"
     inkscape:window-y="-4"
     inkscape:window-maximized="1"
     showguides="true"
     inkscape:guide-bbox="true" />
  <metadata
     id="metadata7">
    <rdf:RDF>
      <cc:Work
         rdf:about="">
        <dc:format>image/svg+xml</dc:format>
        <dc:type
           rdf:resource="http://purl.org/dc/dcmitype/StillImage" />
        <dc:title></dc:title>
      </cc:Work>
    </rdf:RDF>
  </metadata>
  <g
     inkscape:label="Livello 1"
     inkscape:groupmode="layer"
     id="layer1">
    <path
       sodipodi:type="arc"
       style="fill:url(#radialGradient3639);fill-opacity:1;stroke:none"
       id="path3631"
       sodipodi:cx="360.62445"
       sodipodi:cy="453.34174"
       sodipodi:rx="332.34018"
       sodipodi:ry="332.34018"
       d="m 692.96463,453.34174 a 332.34018,332.34018 0 1 1 -664.680359,0 332.34018,332.34018 0 1 1 664.680359,0 z"
       transform="translate(4,46)" />
    <g
       transform="scale(1.1066,0.90366889)"
       style="font-size:159.35040283px;font-style:normal;font-weight:normal;fill:#ffffff;fill-opacity:1;stroke:none;font-family:Bitstream Vera Sans"
       id="text2816">
      <path
         d="m 156.65809,804.64606 89.47898,0 0,-506.72338 -89.47898,0 0,506.72338 M 515.06033,357.25113 c -3.8e-4,-12.31911 -1.62137,-22.36927 -4.86299,-30.15052 -3.24236,-7.7803 -7.78114,-13.77798 -13.61637,-17.99306 -5.51174,-4.21409 -11.99571,-7.13188 -19.45195,-8.75338 -7.13271,-1.62049 -14.42719,-2.43099 -21.88345,-2.43149 l -179.44427,0 0,59.32845 119.62951,0 c 2.59334,4.5e-4 5.51113,0.16255 8.75338,0.4863 3.56593,0.32465 6.80792,1.62144 9.72598,3.89039 2.91752,1.94564 5.51111,4.86343 7.78078,8.75338 2.59331,3.89082 3.89011,9.5643 3.89039,17.02046 l 0,29.66423 89.47899,0 0,-59.81476 m -119.62952,387.58017 -119.62951,0 0,59.81476 179.44427,0 c 7.45626,0 14.75074,-0.8105 21.88345,-2.4315 7.45624,-1.62099 13.94021,-4.53878 19.45195,-8.75338 5.83523,-4.53877 10.37401,-10.53645 13.61637,-17.99305 3.24162,-7.78075 4.86261,-17.99301 4.86299,-30.63683 l 0,-58.84216 -89.47899,0 0,29.17793 c -2.8e-4,7.13247 -1.29708,12.80595 -3.89039,17.02046 -2.26967,3.89046 -4.86326,6.80825 -7.78078,8.75338 -2.91806,1.94526 -6.16005,3.07995 -9.72598,3.40409 -3.24225,0.32426 -6.16004,0.48636 -8.75338,0.4863"
         style="font-size:995.94000244px;fill:#ffffff;font-family:'It wasn\'t me';-inkscape-font-specification:'It wasn\'t me'"
         id="path2854" />
    </g>
    <g
       style="font-size:100px;font-style:normal;font-weight:normal;fill:#ffffff;fill-opacity:1;stroke:none;font-family:Bitstream Vera Sans"
       id="text2831">
      <path
         d="m 305.22699,511.74933 0,-33.10547 8.98437,0 0,32.76367 c -1e-5,5.1758 1.0091,9.06577 3.02735,11.66992 2.01821,2.57163 5.04555,3.85743 9.08203,3.85743 4.85023,0 8.67509,-1.54622 11.47461,-4.63868 2.83199,-3.09243 4.248,-7.30792 4.24805,-12.64648 l 0,-31.00586 8.98437,0 0,54.6875 -8.98437,0 0,-8.39844 c -2.18104,3.32032 -4.7201,5.79428 -7.61719,7.42188 -2.86462,1.59505 -6.2012,2.39257 -10.00977,2.39258 -6.28257,-10e-6 -11.05145,-1.95313 -14.30664,-5.85938 -3.25522,-3.90624 -4.88282,-9.61913 -4.88281,-17.13867 m 22.60742,-34.42383 0,0"
         style=""
         id="path2857" />
    </g>
    <g
       style="font-size:100px;font-style:normal;font-weight:normal;fill:#ffffff;fill-opacity:1;stroke:none;font-family:Bitstream Vera Sans"
       id="text2835">
      <path
         d="m 393.41888,488.58459 c -1.00915,-0.58589 -2.11592,-1.00906 -3.32031,-1.26953 -1.17191,-0.29292 -2.47399,-0.4394 -3.90625,-0.43945 -5.07815,5e-5 -8.9844,1.6602 -11.71875,4.98047 -2.70184,3.2878 -4.05275,8.02412 -4.05273,14.20898 l 0,28.8086 -9.03321,0 0,-54.6875 9.03321,0 0,8.49609 c 1.888,-3.32026 4.34568,-5.77794 7.37304,-7.37305 3.02732,-1.62754 6.7057,-2.44135 11.03516,-2.4414 0.61845,5e-5 1.30205,0.0489 2.05078,0.14648 0.74866,0.0652 1.57874,0.17909 2.49024,0.3418 l 0.0488,9.22851"
         style=""
         id="path2860" />
    </g>
    <g
       style="font-size:100px;font-style:normal;font-weight:normal;fill:#ffffff;fill-opacity:1;stroke:none;font-family:Bitstream Vera Sans"
       id="text2839">
      <path
         d="m 417.40375,464.65881 0,15.52735 18.50586,0 0,6.98242 -18.50586,0 0,29.6875 c -2e-5,4.45965 0.60219,7.32423 1.80664,8.59375 1.23696,1.26954 3.72719,1.9043 7.4707,1.9043 l 9.22852,0 0,7.51953 -9.22852,0 c -6.93361,0 -11.71876,-1.28581 -14.35547,-3.85742 -2.63673,-2.60416 -3.95508,-7.32421 -3.95508,-14.16016 l 0,-29.6875 -6.59179,0 0,-6.98242 6.59179,0 0,-15.52735 9.03321,0"
         style=""
         id="path2863" />
    </g>
    <g
       style="font-size:100px;font-style:normal;font-weight:normal;fill:#ffffff;fill-opacity:1;stroke:none;font-family:Bitstream Vera Sans"
       id="text2843">
      <path
         d="m 472.54095,505.96741 c -7.25914,2e-5 -12.28843,0.8301 -15.08789,2.49023 -2.79949,1.66018 -4.19923,4.49221 -4.19921,8.4961 -2e-5,3.19011 1.04165,5.72917 3.125,7.61718 2.11586,1.85548 4.98044,2.78321 8.59375,2.78321 4.98043,0 8.96806,-1.75781 11.96289,-5.27344 3.0273,-3.54816 4.54097,-8.25194 4.54101,-14.11133 l 0,-2.00195 -8.93555,0 m 17.91993,-3.71094 0,31.20117 -8.98438,0 0,-8.30078 c -2.05082,3.32032 -4.60616,5.778 -7.66601,7.37305 -3.05993,1.5625 -6.80342,2.34375 -11.23047,2.34375 -5.59898,0 -10.05861,-1.5625 -13.37891,-4.6875 -3.28777,-3.15755 -4.93165,-7.37304 -4.93164,-12.64649 -1e-5,-6.15232 2.05077,-10.79099 6.15234,-13.91601 4.1341,-3.12497 10.28644,-4.68747 18.45704,-4.6875 l 12.59765,0 0,-0.87891 c -4e-5,-4.13407 -1.36723,-7.32418 -4.10156,-9.57031 -2.70186,-2.2786 -6.51045,-3.41792 -11.42578,-3.41797 -3.12503,5e-5 -6.16864,0.3744 -9.13086,1.12305 -2.96226,0.74874 -5.81056,1.87179 -8.54492,3.36914 l 0,-8.30078 c 3.28774,-1.26948 6.47784,-2.21349 9.57031,-2.83204 3.09242,-0.65098 6.10349,-0.9765 9.0332,-0.97656 7.91012,6e-5 13.81832,2.05084 17.72461,6.15235 3.9062,4.1016 5.85932,10.31905 5.85938,18.65234"
         style=""
         id="path2866" />
    </g>
    <g
       style="font-size:100px;font-style:normal;font-weight:normal;fill:#ffffff;fill-opacity:1;stroke:none;font-family:Bitstream Vera Sans"
       id="text2847">
      <path
         d="m 502.82074,480.18616 8.98437,0 0,54.6875 -8.98437,0 0,-54.6875 m 0,-21.28907 8.98437,0 0,11.37696 -8.98437,0 0,-11.37696"
         style=""
         id="path2869" />
    </g>
    <g
       style="font-size:100px;font-style:normal;font-weight:normal;fill:#ffffff;fill-opacity:1;stroke:none;font-family:Bitstream Vera Sans"
       id="text2851">
      <path
         d="m 569.96576,501.86584 0,33.00782 -8.98438,0 0,-32.71485 c -4e-5,-5.17574 -1.00916,-9.04943 -3.02734,-11.62109 -2.01827,-2.57157 -5.04561,-3.85737 -9.08203,-3.85742 -4.85029,5e-5 -8.67516,1.54627 -11.47461,4.63867 -2.7995,3.09249 -4.19924,7.30798 -4.19922,12.64648 l 0,30.90821 -9.0332,0 0,-54.6875 9.0332,0 0,8.49609 c 2.14842,-3.28771 4.6712,-5.74539 7.56836,-7.37305 2.92966,-1.62754 6.2988,-2.44135 10.10742,-2.4414 6.28251,5e-5 11.03511,1.95318 14.25781,5.85937 3.22261,3.87375 4.83393,9.58663 4.83399,17.13867"
         style=""
         id="path2872" />
    </g>
  </g>
</svg>
